<svg width="42" height="35" viewBox="0 0 42 35" fill="none" xmlns="http://www.w3.org/2000/svg">
<g filter="url(#filter0_d_845_8047)">
<path d="M26.415 0.245098C26.3806 0.246659 26.2714 0.257586 26.173 0.266952C26.0747 0.274757 25.9202 0.293488 25.8296 0.305976C25.7391 0.318464 25.5705 0.346561 25.455 0.368415C25.3395 0.390269 25.135 0.435537 25.0023 0.468318C24.8696 0.501098 24.648 0.565098 24.5106 0.608805C24.3732 0.654074 24.1453 0.735244 24.0033 0.79144C23.8612 0.847635 23.6193 0.955342 23.4647 1.03027C23.3102 1.1052 23.0963 1.21759 22.9886 1.28002C22.8809 1.34246 22.6811 1.46734 22.5438 1.55788C22.4064 1.64998 22.2035 1.79515 22.0911 1.88256C21.9787 1.96998 21.8007 2.11827 21.693 2.21193C21.5853 2.30715 21.3918 2.4929 21.2638 2.62402C21.1342 2.75671 20.9594 2.94871 20.8735 3.05173C20.7877 3.15476 20.6643 3.30929 20.5988 3.39515C20.5332 3.481 20.4177 3.64646 20.3397 3.76198C20.2616 3.87749 20.1445 4.06793 20.0774 4.18344C20.0103 4.29895 19.9042 4.50032 19.8402 4.62832C19.7746 4.75788 19.6778 4.96861 19.6247 5.09661C19.5717 5.22617 19.4905 5.4369 19.4468 5.5649C19.4015 5.69446 19.3375 5.89739 19.3032 6.01759C19.2688 6.13778 19.2173 6.34851 19.1877 6.48588C19.1596 6.62324 19.1205 6.83085 19.1034 6.94637C19.0862 7.06188 19.0643 7.2211 19.055 7.29759C19.0472 7.37407 19.0316 7.54422 19.0238 7.67222C19.016 7.80178 19.0082 8.01563 19.0082 8.14832C19.0082 8.281 19.016 8.50266 19.0238 8.64002C19.0331 8.77739 19.055 9.00529 19.0722 9.14734C19.0893 9.28939 19.1268 9.52354 19.1564 9.67027C19.1845 9.817 19.2064 9.93719 19.2048 9.94032C19.2048 9.94188 19.0878 9.93719 18.9457 9.92783C18.8037 9.91846 18.5648 9.90129 18.415 9.8888C18.2651 9.87476 18.0123 9.84978 17.853 9.83261C17.6938 9.81544 17.416 9.77954 17.2364 9.75456C17.0569 9.72959 16.765 9.68432 16.5886 9.65466C16.4123 9.625 16.1422 9.57661 15.9877 9.54539C15.8331 9.51417 15.5662 9.45798 15.3945 9.41895C15.2228 9.37993 14.9309 9.30968 14.7467 9.26285C14.5625 9.21446 14.2815 9.13798 14.1223 9.09271C13.9631 9.04744 13.6852 8.96315 13.5057 8.90539C13.3262 8.84763 13.0203 8.74461 12.8267 8.67593C12.6331 8.60724 12.2757 8.47144 12.0306 8.37466C11.7855 8.27632 11.453 8.13739 11.2891 8.06559C11.1252 7.99378 10.8552 7.8689 10.6882 7.79085C10.5211 7.71124 10.2464 7.57544 10.0794 7.48959C9.91235 7.40217 9.67352 7.27573 9.54864 7.20705C9.42376 7.13993 9.20679 7.01661 9.06474 6.93388C8.92269 6.85271 8.65889 6.69349 8.47937 6.58266C8.29986 6.47027 8.00484 6.27983 7.82376 6.15807C7.64269 6.03788 7.35235 5.83495 7.17596 5.70695C6.99957 5.57895 6.72015 5.36978 6.55313 5.23866C6.38611 5.1091 6.11606 4.89056 5.95215 4.75476C5.78825 4.61895 5.53225 4.39729 5.3824 4.26305C5.23254 4.12881 4.96874 3.88529 4.79703 3.72139C4.62376 3.55749 4.35215 3.28744 4.19293 3.12041C4.03215 2.95339 3.81518 2.72237 3.71059 2.60685C3.60601 2.49134 3.43742 2.3009 3.33752 2.18539C3.23762 2.06832 3.10337 1.9091 3.03937 1.83105C2.97537 1.75144 2.91606 1.68744 2.90669 1.68588C2.89732 1.68588 2.85518 1.74988 2.80991 1.82949C2.76464 1.9091 2.67254 2.09017 2.60386 2.23222C2.53518 2.37427 2.43684 2.59593 2.38689 2.72393C2.33537 2.85349 2.25889 3.06734 2.21518 3.20002C2.17147 3.33271 2.10747 3.55124 2.07313 3.68393C2.03879 3.81661 1.9904 4.03515 1.96386 4.16783C1.93889 4.30051 1.90298 4.52217 1.88581 4.65954C1.86864 4.7969 1.84679 5.03885 1.83586 5.19807C1.82493 5.36978 1.82181 5.63046 1.8265 5.83807C1.83118 6.03163 1.84679 6.29856 1.86084 6.43124C1.87332 6.56393 1.90298 6.78246 1.92484 6.91515C1.94513 7.04783 1.98572 7.25544 2.01069 7.37563C2.03723 7.49583 2.08562 7.68939 2.1184 7.8049C2.15118 7.92041 2.21674 8.12802 2.26513 8.26539C2.31196 8.40276 2.39001 8.61037 2.4384 8.72588C2.48679 8.84139 2.57889 9.04276 2.64132 9.17076C2.70532 9.30032 2.80679 9.49232 2.86923 9.60002C2.93011 9.70773 3.04718 9.89661 3.12991 10.0215C3.21108 10.1464 3.33596 10.3259 3.40776 10.4195C3.47801 10.5132 3.59508 10.6615 3.66689 10.7473C3.73869 10.8332 3.88074 10.994 3.98532 11.1064C4.08835 11.2172 4.26474 11.3905 4.37557 11.4904C4.4864 11.5903 4.63001 11.7167 4.69401 11.7713C4.75801 11.8244 4.9063 11.9399 5.02181 12.0258C5.13889 12.1132 5.25128 12.1959 5.27157 12.2115C5.30903 12.2381 5.30591 12.2396 5.11547 12.2303C5.00776 12.2256 4.82825 12.2115 4.71742 12.1975C4.60659 12.185 4.42708 12.1616 4.31937 12.1429C4.21167 12.1257 4.01186 12.0867 3.8745 12.057C3.73713 12.0258 3.54045 11.9758 3.43742 11.9462C3.3344 11.9165 3.16581 11.8634 3.06279 11.8291C2.95976 11.7948 2.75215 11.7167 2.6023 11.6558C2.45245 11.595 2.20113 11.4794 2.04503 11.3998L1.75937 11.2547C1.75937 11.648 1.76718 11.8541 1.77498 11.9649C1.78435 12.0757 1.80464 12.2771 1.82337 12.4098C1.84054 12.5425 1.87176 12.7438 1.89362 12.8547C1.91547 12.9655 1.96074 13.17 1.99508 13.3073C2.03098 13.4447 2.10591 13.7007 2.16523 13.8771C2.22298 14.0535 2.31976 14.3095 2.37752 14.4469C2.43528 14.5842 2.54142 14.809 2.61011 14.9464C2.68035 15.0837 2.78493 15.2773 2.84425 15.3756C2.90201 15.474 3.01284 15.6504 3.09089 15.7659C3.16737 15.8814 3.29225 16.0578 3.36718 16.1561C3.44367 16.2545 3.57323 16.4168 3.65752 16.5151C3.74181 16.6135 3.88542 16.7711 3.97596 16.8648C4.0665 16.9585 4.22415 17.1114 4.32718 17.2067C4.4302 17.3003 4.59879 17.4455 4.70181 17.5282C4.80484 17.611 4.98435 17.7468 5.09986 17.8279C5.21537 17.9107 5.38396 18.023 5.4745 18.0792C5.56503 18.1354 5.73674 18.2369 5.85693 18.304C5.97713 18.3711 6.18474 18.4757 6.31742 18.5382C6.4501 18.599 6.64367 18.6833 6.74669 18.7239C6.84971 18.7645 7.05732 18.8394 7.20718 18.8878C7.35703 18.9378 7.59898 19.008 7.74571 19.0439C7.89245 19.0798 8.02201 19.1126 8.0345 19.1173C8.04698 19.122 8.00952 19.1391 7.94864 19.1548C7.88776 19.1704 7.72074 19.2078 7.57401 19.239C7.42728 19.2687 7.20406 19.3062 7.0745 19.3233C6.9465 19.3405 6.72484 19.3624 6.58279 19.3733C6.41889 19.3842 6.15664 19.3889 5.86474 19.3827C5.60562 19.378 5.31215 19.3639 5.19352 19.3499C5.07801 19.3358 4.88601 19.3093 4.76893 19.2906C4.65186 19.2703 4.5504 19.2578 4.54571 19.2625C4.53947 19.2671 4.5504 19.3202 4.56913 19.3795C4.58786 19.4389 4.64874 19.6043 4.70493 19.7464C4.76113 19.8884 4.86728 20.1304 4.9422 20.2849C5.01713 20.4394 5.1264 20.6502 5.18415 20.7532C5.24347 20.8562 5.36523 21.0529 5.45576 21.1903C5.54474 21.3276 5.68054 21.5212 5.75547 21.6195C5.83196 21.7179 5.95215 21.8693 6.02396 21.9551C6.0942 22.041 6.26903 22.2299 6.41108 22.375C6.55313 22.5202 6.76698 22.7231 6.88874 22.8277C7.00893 22.9308 7.18845 23.0775 7.28679 23.1509C7.38513 23.2258 7.54279 23.3382 7.63645 23.4022C7.73167 23.4677 7.90025 23.5754 8.01108 23.6426C8.12191 23.7097 8.33264 23.8252 8.47937 23.8986C8.6261 23.9735 8.85713 24.0812 8.9945 24.139C9.13186 24.1967 9.37693 24.2904 9.54084 24.345C9.70474 24.3996 9.92952 24.4683 10.0403 24.498C10.1512 24.5276 10.3447 24.5729 10.4696 24.5979C10.5945 24.6244 10.7912 24.6603 10.9067 24.6775C11.0222 24.6947 11.1955 24.7165 11.2891 24.7259C11.3828 24.7352 11.5623 24.7477 11.6872 24.754L11.9135 24.7649C11.4905 25.0802 11.2751 25.2363 11.1643 25.3144C11.0534 25.3924 10.8521 25.5251 10.7194 25.611C10.5867 25.6968 10.3822 25.8232 10.2667 25.8919C10.1512 25.9606 9.97323 26.0636 9.87332 26.1214C9.77186 26.1776 9.53928 26.3009 9.3582 26.3946C9.17557 26.4882 8.9024 26.6209 8.75254 26.6896C8.60269 26.7583 8.36698 26.8613 8.22962 26.919C8.09225 26.9768 7.8784 27.0627 7.75352 27.1095C7.62864 27.1563 7.38357 27.2437 7.20718 27.303C7.03079 27.3624 6.77167 27.4467 6.62962 27.4888C6.48757 27.531 6.22064 27.6043 6.03645 27.6511C5.85225 27.698 5.58532 27.762 5.44328 27.7916C5.30123 27.8213 5.04835 27.8712 4.88132 27.9009C4.7143 27.9306 4.4505 27.9727 4.29596 27.9946C4.14142 28.0164 3.87137 28.0476 3.69498 28.0648C3.51859 28.082 3.2704 28.1038 3.14084 28.1132C3.01284 28.1226 2.66162 28.1335 2.36035 28.1397C2.02318 28.1444 1.6704 28.1413 1.43937 28.1304C1.23332 28.121 0.938301 28.1023 0.783764 28.0882C0.629227 28.0757 0.449715 28.0586 0.385715 28.0508C0.31391 28.0414 0.262398 28.0414 0.253032 28.0492C0.243666 28.0586 0.276447 28.0882 0.346691 28.1335C0.407569 28.171 0.557423 28.263 0.682301 28.3395C0.807179 28.4145 1.05225 28.5581 1.22864 28.6595C1.40503 28.7594 1.71098 28.9265 1.90767 29.031C2.10591 29.1341 2.4384 29.3011 2.64913 29.401C2.85986 29.5009 3.16581 29.6414 3.32815 29.7132C3.4905 29.7834 3.80113 29.913 4.01498 29.9989C4.2304 30.0847 4.56289 30.2111 4.75645 30.2798C4.95001 30.3485 5.2263 30.4437 5.37303 30.4906C5.51976 30.539 5.71957 30.6014 5.81791 30.6326C5.91625 30.6623 6.10981 30.7185 6.24718 30.7559C6.38454 30.795 6.5781 30.848 6.67645 30.873C6.77479 30.8995 7.02142 30.9589 7.22279 31.0072C7.42415 31.0541 7.75196 31.1243 7.94864 31.1633C8.14532 31.2024 8.40913 31.2508 8.53401 31.2726C8.65889 31.2945 8.85557 31.3257 8.97108 31.3429C9.08659 31.3616 9.31918 31.3928 9.4862 31.4147C9.65323 31.435 9.93108 31.4662 10.1028 31.4833C10.2745 31.5005 10.5133 31.5224 10.6335 31.5317C10.7537 31.5411 10.9676 31.5551 11.1096 31.5645C11.2517 31.5723 11.7293 31.5848 12.1711 31.5895C12.6831 31.5942 13.128 31.591 13.3964 31.5801C13.629 31.5708 13.9662 31.552 14.1457 31.5395C14.3252 31.5255 14.653 31.4974 14.8716 31.4755C15.0901 31.4537 15.4242 31.4162 15.613 31.3897C15.8019 31.3647 16.1079 31.3194 16.2921 31.2913C16.4763 31.2617 16.7603 31.2117 16.9243 31.1805C17.0882 31.1493 17.3644 31.0931 17.5408 31.0541C17.7172 31.015 18.0154 30.9448 18.2043 30.8964C18.3931 30.8496 18.7303 30.759 18.9535 30.695C19.1767 30.631 19.5561 30.5124 19.7964 30.4312C20.0368 30.3516 20.3459 30.2439 20.4833 30.1924C20.6206 30.1409 20.8563 30.0504 21.0062 29.9895C21.1561 29.9302 21.4167 29.8209 21.5838 29.7475C21.7508 29.6742 22.0536 29.5368 22.255 29.44C22.4563 29.3448 22.7623 29.1918 22.934 29.1013C23.1057 29.0108 23.3336 28.8874 23.4413 28.8266C23.549 28.7672 23.7379 28.658 23.8628 28.5846C23.9877 28.5112 24.2015 28.3817 24.3389 28.2958C24.4763 28.21 24.7151 28.0554 24.8696 27.9524C25.0242 27.8494 25.2739 27.6761 25.4238 27.57C25.5736 27.4623 25.7843 27.3077 25.8921 27.2266C25.9998 27.1454 26.2074 26.983 26.3525 26.866C26.4977 26.7489 26.7412 26.5491 26.8911 26.4195C27.0409 26.2915 27.2798 26.0808 27.4218 25.9528C27.5639 25.8232 27.8807 25.5173 28.1258 25.2722C28.3709 25.0271 28.6753 24.7118 28.8048 24.5698C28.9328 24.4277 29.1248 24.2108 29.2325 24.0859C29.3403 23.961 29.4917 23.7815 29.5697 23.6878C29.6478 23.5942 29.7773 23.4318 29.8601 23.3288C29.9412 23.2258 30.1239 22.987 30.2643 22.7981C30.4048 22.6092 30.6203 22.3095 30.7404 22.1347C30.8622 21.9583 31.0558 21.6664 31.1713 21.4869C31.2868 21.3073 31.4741 21.0045 31.5865 20.8156C31.6973 20.6268 31.8753 20.3177 31.9799 20.1288C32.0829 19.9399 32.2593 19.6059 32.3685 19.3873C32.4794 19.1688 32.637 18.8457 32.7182 18.6693C32.7994 18.4929 32.9196 18.2229 32.9867 18.0683C33.0538 17.9138 33.174 17.6188 33.2567 17.4127C33.3379 17.2067 33.4675 16.8617 33.544 16.6478C33.6204 16.4324 33.7328 16.103 33.7922 15.9142C33.853 15.7253 33.9467 15.4131 34.0029 15.2195C34.0575 15.026 34.1418 14.7169 34.1886 14.5327C34.2355 14.3485 34.2979 14.0847 34.3291 13.9473C34.3603 13.81 34.4134 13.5602 34.4478 13.3932C34.4821 13.2262 34.5336 12.9483 34.5633 12.7766C34.5929 12.6049 34.6382 12.3161 34.6647 12.1366C34.6897 11.9571 34.7287 11.6574 34.749 11.4732C34.7709 11.289 34.8021 10.955 34.8193 10.7317C34.8364 10.5085 34.8583 10.1682 34.8677 9.97466C34.877 9.7811 34.8833 9.26754 34.8802 8.83202L34.8755 8.04061C35.2501 7.75807 35.4124 7.6332 35.4764 7.58168C35.5404 7.52861 35.6809 7.4131 35.7886 7.32256C35.8963 7.23202 36.079 7.07437 36.1945 6.97134C36.31 6.86676 36.5379 6.6529 36.6987 6.49368C36.861 6.33446 37.0983 6.09251 37.2247 5.95515C37.3512 5.81778 37.5463 5.60081 37.6571 5.47124C37.7664 5.34324 37.9241 5.15281 38.0068 5.04978C38.088 4.94676 38.2269 4.76724 38.3127 4.65173C38.4002 4.53622 38.5438 4.33641 38.6343 4.20685C38.7248 4.07885 38.7935 3.96646 38.7888 3.96022C38.7826 3.95398 38.6796 3.98988 38.5594 4.03983C38.4392 4.09134 38.2175 4.17876 38.0677 4.23807C37.9178 4.29583 37.6509 4.39105 37.4745 4.45193C37.2981 4.51124 36.975 4.61115 36.7564 4.67515C36.5379 4.73759 36.207 4.825 36.0228 4.86715C35.8386 4.91085 35.5404 4.97485 35.3594 5.0092C35.1783 5.04354 34.8864 5.09349 34.7084 5.11846C34.5289 5.145 34.3697 5.16685 34.3525 5.16685C34.3354 5.16685 34.44 5.08724 34.5914 4.98578C34.7381 4.88588 34.9473 4.73602 35.055 4.65173C35.1627 4.569 35.3375 4.42227 35.4452 4.32861C35.5529 4.23339 35.7465 4.04763 35.8745 3.91651C36.0041 3.78383 36.182 3.58871 36.271 3.481C36.3615 3.37329 36.4926 3.20939 36.5613 3.11417C36.6316 3.01895 36.733 2.87534 36.7877 2.79417C36.8423 2.713 36.9469 2.54754 37.0187 2.42734C37.0905 2.30715 37.2138 2.07924 37.2934 1.92002C37.3715 1.76081 37.4745 1.54071 37.5198 1.42832C37.5666 1.31593 37.6353 1.13798 37.6727 1.03027C37.7102 0.922561 37.7352 0.830464 37.7289 0.82422C37.7211 0.819537 37.5869 0.88822 37.4277 0.977196C37.2684 1.06773 36.9875 1.21759 36.8033 1.30968C36.6191 1.40334 36.3475 1.53446 36.2023 1.60002C36.0571 1.66559 35.8355 1.76237 35.7106 1.81388C35.5857 1.86695 35.3687 1.95281 35.2267 2.00588C35.0846 2.05895 34.8083 2.15573 34.6101 2.22129C34.4119 2.28685 34.1246 2.37583 33.9701 2.41954C33.8156 2.46324 33.5627 2.53037 33.4082 2.56783C33.2536 2.60529 33.0366 2.65524 32.9242 2.6771L32.7213 2.71768C32.3951 2.39924 32.2124 2.23066 32.1063 2.14012C32.0017 2.04959 31.8363 1.91534 31.7395 1.84198C31.6443 1.76861 31.4913 1.65934 31.4023 1.59846C31.3118 1.53602 31.1432 1.42988 31.0277 1.35963C30.9122 1.28939 30.6874 1.16607 30.5282 1.08646C30.3689 1.00529 30.1442 0.899147 30.0286 0.850757C29.9131 0.802366 29.7227 0.729 29.6072 0.686854C29.4917 0.646269 29.2981 0.58383 29.1779 0.547927C29.0577 0.513586 28.886 0.468318 28.7955 0.446464C28.7049 0.42461 28.5613 0.393391 28.4755 0.37622C28.3896 0.359049 28.221 0.330952 28.1008 0.313781C27.9806 0.295049 27.7621 0.270074 27.6169 0.257586C27.4452 0.241976 27.197 0.235732 26.9145 0.237293C26.6741 0.238854 26.4493 0.241976 26.415 0.245098Z" fill="#EEEEEE"/>
</g>
<defs>
<filter id="filter0_d_845_8047" x="0.251465" y="0.237061" width="41.5376" height="34.3545" filterUnits="userSpaceOnUse" color-interpolation-filters="sRGB">
<feFlood flood-opacity="0" result="BackgroundImageFix"/>
<feColorMatrix in="SourceAlpha" type="matrix" values="0 0 0 0 0 0 0 0 0 0 0 0 0 0 0 0 0 0 127 0" result="hardAlpha"/>
<feOffset dx="1.5" dy="1.5"/>
<feGaussianBlur stdDeviation="0.75"/>
<feComposite in2="hardAlpha" operator="out"/>
<feColorMatrix type="matrix" values="0 0 0 0 0.0666667 0 0 0 0 0.0666667 0 0 0 0 0.0666667 0 0 0 1 0"/>
<feBlend mode="normal" in2="BackgroundImageFix" result="effect1_dropShadow_845_8047"/>
<feBlend mode="normal" in="SourceGraphic" in2="effect1_dropShadow_845_8047" result="shape"/>
</filter>
</defs>
</svg>
