<svg width="43" height="35" viewBox="0 0 43 35" fill="none" xmlns="http://www.w3.org/2000/svg">
<g filter="url(#filter0_d_845_8047)">
<path d="M27.1485 0.00803749C27.1142 0.00959846 27.0049 0.0205253 26.9066 0.0298912C26.8082 0.037696 26.6537 0.0564277 26.5631 0.0689155C26.4726 0.0814033 26.304 0.109501 26.1885 0.131355C26.073 0.153208 25.8685 0.198476 25.7358 0.231257C25.6031 0.264037 25.3815 0.328037 25.2441 0.371745C25.1067 0.417013 24.8788 0.498184 24.7368 0.554379C24.5947 0.610574 24.3528 0.718281 24.1983 0.793208C24.0437 0.868135 23.8299 0.980525 23.7222 1.04296C23.6145 1.1054 23.4146 1.23028 23.2773 1.32082C23.1399 1.41292 22.937 1.55809 22.8246 1.6455C22.7122 1.73292 22.5343 1.88121 22.4266 1.97487C22.3188 2.07009 22.1253 2.25584 21.9973 2.38696C21.8677 2.51965 21.6929 2.71165 21.607 2.81467C21.5212 2.9177 21.3979 3.07223 21.3323 3.15809C21.2667 3.24394 21.1512 3.4094 21.0732 3.52492C20.9951 3.64043 20.8781 3.83087 20.8109 3.94638C20.7438 4.06189 20.6377 4.26326 20.5737 4.39126C20.5081 4.52082 20.4113 4.73155 20.3583 4.85955C20.3052 4.98911 20.224 5.19984 20.1803 5.32784C20.135 5.4574 20.071 5.66033 20.0367 5.78053C20.0024 5.90072 19.9508 6.11145 19.9212 6.24882C19.8931 6.38618 19.8541 6.59379 19.8369 6.70931C19.8197 6.82482 19.7979 6.98404 19.7885 7.06053C19.7807 7.13701 19.7651 7.30716 19.7573 7.43516C19.7495 7.56472 19.7417 7.77857 19.7417 7.91126C19.7417 8.04394 19.7495 8.2656 19.7573 8.40296C19.7667 8.54033 19.7885 8.76823 19.8057 8.91028C19.8228 9.05233 19.8603 9.28648 19.89 9.43321C19.9181 9.57994 19.9399 9.70013 19.9384 9.70326C19.9384 9.70482 19.8213 9.70013 19.6792 9.69077C19.5372 9.6814 19.2984 9.66423 19.1485 9.65174C18.9987 9.6377 18.7458 9.61272 18.5866 9.59555C18.4273 9.57838 18.1495 9.54248 17.97 9.5175C17.7905 9.49252 17.4986 9.44726 17.3222 9.4176C17.1458 9.38794 16.8757 9.33955 16.7212 9.30833C16.5666 9.27711 16.2997 9.22092 16.128 9.18189C15.9563 9.14287 15.6644 9.07262 15.4802 9.02579C15.296 8.9774 15.015 8.90091 14.8558 8.85565C14.6966 8.81038 14.4187 8.72609 14.2392 8.66833C14.0597 8.61057 13.7538 8.50755 13.5602 8.43887C13.3666 8.37018 13.0092 8.23438 12.7641 8.1376C12.519 8.03926 12.1866 7.90033 12.0226 7.82853C11.8587 7.75672 11.5887 7.63184 11.4217 7.55379C11.2546 7.47418 10.9799 7.33838 10.8129 7.25252C10.6459 7.16511 10.407 7.03867 10.2822 6.96999C10.1573 6.90287 9.94031 6.77955 9.79826 6.69682C9.65621 6.61565 9.39241 6.45643 9.21289 6.3456C9.03338 6.23321 8.73836 6.04277 8.55728 5.92101C8.37621 5.80082 8.08587 5.59789 7.90948 5.46989C7.73309 5.34189 7.45367 5.13272 7.28665 5.0016C7.11963 4.87204 6.84958 4.6535 6.68567 4.5177C6.52177 4.38189 6.26577 4.16023 6.11592 4.02599C5.96606 3.89174 5.70226 3.64823 5.53055 3.48433C5.35728 3.32043 5.08567 3.05038 4.92645 2.88335C4.76567 2.71633 4.5487 2.48531 4.44411 2.36979C4.33953 2.25428 4.17094 2.06384 4.07104 1.94833C3.97114 1.83126 3.83689 1.67204 3.77289 1.59399C3.70889 1.51438 3.64958 1.45038 3.64021 1.44882C3.63085 1.44882 3.5887 1.51282 3.54343 1.59243C3.49816 1.67204 3.40607 1.85311 3.33738 1.99516C3.2687 2.13721 3.17036 2.35887 3.12041 2.48687C3.06889 2.61643 2.99241 2.83028 2.9487 2.96296C2.90499 3.09565 2.84099 3.31418 2.80665 3.44687C2.77231 3.57955 2.72392 3.79809 2.69738 3.93077C2.67241 4.06345 2.6365 4.28511 2.61933 4.42248C2.60216 4.55984 2.58031 4.80179 2.56938 4.96101C2.55846 5.13272 2.55533 5.3934 2.56002 5.60101C2.5647 5.79457 2.58031 6.0615 2.59436 6.19418C2.60685 6.32687 2.6365 6.5454 2.65836 6.67809C2.67865 6.81077 2.71924 7.01838 2.74421 7.13857C2.77075 7.25877 2.81914 7.45233 2.85192 7.56784C2.8847 7.68335 2.95026 7.89096 2.99865 8.02833C3.04548 8.1657 3.12353 8.3733 3.17192 8.48882C3.22031 8.60433 3.31241 8.8057 3.37485 8.9337C3.43885 9.06326 3.54031 9.25526 3.60275 9.36296C3.66363 9.47067 3.7807 9.65955 3.86343 9.78443C3.9446 9.9093 4.06948 10.0888 4.14128 10.1825C4.21153 10.2761 4.3286 10.4244 4.40041 10.5103C4.47221 10.5961 4.61426 10.7569 4.71885 10.8693C4.82187 10.9801 4.99826 11.1534 5.10909 11.2533C5.21992 11.3532 5.36353 11.4796 5.42753 11.5343C5.49153 11.5874 5.63982 11.7029 5.75533 11.7887C5.87241 11.8761 5.9848 11.9589 6.00509 11.9745C6.04255 12.001 6.03943 12.0026 5.84899 11.9932C5.74128 11.9885 5.56177 11.9745 5.45094 11.9604C5.34011 11.9479 5.1606 11.9245 5.05289 11.9058C4.94519 11.8886 4.74538 11.8496 4.60802 11.8199C4.47065 11.7887 4.27397 11.7388 4.17094 11.7091C4.06792 11.6795 3.89933 11.6264 3.79631 11.592C3.69328 11.5577 3.48567 11.4796 3.33582 11.4188C3.18597 11.3579 2.93465 11.2424 2.77855 11.1628L2.49289 11.0176C2.49289 11.411 2.5007 11.617 2.5085 11.7278C2.51787 11.8387 2.53816 12.04 2.55689 12.1727C2.57406 12.3054 2.60528 12.5068 2.62714 12.6176C2.64899 12.7284 2.69426 12.9329 2.7286 13.0703C2.7645 13.2076 2.83943 13.4636 2.89875 13.64C2.9565 13.8164 3.05328 14.0724 3.11104 14.2098C3.1688 14.3472 3.27494 14.5719 3.34363 14.7093C3.41387 14.8467 3.51846 15.0402 3.57777 15.1386C3.63553 15.2369 3.74636 15.4133 3.82441 15.5288C3.90089 15.6443 4.02577 15.8207 4.1007 15.9191C4.17719 16.0174 4.30675 16.1797 4.39104 16.2781C4.47533 16.3764 4.61894 16.5341 4.70948 16.6277C4.80002 16.7214 4.95767 16.8744 5.0607 16.9696C5.16372 17.0633 5.33231 17.2084 5.43533 17.2912C5.53836 17.3739 5.71787 17.5097 5.83338 17.5909C5.94889 17.6736 6.11748 17.786 6.20802 17.8422C6.29855 17.8984 6.47026 17.9998 6.59045 18.067C6.71065 18.1341 6.91826 18.2387 7.05094 18.3011C7.18363 18.362 7.37719 18.4463 7.48021 18.4869C7.58324 18.5275 7.79084 18.6024 7.9407 18.6508C8.09055 18.7007 8.3325 18.771 8.47924 18.8069C8.62597 18.8428 8.75553 18.8755 8.76802 18.8802C8.7805 18.8849 8.74304 18.9021 8.68216 18.9177C8.62128 18.9333 8.45426 18.9708 8.30753 19.002C8.1608 19.0316 7.93758 19.0691 7.80802 19.0863C7.68002 19.1035 7.45836 19.1253 7.31631 19.1362C7.15241 19.1472 6.89016 19.1518 6.59826 19.1456C6.33914 19.1409 6.04567 19.1269 5.92704 19.1128C5.81153 19.0988 5.61953 19.0722 5.50245 19.0535C5.38538 19.0332 5.28392 19.0207 5.27924 19.0254C5.27299 19.0301 5.28392 19.0832 5.30265 19.1425C5.32138 19.2018 5.38226 19.3673 5.43845 19.5093C5.49465 19.6514 5.6008 19.8933 5.67572 20.0478C5.75065 20.2024 5.85992 20.4131 5.91767 20.5161C5.97699 20.6192 6.09875 20.8158 6.18928 20.9532C6.27826 21.0906 6.41406 21.2841 6.48899 21.3825C6.56548 21.4808 6.68567 21.6322 6.75748 21.7181C6.82772 21.8039 7.00255 21.9928 7.1446 22.138C7.28665 22.2832 7.5005 22.4861 7.62226 22.5907C7.74245 22.6937 7.92197 22.8404 8.02031 22.9138C8.11865 22.9887 8.27631 23.1011 8.36997 23.1651C8.46519 23.2307 8.63377 23.3384 8.7446 23.4055C8.85543 23.4726 9.06616 23.5881 9.21289 23.6615C9.35963 23.7364 9.59065 23.8441 9.72802 23.9019C9.86538 23.9596 10.1105 24.0533 10.2744 24.1079C10.4383 24.1626 10.663 24.2313 10.7739 24.2609C10.8847 24.2906 11.0783 24.3358 11.2031 24.3608C11.328 24.3874 11.5247 24.4233 11.6402 24.4404C11.7557 24.4576 11.929 24.4795 12.0226 24.4888C12.1163 24.4982 12.2958 24.5107 12.4207 24.5169L12.647 24.5278C12.224 24.8432 12.0086 24.9993 11.8978 25.0773C11.7869 25.1554 11.5856 25.288 11.4529 25.3739C11.3202 25.4597 11.1157 25.5862 11.0002 25.6549C10.8847 25.7235 10.7067 25.8266 10.6068 25.8843C10.5054 25.9405 10.2728 26.0638 10.0917 26.1575C9.90909 26.2512 9.63592 26.3838 9.48606 26.4525C9.33621 26.5212 9.1005 26.6242 8.96314 26.682C8.82577 26.7397 8.61192 26.8256 8.48704 26.8724C8.36216 26.9193 8.11709 27.0067 7.9407 27.066C7.76431 27.1253 7.50519 27.2096 7.36314 27.2517C7.22109 27.2939 6.95416 27.3673 6.76997 27.4141C6.58577 27.4609 6.31884 27.5249 6.1768 27.5546C6.03475 27.5842 5.78187 27.6342 5.61485 27.6638C5.44782 27.6935 5.18402 27.7356 5.02948 27.7575C4.87494 27.7794 4.60489 27.8106 4.4285 27.8277C4.25211 27.8449 4.00392 27.8668 3.87436 27.8761C3.74636 27.8855 3.39514 27.8964 3.09387 27.9027C2.7567 27.9074 2.40392 27.9042 2.17289 27.8933C1.96685 27.8839 1.67182 27.8652 1.51728 27.8512C1.36275 27.8387 1.18324 27.8215 1.11924 27.8137C1.04743 27.8043 0.995919 27.8043 0.986553 27.8121C0.977187 27.8215 1.00997 27.8512 1.08021 27.8964C1.14109 27.9339 1.29094 28.026 1.41582 28.1025C1.5407 28.1774 1.78577 28.321 1.96216 28.4225C2.13855 28.5224 2.4445 28.6894 2.64119 28.794C2.83943 28.897 3.17192 29.064 3.38265 29.1639C3.59338 29.2638 3.89933 29.4043 4.06167 29.4761C4.22402 29.5464 4.53465 29.6759 4.7485 29.7618C4.96392 29.8476 5.29641 29.9741 5.48997 30.0428C5.68353 30.1115 5.95982 30.2067 6.10655 30.2535C6.25328 30.3019 6.45309 30.3643 6.55143 30.3955C6.64977 30.4252 6.84333 30.4814 6.9807 30.5189C7.11806 30.5579 7.31163 30.611 7.40997 30.6359C7.50831 30.6625 7.75494 30.7218 7.95631 30.7702C8.15767 30.817 8.48548 30.8873 8.68216 30.9263C8.87884 30.9653 9.14265 31.0137 9.26753 31.0355C9.39241 31.0574 9.58909 31.0886 9.7046 31.1058C9.82011 31.1245 10.0527 31.1557 10.2197 31.1776C10.3867 31.1979 10.6646 31.2291 10.8363 31.2463C11.008 31.2635 11.2468 31.2853 11.367 31.2947C11.4872 31.304 11.7011 31.3181 11.8431 31.3275C11.9852 31.3353 12.4628 31.3477 12.9046 31.3524C13.4166 31.3571 13.8615 31.354 14.13 31.3431C14.3626 31.3337 14.6997 31.315 14.8792 31.3025C15.0587 31.2884 15.3866 31.2603 15.6051 31.2385C15.8236 31.2166 16.1577 31.1792 16.3466 31.1526C16.5354 31.1276 16.8414 31.0824 17.0256 31.0543C17.2098 31.0246 17.4939 30.9747 17.6578 30.9435C17.8217 30.9122 18.098 30.856 18.2744 30.817C18.4507 30.778 18.7489 30.7077 18.9378 30.6594C19.1267 30.6125 19.4638 30.522 19.687 30.458C19.9103 30.394 20.2896 30.2754 20.53 30.1942C20.7704 30.1146 21.0794 30.0069 21.2168 29.9554C21.3542 29.9038 21.5899 29.8133 21.7397 29.7524C21.8896 29.6931 22.1503 29.5838 22.3173 29.5105C22.4843 29.4371 22.7871 29.2997 22.9885 29.203C23.1899 29.1077 23.4958 28.9548 23.6675 28.8642C23.8392 28.7737 24.0671 28.6504 24.1748 28.5895C24.2826 28.5302 24.4714 28.4209 24.5963 28.3475C24.7212 28.2742 24.935 28.1446 25.0724 28.0588C25.2098 27.9729 25.4486 27.8184 25.6031 27.7154C25.7577 27.6123 26.0074 27.4391 26.1573 27.3329C26.3071 27.2252 26.5179 27.0707 26.6256 26.9895C26.7333 26.9083 26.9409 26.746 27.0861 26.6289C27.2312 26.5118 27.4747 26.312 27.6246 26.1825C27.7745 26.0545 28.0133 25.8437 28.1553 25.7157C28.2974 25.5862 28.6143 25.2802 28.8593 25.0352C29.1044 24.7901 29.4088 24.4748 29.5384 24.3327C29.6664 24.1907 29.8584 23.9737 29.9661 23.8488C30.0738 23.7239 30.2252 23.5444 30.3032 23.4508C30.3813 23.3571 30.5108 23.1948 30.5936 23.0917C30.6747 22.9887 30.8574 22.7499 30.9979 22.561C31.1384 22.3721 31.3538 22.0724 31.474 21.8976C31.5957 21.7212 31.7893 21.4293 31.9048 21.2498C32.0203 21.0703 32.2076 20.7675 32.32 20.5786C32.4308 20.3897 32.6088 20.0806 32.7134 19.8917C32.8164 19.7029 32.9928 19.3688 33.1021 19.1503C33.2129 18.9317 33.3706 18.6086 33.4517 18.4322C33.5329 18.2558 33.6531 17.9858 33.7202 17.8313C33.7873 17.6767 33.9075 17.3817 33.9903 17.1756C34.0714 16.9696 34.201 16.6246 34.2775 16.4108C34.354 16.1954 34.4664 15.866 34.5257 15.6771C34.5866 15.4882 34.6802 15.176 34.7364 14.9825C34.791 14.7889 34.8753 14.4798 34.9222 14.2956C34.969 14.1115 35.0314 13.8476 35.0626 13.7103C35.0939 13.5729 35.1469 13.3232 35.1813 13.1561C35.2156 12.9891 35.2671 12.7113 35.2968 12.5395C35.3265 12.3678 35.3717 12.0791 35.3983 11.8995C35.4232 11.72 35.4623 11.4203 35.4825 11.2361C35.5044 11.0519 35.5356 10.7179 35.5528 10.4947C35.57 10.2715 35.5918 9.93116 35.6012 9.7376C35.6105 9.54404 35.6168 9.03048 35.6137 8.59496L35.609 7.80355C35.9836 7.52101 36.146 7.39613 36.21 7.34462C36.274 7.29155 36.4145 7.17604 36.5222 7.0855C36.6299 6.99496 36.8125 6.83731 36.928 6.73428C37.0435 6.6297 37.2714 6.41584 37.4322 6.25662C37.5946 6.0974 37.8318 5.85545 37.9583 5.71809C38.0847 5.58072 38.2798 5.36374 38.3906 5.23418C38.4999 5.10618 38.6576 4.91574 38.7403 4.81272C38.8215 4.7097 38.9604 4.53018 39.0463 4.41467C39.1337 4.29916 39.2773 4.09935 39.3678 3.96979C39.4584 3.84179 39.527 3.7294 39.5224 3.72316C39.5161 3.71692 39.4131 3.75282 39.2929 3.80277C39.1727 3.85428 38.951 3.9417 38.8012 4.00101C38.6513 4.05877 38.3844 4.15399 38.208 4.21487C38.0316 4.27418 37.7085 4.37409 37.49 4.43809C37.2714 4.50053 36.9405 4.58794 36.7563 4.63009C36.5721 4.67379 36.274 4.73779 36.0929 4.77213C35.9118 4.80648 35.6199 4.85643 35.442 4.8814C35.2625 4.90794 35.1032 4.92979 35.0861 4.92979C35.0689 4.92979 35.1735 4.85018 35.3249 4.74872C35.4716 4.64882 35.6808 4.49896 35.7885 4.41467C35.8962 4.33194 36.071 4.18521 36.1787 4.09155C36.2865 3.99633 36.48 3.81057 36.608 3.67945C36.7376 3.54677 36.9155 3.35165 37.0045 3.24394C37.095 3.13623 37.2262 2.97233 37.2948 2.87711C37.3651 2.78189 37.4665 2.63828 37.5212 2.55711C37.5758 2.47594 37.6804 2.31048 37.7522 2.19028C37.824 2.07009 37.9473 1.84218 38.0269 1.68296C38.105 1.52374 38.208 1.30365 38.2533 1.19126C38.3001 1.07887 38.3688 0.900916 38.4063 0.793208C38.4437 0.685501 38.4687 0.593403 38.4625 0.587159C38.4546 0.582476 38.3204 0.651159 38.1612 0.740135C38.002 0.830672 37.721 0.980525 37.5368 1.07262C37.3526 1.16628 37.081 1.2974 36.9358 1.36296C36.7906 1.42853 36.569 1.52531 36.4441 1.57682C36.3192 1.62989 36.1023 1.71574 35.9602 1.76882C35.8182 1.82189 35.5419 1.91867 35.3436 1.98423C35.1454 2.04979 34.8582 2.13877 34.7036 2.18248C34.5491 2.22618 34.2962 2.29331 34.1417 2.33077C33.9871 2.36823 33.7702 2.41818 33.6578 2.44004L33.4548 2.48062C33.1286 2.16218 32.946 1.9936 32.8398 1.90306C32.7352 1.81253 32.5698 1.67828 32.473 1.60492C32.3778 1.53155 32.2248 1.42228 32.1358 1.3614C32.0453 1.29896 31.8767 1.19282 31.7612 1.12257C31.6457 1.05233 31.4209 0.929013 31.2617 0.849403C31.1025 0.768233 30.8777 0.662086 30.7622 0.613696C30.6466 0.565306 30.4562 0.49194 30.3407 0.449794C30.2252 0.409208 30.0316 0.346769 29.9114 0.310867C29.7912 0.276525 29.6195 0.231257 29.529 0.209403C29.4385 0.18755 29.2948 0.15633 29.209 0.139159C29.1231 0.121989 28.9546 0.0938912 28.8344 0.0767204C28.7142 0.0579887 28.4956 0.0330131 28.3505 0.0205253C28.1787 0.00491554 27.9306 -0.00132837 27.648 0.000232608C27.4076 0.00179358 27.1828 0.00491553 27.1485 0.00803749Z" fill="#111111"/>
</g>
<defs>
<filter id="filter0_d_845_8047" x="0.984985" y="0" width="41.5376" height="34.3545" filterUnits="userSpaceOnUse" color-interpolation-filters="sRGB">
<feFlood flood-opacity="0" result="BackgroundImageFix"/>
<feColorMatrix in="SourceAlpha" type="matrix" values="0 0 0 0 0 0 0 0 0 0 0 0 0 0 0 0 0 0 127 0" result="hardAlpha"/>
<feOffset dx="1.5" dy="1.5"/>
<feGaussianBlur stdDeviation="0.75"/>
<feComposite in2="hardAlpha" operator="out"/>
<feColorMatrix type="matrix" values="0 0 0 0 0.933333 0 0 0 0 0.933333 0 0 0 0 0.933333 0 0 0 1 0"/>
<feBlend mode="normal" in2="BackgroundImageFix" result="effect1_dropShadow_845_8047"/>
<feBlend mode="normal" in="SourceGraphic" in2="effect1_dropShadow_845_8047" result="shape"/>
</filter>
</defs>
</svg>
