<svg width="33" height="33" viewBox="0 0 33 33" fill="none" xmlns="http://www.w3.org/2000/svg">
<g filter="url(#filter0_d_389_4167)">
<path d="M0.740234 15.4897C0.740234 13.3022 1.09115 11.3107 1.79297 9.51514C2.50391 7.71956 3.50651 6.1792 4.80078 4.89404C6.09505 3.60889 7.63086 2.61995 9.4082 1.92725C11.1855 1.22542 13.1452 0.874512 15.2871 0.874512C17.3288 0.874512 19.1973 1.18441 20.8926 1.8042C22.597 2.42399 24.0736 3.31266 25.3223 4.47021C26.571 5.61865 27.5371 6.99951 28.2207 8.61279C28.9043 10.217 29.2461 12.0034 29.2461 13.9722C29.2461 15.7404 28.9863 17.299 28.4668 18.6479C27.9564 19.9878 27.2272 21.0405 26.2793 21.8062C25.3314 22.5627 24.2012 22.9409 22.8887 22.9409C21.7949 22.9409 20.8698 22.6766 20.1133 22.1479C19.3659 21.6102 18.9147 20.8719 18.7598 19.9331H18.5957C18.2038 20.881 17.625 21.6193 16.8594 22.1479C16.0938 22.6766 15.1914 22.9409 14.1523 22.9409C12.9492 22.9409 11.8919 22.631 10.9805 22.0112C10.069 21.3823 9.35352 20.5119 8.83398 19.3999C8.32357 18.2788 8.06836 16.9891 8.06836 15.5308C8.06836 14.0907 8.32357 12.8237 8.83398 11.73C9.3444 10.6271 10.0462 9.77035 10.9395 9.15967C11.8327 8.53988 12.8672 8.22998 14.043 8.22998C15.0365 8.22998 15.9251 8.47152 16.709 8.95459C17.4928 9.43766 18.0579 10.0939 18.4043 10.9233H18.582V9.61084C18.582 9.18245 18.696 8.84521 18.9238 8.59912C19.1517 8.35303 19.4753 8.22998 19.8945 8.22998C20.3047 8.22998 20.6237 8.35303 20.8516 8.59912C21.0885 8.84521 21.207 9.18245 21.207 9.61084V18.3882C21.207 19.1174 21.3939 19.6825 21.7676 20.0835C22.1504 20.4845 22.6882 20.6851 23.3809 20.6851C24.0827 20.6851 24.6842 20.4116 25.1855 19.8647C25.696 19.3179 26.0879 18.5568 26.3613 17.5815C26.6439 16.5972 26.7852 15.4578 26.7852 14.1636C26.7852 12.4227 26.4844 10.8778 25.8828 9.52881C25.2904 8.17074 24.4655 7.02686 23.4082 6.09717C22.3509 5.16748 21.125 4.4611 19.7305 3.97803C18.3451 3.49495 16.8548 3.25342 15.2598 3.25342C13.4824 3.25342 11.8646 3.5542 10.4062 4.15576C8.94792 4.74821 7.69466 5.59131 6.64648 6.68506C5.59831 7.77881 4.78711 9.07764 4.21289 10.5815C3.64779 12.0854 3.36523 13.7489 3.36523 15.5718C3.36523 17.4585 3.66146 19.1447 4.25391 20.6304C4.85547 22.116 5.70768 23.3784 6.81055 24.4175C7.91341 25.4565 9.22591 26.245 10.748 26.7827C12.2793 27.3296 13.9792 27.603 15.8477 27.603C16.7227 27.603 17.5065 27.5483 18.1992 27.439C18.8919 27.3296 19.6074 27.1883 20.3457 27.0151C20.4915 26.9878 20.6191 26.965 20.7285 26.9468C20.847 26.9377 20.9564 26.9331 21.0566 26.9331C21.3665 26.9331 21.6172 27.0288 21.8086 27.2202C22.0091 27.4116 22.1094 27.6486 22.1094 27.9312C22.1094 28.2228 22.0182 28.4826 21.8359 28.7104C21.6628 28.9474 21.3438 29.1388 20.8789 29.2847C20.2682 29.4943 19.4798 29.6629 18.5137 29.7905C17.5566 29.9181 16.5176 29.9819 15.3965 29.9819C13.2637 29.9819 11.304 29.6493 9.51758 28.9839C7.73112 28.3185 6.18164 27.3569 4.86914 26.0991C3.55664 24.8413 2.54036 23.3192 1.82031 21.5327C1.10026 19.7463 0.740234 17.7319 0.740234 15.4897ZM14.6855 20.4663C15.4512 20.4663 16.1165 20.2658 16.6816 19.8647C17.2467 19.4546 17.6842 18.8804 17.9941 18.1421C18.3132 17.3947 18.4727 16.5151 18.4727 15.5034C18.4727 14.0177 18.1309 12.842 17.4473 11.9761C16.7728 11.1011 15.8568 10.6636 14.6992 10.6636C13.9427 10.6636 13.2865 10.8641 12.7305 11.2651C12.1836 11.6571 11.7552 12.2222 11.4453 12.9604C11.1445 13.6896 10.9941 14.5509 10.9941 15.5444C10.9941 16.5562 11.1445 17.4312 11.4453 18.1694C11.7461 18.8986 12.1699 19.4637 12.7168 19.8647C13.2728 20.2658 13.929 20.4663 14.6855 20.4663Z" fill="#111111"/>
</g>
<defs>
<filter id="filter0_d_389_4167" x="0.740234" y="0.874512" width="31.5059" height="32.1074" filterUnits="userSpaceOnUse" color-interpolation-filters="sRGB">
<feFlood flood-opacity="0" result="BackgroundImageFix"/>
<feColorMatrix in="SourceAlpha" type="matrix" values="0 0 0 0 0 0 0 0 0 0 0 0 0 0 0 0 0 0 127 0" result="hardAlpha"/>
<feOffset dx="1.5" dy="1.5"/>
<feGaussianBlur stdDeviation="0.75"/>
<feComposite in2="hardAlpha" operator="out"/>
<feColorMatrix type="matrix" values="0 0 0 0 0.933333 0 0 0 0 0.933333 0 0 0 0 0.933333 0 0 0 1 0"/>
<feBlend mode="normal" in2="BackgroundImageFix" result="effect1_dropShadow_389_4167"/>
<feBlend mode="normal" in="SourceGraphic" in2="effect1_dropShadow_389_4167" result="shape"/>
</filter>
</defs>
</svg>
