<svg width="33" height="33" viewBox="0 0 33 33" fill="none" xmlns="http://www.w3.org/2000/svg">
<g filter="url(#filter0_d_389_4167)">
<path d="M0.740234 14.8125C0.740234 12.625 1.09115 10.6335 1.79297 8.83789C2.50391 7.04232 3.50651 5.50195 4.80078 4.2168C6.09505 2.93164 7.63086 1.94271 9.4082 1.25C11.1855 0.548177 13.1452 0.197266 15.2871 0.197266C17.3288 0.197266 19.1973 0.507161 20.8926 1.12695C22.597 1.74674 24.0736 2.63542 25.3223 3.79297C26.571 4.94141 27.5371 6.32227 28.2207 7.93555C28.9043 9.53971 29.2461 11.3262 29.2461 13.2949C29.2461 15.0632 28.9863 16.6217 28.4668 17.9707C27.9564 19.3105 27.2272 20.3633 26.2793 21.1289C25.3314 21.8854 24.2012 22.2637 22.8887 22.2637C21.7949 22.2637 20.8698 21.9993 20.1133 21.4707C19.3659 20.9329 18.9147 20.1947 18.7598 19.2559H18.5957C18.2038 20.2038 17.625 20.9421 16.8594 21.4707C16.0938 21.9993 15.1914 22.2637 14.1523 22.2637C12.9492 22.2637 11.8919 21.9538 10.9805 21.334C10.069 20.7051 9.35352 19.8346 8.83398 18.7227C8.32357 17.6016 8.06836 16.3118 8.06836 14.8535C8.06836 13.4134 8.32357 12.1465 8.83398 11.0527C9.3444 9.94987 10.0462 9.0931 10.9395 8.48242C11.8327 7.86263 12.8672 7.55273 14.043 7.55273C15.0365 7.55273 15.9251 7.79427 16.709 8.27734C17.4928 8.76042 18.0579 9.41667 18.4043 10.2461H18.582V8.93359C18.582 8.50521 18.696 8.16797 18.9238 7.92188C19.1517 7.67578 19.4753 7.55273 19.8945 7.55273C20.3047 7.55273 20.6237 7.67578 20.8516 7.92188C21.0885 8.16797 21.207 8.50521 21.207 8.93359V17.7109C21.207 18.4401 21.3939 19.0052 21.7676 19.4062C22.1504 19.8073 22.6882 20.0078 23.3809 20.0078C24.0827 20.0078 24.6842 19.7344 25.1855 19.1875C25.696 18.6406 26.0879 17.8796 26.3613 16.9043C26.6439 15.9199 26.7852 14.7806 26.7852 13.4863C26.7852 11.7454 26.4844 10.2005 25.8828 8.85156C25.2904 7.49349 24.4655 6.34961 23.4082 5.41992C22.3509 4.49023 21.125 3.78385 19.7305 3.30078C18.3451 2.81771 16.8548 2.57617 15.2598 2.57617C13.4824 2.57617 11.8646 2.87695 10.4062 3.47852C8.94792 4.07096 7.69466 4.91406 6.64648 6.00781C5.59831 7.10156 4.78711 8.40039 4.21289 9.9043C3.64779 11.4082 3.36523 13.0716 3.36523 14.8945C3.36523 16.7812 3.66146 18.4674 4.25391 19.9531C4.85547 21.4388 5.70768 22.7012 6.81055 23.7402C7.91341 24.7793 9.22591 25.5677 10.748 26.1055C12.2793 26.6523 13.9792 26.9258 15.8477 26.9258C16.7227 26.9258 17.5065 26.8711 18.1992 26.7617C18.8919 26.6523 19.6074 26.5111 20.3457 26.3379C20.4915 26.3105 20.6191 26.2878 20.7285 26.2695C20.847 26.2604 20.9564 26.2559 21.0566 26.2559C21.3665 26.2559 21.6172 26.3516 21.8086 26.543C22.0091 26.7344 22.1094 26.9714 22.1094 27.2539C22.1094 27.5456 22.0182 27.8053 21.8359 28.0332C21.6628 28.2702 21.3438 28.4616 20.8789 28.6074C20.2682 28.8171 19.4798 28.9857 18.5137 29.1133C17.5566 29.2409 16.5176 29.3047 15.3965 29.3047C13.2637 29.3047 11.304 28.972 9.51758 28.3066C7.73112 27.6413 6.18164 26.6797 4.86914 25.4219C3.55664 24.1641 2.54036 22.6419 1.82031 20.8555C1.10026 19.069 0.740234 17.0547 0.740234 14.8125ZM14.6855 19.7891C15.4512 19.7891 16.1165 19.5885 16.6816 19.1875C17.2467 18.7773 17.6842 18.2031 17.9941 17.4648C18.3132 16.7174 18.4727 15.8379 18.4727 14.8262C18.4727 13.3405 18.1309 12.1647 17.4473 11.2988C16.7728 10.4238 15.8568 9.98633 14.6992 9.98633C13.9427 9.98633 13.2865 10.1868 12.7305 10.5879C12.1836 10.9798 11.7552 11.5449 11.4453 12.2832C11.1445 13.0124 10.9941 13.8737 10.9941 14.8672C10.9941 15.8789 11.1445 16.7539 11.4453 17.4922C11.7461 18.2214 12.1699 18.7865 12.7168 19.1875C13.2728 19.5885 13.929 19.7891 14.6855 19.7891Z" fill="#EEEEEE"/>
</g>
<defs>
<filter id="filter0_d_389_4167" x="0.740234" y="0.197266" width="31.5059" height="32.1074" filterUnits="userSpaceOnUse" color-interpolation-filters="sRGB">
<feFlood flood-opacity="0" result="BackgroundImageFix"/>
<feColorMatrix in="SourceAlpha" type="matrix" values="0 0 0 0 0 0 0 0 0 0 0 0 0 0 0 0 0 0 127 0" result="hardAlpha"/>
<feOffset dx="1.5" dy="1.5"/>
<feGaussianBlur stdDeviation="0.75"/>
<feComposite in2="hardAlpha" operator="out"/>
<feColorMatrix type="matrix" values="0 0 0 0 0.0666667 0 0 0 0 0.0666667 0 0 0 0 0.0666667 0 0 0 1 0"/>
<feBlend mode="normal" in2="BackgroundImageFix" result="effect1_dropShadow_389_4167"/>
<feBlend mode="normal" in="SourceGraphic" in2="effect1_dropShadow_389_4167" result="shape"/>
</filter>
</defs>
</svg>
