<svg width="34" height="33" viewBox="0 0 34 33" fill="none" xmlns="http://www.w3.org/2000/svg">
<g filter="url(#filter0_d_389_4165)">
<path d="M29.8712 23.3791C29.3326 24.4272 28.6951 25.392 27.9564 26.279C26.9495 27.4882 26.1251 28.3253 25.4897 28.7901C24.5048 29.553 23.4496 29.9437 22.3196 29.9659C21.5084 29.9659 20.53 29.7715 19.3913 29.3771C18.2487 28.9845 17.1987 28.7901 16.2387 28.7901C15.2318 28.7901 14.1519 28.9845 12.9968 29.3771C11.84 29.7715 10.9081 29.9771 10.1956 29.9974C9.11197 30.0363 8.03188 29.6345 6.95376 28.7901C6.26565 28.2845 5.40495 27.4179 4.37388 26.1901C3.26762 24.8791 2.35813 23.3587 1.64561 21.6255C0.88253 19.7533 0.5 17.9404 0.5 16.1853C0.5 14.1748 1.01576 12.4407 2.04881 10.9876C2.86069 9.82045 3.94079 8.89973 5.29261 8.22383C6.64444 7.54792 8.10509 7.20349 9.67808 7.18145C10.5388 7.18145 11.6674 7.40571 13.0701 7.84643C14.4687 8.28864 15.3668 8.51289 15.7605 8.51289C16.0549 8.51289 17.0525 8.25068 18.7438 7.72792C20.3432 7.24312 21.693 7.04238 22.7988 7.12145C25.7953 7.32515 28.0465 8.32012 29.5437 10.1127C26.8638 11.4804 25.5381 13.3961 25.5645 15.8536C25.5887 17.7678 26.4131 19.3607 28.0333 20.6255C28.7676 21.2125 29.5876 21.6662 30.5 21.9884C30.3021 22.4717 30.0933 22.9347 29.8712 23.3791V23.3791ZM22.9989 0.600171C22.9989 2.10051 22.3482 3.50138 21.0511 4.79801C19.4858 6.33944 17.5925 7.23015 15.5394 7.0896C15.5132 6.90961 15.498 6.72017 15.498 6.5211C15.498 5.08078 16.2424 3.53934 17.5643 2.27901C18.2243 1.64088 19.0637 1.11028 20.0816 0.687019C21.0972 0.270069 22.058 0.0394863 22.9615 0C22.9879 0.200572 22.9989 0.401157 22.9989 0.600151V0.600171Z" fill="#EEEEEE"/>
</g>
<defs>
<filter id="filter0_d_389_4165" x="0.5" y="0" width="33" height="33" filterUnits="userSpaceOnUse" color-interpolation-filters="sRGB">
<feFlood flood-opacity="0" result="BackgroundImageFix"/>
<feColorMatrix in="SourceAlpha" type="matrix" values="0 0 0 0 0 0 0 0 0 0 0 0 0 0 0 0 0 0 127 0" result="hardAlpha"/>
<feOffset dx="1.5" dy="1.5"/>
<feGaussianBlur stdDeviation="0.75"/>
<feComposite in2="hardAlpha" operator="out"/>
<feColorMatrix type="matrix" values="0 0 0 0 0.0666667 0 0 0 0 0.0666667 0 0 0 0 0.0666667 0 0 0 1 0"/>
<feBlend mode="normal" in2="BackgroundImageFix" result="effect1_dropShadow_389_4165"/>
<feBlend mode="normal" in="SourceGraphic" in2="effect1_dropShadow_389_4165" result="shape"/>
</filter>
</defs>
</svg>
