<svg width="34" height="34" viewBox="0 0 34 34" fill="none" xmlns="http://www.w3.org/2000/svg">
<g filter="url(#filter0_d_389_4165)">
<path d="M29.3863 24.0564C28.8476 25.1045 28.2101 26.0693 27.4714 26.9563C26.4645 28.1655 25.6401 29.0025 25.0048 29.4673C24.0199 30.2302 22.9646 30.621 21.8346 30.6432C21.0234 30.6432 20.0451 30.4488 18.9063 30.0543C17.7637 29.6617 16.7138 29.4673 15.7537 29.4673C14.7468 29.4673 13.6669 29.6617 12.5119 30.0543C11.355 30.4488 10.4231 30.6543 9.7106 30.6747C8.62699 30.7136 7.54689 30.3117 6.46877 29.4673C5.78066 28.9618 4.91997 28.0951 3.8889 26.8674C2.78264 25.5563 1.87314 24.036 1.16063 22.3027C0.397544 20.4305 0.0150146 18.6176 0.0150146 16.8625C0.0150146 14.852 0.53077 13.118 1.56382 11.6649C2.37571 10.4977 3.4558 9.57698 4.80763 8.90107C6.15945 8.22517 7.6201 7.88074 9.19309 7.8587C10.0538 7.8587 11.1825 8.08295 12.5851 8.52368C13.9837 8.96589 14.8818 9.19014 15.2755 9.19014C15.5699 9.19014 16.5676 8.92792 18.2588 8.40516C19.8582 7.92036 21.208 7.71963 22.3139 7.7987C25.3103 8.0024 27.5616 8.99737 29.0587 10.7899C26.3788 12.1576 25.0531 14.0733 25.0795 16.5308C25.1037 18.445 25.9281 20.038 27.5484 21.3027C28.2826 21.8898 29.1027 22.3434 30.015 22.6657C29.8172 23.149 29.6083 23.6119 29.3863 24.0564V24.0564ZM22.5139 1.27742C22.5139 2.77776 21.8632 4.17862 20.5661 5.47525C19.0008 7.01669 17.1075 7.9074 15.0544 7.76685C15.0282 7.58685 15.013 7.39742 15.013 7.19835C15.013 5.75802 15.7574 4.21659 17.0794 2.95625C17.7393 2.31813 18.5787 1.78753 19.5966 1.36427C20.6123 0.947315 21.573 0.716732 22.4765 0.677246C22.5029 0.877818 22.5139 1.0784 22.5139 1.2774V1.27742Z" fill="#111111"/>
</g>
<defs>
<filter id="filter0_d_389_4165" x="0.0150146" y="0.677246" width="33" height="33" filterUnits="userSpaceOnUse" color-interpolation-filters="sRGB">
<feFlood flood-opacity="0" result="BackgroundImageFix"/>
<feColorMatrix in="SourceAlpha" type="matrix" values="0 0 0 0 0 0 0 0 0 0 0 0 0 0 0 0 0 0 127 0" result="hardAlpha"/>
<feOffset dx="1.5" dy="1.5"/>
<feGaussianBlur stdDeviation="0.75"/>
<feComposite in2="hardAlpha" operator="out"/>
<feColorMatrix type="matrix" values="0 0 0 0 0.933333 0 0 0 0 0.933333 0 0 0 0 0.933333 0 0 0 1 0"/>
<feBlend mode="normal" in2="BackgroundImageFix" result="effect1_dropShadow_389_4165"/>
<feBlend mode="normal" in="SourceGraphic" in2="effect1_dropShadow_389_4165" result="shape"/>
</filter>
</defs>
</svg>
