<svg width="38" height="37" viewBox="0 0 38 37" fill="none" xmlns="http://www.w3.org/2000/svg">
<g filter="url(#filter0_d_389_4164)">
<path d="M34.6925 17.1039C34.6925 7.65767 27.0814 5.96046e-07 17.6925 5.96046e-07C8.30366 5.96046e-07 0.692505 7.65767 0.692505 17.1039C0.692505 25.6409 6.90916 32.7169 15.0363 34V22.048H10.7198V17.1039H15.0363V13.3357C15.0363 9.04903 17.5742 6.68121 21.4574 6.68121C23.3173 6.68121 25.2628 7.01527 25.2628 7.01527V11.2244H23.1192C21.0073 11.2244 20.3488 12.5429 20.3488 13.8955V17.1039H25.0636L24.3099 22.048H20.3488V34C28.4758 32.7169 34.6925 25.6409 34.6925 17.1039Z" fill="#EEEEEE"/>
</g>
<defs>
<filter id="filter0_d_389_4164" x="0.692505" y="0" width="37" height="37" filterUnits="userSpaceOnUse" color-interpolation-filters="sRGB">
<feFlood flood-opacity="0" result="BackgroundImageFix"/>
<feColorMatrix in="SourceAlpha" type="matrix" values="0 0 0 0 0 0 0 0 0 0 0 0 0 0 0 0 0 0 127 0" result="hardAlpha"/>
<feOffset dx="1.5" dy="1.5"/>
<feGaussianBlur stdDeviation="0.75"/>
<feComposite in2="hardAlpha" operator="out"/>
<feColorMatrix type="matrix" values="0 0 0 0 0.0666667 0 0 0 0 0.0666667 0 0 0 0 0.0666667 0 0 0 1 0"/>
<feBlend mode="normal" in2="BackgroundImageFix" result="effect1_dropShadow_389_4164"/>
<feBlend mode="normal" in="SourceGraphic" in2="effect1_dropShadow_389_4164" result="shape"/>
</filter>
</defs>
</svg>
