<svg width="36" height="35" viewBox="0 0 36 35" fill="none" xmlns="http://www.w3.org/2000/svg">
<g filter="url(#filter0_d_389_4166)">
<mask id="path-1-outside-1_389_4166" maskUnits="userSpaceOnUse" x="0.25" y="0" width="32" height="32" fill="black">
<rect fill="white" x="0.25" width="32" height="32"/>
<path d="M11.3762 1.00548C11.4938 1.00533 11.6114 1.00515 11.729 1.00496C12.046 1.00452 12.3629 1.0044 12.6799 1.00437C12.9122 1.00433 13.1445 1.00418 13.3768 1.00402C14.0032 1.00361 14.6295 1.00342 15.2558 1.00345C15.3089 1.00346 15.3089 1.00346 15.3631 1.00346C15.4163 1.00346 15.4163 1.00346 15.4705 1.00347C16.0441 1.00349 16.6176 1.003 17.1912 1.00229C17.7833 1.00157 18.3755 1.00122 18.9677 1.00127C19.2989 1.00128 19.63 1.00114 19.9612 1.0006C20.2731 1.00011 20.585 1.00011 20.897 1.00048C21.0103 1.00053 21.1237 1.00042 21.237 1.00011C21.832 0.998593 22.4229 1.01298 23.0165 1.05664C23.0956 1.0623 23.0956 1.0623 23.1763 1.06808C23.7099 1.11135 24.2233 1.22241 24.7384 1.36536C24.773 1.3749 24.8075 1.38443 24.8431 1.39426C26.2204 1.78714 27.4335 2.55117 28.4663 3.53115C28.4902 3.5536 28.514 3.57604 28.5385 3.59917C30.1917 5.16648 31.1444 7.4101 31.2371 9.67593C31.2465 10.0853 31.2445 10.4949 31.2444 10.9043C31.2445 11.0278 31.2447 11.1512 31.2449 11.2746C31.2453 11.5737 31.2455 11.8728 31.2455 12.1719C31.2455 12.4154 31.2456 12.6589 31.2458 12.9025C31.2462 13.5953 31.2465 14.2882 31.2464 14.981C31.2464 15.0369 31.2464 15.0369 31.2464 15.0939C31.2464 15.1498 31.2464 15.1498 31.2464 15.2068C31.2464 15.8102 31.2469 16.4137 31.2476 17.0171C31.2483 17.639 31.2487 18.261 31.2486 18.8829C31.2486 19.2311 31.2487 19.5793 31.2493 19.9276C31.2498 20.2554 31.2498 20.5833 31.2494 20.9112C31.2493 21.0307 31.2495 21.1502 31.2498 21.2698C31.2519 22.1759 31.2432 23.0982 31.0261 23.9833C31.0152 24.0289 31.0043 24.0744 30.9931 24.1213C30.7029 25.2896 30.2085 26.3958 29.4739 27.3548C29.4415 27.3976 29.4092 27.4405 29.3759 27.4846C27.9173 29.3622 25.7964 30.6242 23.4286 30.9309C23.0732 30.9742 22.7229 30.9886 22.3649 30.9883C22.3108 30.9884 22.2566 30.9886 22.2008 30.9887C22.0205 30.9892 21.8401 30.9893 21.6598 30.9893C21.53 30.9896 21.4002 30.9898 21.2704 30.9901C20.9185 30.9908 20.5665 30.9911 20.2146 30.9913C19.9943 30.9914 19.7739 30.9917 19.5536 30.9919C18.9421 30.9925 18.3306 30.993 17.7191 30.9932C17.6605 30.9932 17.6605 30.9932 17.6007 30.9932C17.5615 30.9932 17.5224 30.9932 17.482 30.9933C17.4027 30.9933 17.3234 30.9933 17.2441 30.9933C17.185 30.9933 17.185 30.9933 17.1248 30.9934C16.4886 30.9936 15.8523 30.9944 15.2161 30.9956C14.5608 30.9968 13.9056 30.9974 13.2503 30.9975C12.8833 30.9975 12.5162 30.9978 12.1491 30.9987C11.8033 30.9996 11.4574 30.9997 11.1116 30.9992C10.9855 30.9992 10.8594 30.9994 10.7333 30.9999C8.04778 31.01 5.70114 30.159 3.77219 28.2677C2.16735 26.6502 1.25245 24.3338 1.25605 22.0648C1.25593 22.0112 1.25582 21.9575 1.2557 21.9022C1.25538 21.7235 1.25542 21.5448 1.25546 21.3661C1.25531 21.2375 1.25514 21.1089 1.25495 20.9803C1.25455 20.6678 1.2544 20.3554 1.25437 20.0429C1.25434 19.7886 1.25424 19.5343 1.25408 19.28C1.25364 18.5573 1.2534 17.8346 1.25344 17.1119C1.25344 17.073 1.25345 17.0341 1.25345 16.9941C1.25345 16.9551 1.25345 16.9162 1.25345 16.8761C1.25347 16.2458 1.25299 15.6156 1.25228 14.9854C1.25156 14.3366 1.25121 13.6879 1.25125 13.0391C1.25127 12.6756 1.25114 12.312 1.25059 11.9484C1.25008 11.6061 1.2501 11.2638 1.25047 10.9215C1.25052 10.7965 1.2504 10.6715 1.25009 10.5465C1.24803 9.64591 1.2781 8.77252 1.49578 7.8942C1.50885 7.84105 1.52191 7.7879 1.53538 7.73314C1.89571 6.32873 2.60635 5.00699 3.61161 3.96006C3.73258 3.83545 3.73258 3.83545 3.83732 3.70055C3.98353 3.5182 4.15639 3.37795 4.33578 3.22895C4.37628 3.19508 4.37628 3.19508 4.41759 3.16053C4.84112 2.80793 5.2659 2.4938 5.74633 2.2216C5.80296 2.18862 5.85959 2.15564 5.91793 2.12166C7.61729 1.15556 9.46377 1.00498 11.3762 1.00548ZM8.08571 2.60565C8.04288 2.61833 8.00005 2.631 7.95592 2.64405C7.19919 2.87804 6.48896 3.21828 5.84709 3.68225C5.81897 3.70234 5.79085 3.72242 5.76188 3.74312C4.15932 4.90237 3.07731 6.58261 2.67334 8.51749C2.66459 8.55725 2.65584 8.59701 2.64683 8.63797C2.53271 9.2476 2.55807 9.8675 2.55875 10.4852C2.55853 10.6183 2.55827 10.7514 2.55797 10.8845C2.55733 11.2073 2.55723 11.5302 2.55735 11.853C2.55744 12.1158 2.55735 12.3785 2.55714 12.6412C2.55711 12.6788 2.55708 12.7163 2.55705 12.755C2.55699 12.8312 2.55693 12.9075 2.55687 12.9838C2.55632 13.6977 2.55643 14.4115 2.55673 15.1254C2.55699 15.7766 2.55643 16.4279 2.55547 17.0791C2.55449 17.7497 2.55408 18.4203 2.55427 19.0909C2.55436 19.4666 2.55424 19.8424 2.55352 20.2181C2.55292 20.538 2.55286 20.858 2.55346 21.1779C2.55376 21.3407 2.55374 21.5035 2.55321 21.6664C2.55056 22.55 2.59396 23.3899 2.86225 24.2383C2.87519 24.28 2.88812 24.3217 2.90145 24.3647C3.53154 26.3376 4.92836 27.9065 6.74379 28.875C8.02562 29.5348 9.32224 29.7028 10.7482 29.6969C10.8824 29.6971 11.0167 29.6974 11.151 29.6978C11.4749 29.6985 11.7989 29.6981 12.1228 29.6973C12.5013 29.6965 12.8798 29.6966 13.2583 29.6968C13.9342 29.6971 14.61 29.6964 15.2859 29.6952C15.9395 29.694 16.5932 29.6936 17.2468 29.6941C17.9615 29.6947 18.6762 29.6948 19.3909 29.6941C19.4673 29.694 19.5437 29.6939 19.6201 29.6939C19.6576 29.6938 19.6952 29.6938 19.7339 29.6937C19.9968 29.6935 20.2598 29.6936 20.5227 29.6938C20.8436 29.6941 21.1645 29.6937 21.4853 29.6928C21.6486 29.6923 21.8118 29.6921 21.9751 29.6924C22.6616 29.6936 23.3119 29.6756 23.9828 29.5206C24.0314 29.5095 24.08 29.4984 24.13 29.4869C25.3868 29.1864 26.5241 28.5394 27.4588 27.657C27.5204 27.6052 27.5823 27.5537 27.6446 27.5027C28.6141 26.6706 29.2578 25.3979 29.6345 24.2005C29.6465 24.1637 29.6584 24.1268 29.6708 24.0888C29.939 23.1952 29.9495 22.2749 29.9476 21.3502C29.9479 21.2205 29.9483 21.0909 29.9487 20.9612C29.9495 20.6479 29.9496 20.3347 29.9493 20.0215C29.9491 19.7664 29.9492 19.5113 29.9495 19.2562C29.9495 19.2196 29.9495 19.1831 29.9496 19.1454C29.9497 19.0711 29.9497 18.9968 29.9498 18.9225C29.9505 18.2284 29.9502 17.5343 29.9496 16.8402C29.9491 16.2081 29.9498 15.576 29.951 14.9439C29.9522 14.2916 29.9527 13.6393 29.9524 12.987C29.9522 12.6221 29.9523 12.2572 29.9532 11.8922C29.954 11.5488 29.9538 11.2053 29.9528 10.8618C29.9526 10.7368 29.9528 10.6117 29.9533 10.4867C29.9592 8.98347 29.7184 7.57041 28.9701 6.25097C28.9512 6.21756 28.9323 6.18415 28.9129 6.14972C28.6152 5.63171 28.2682 5.17717 27.8618 4.73996C27.8386 4.71484 27.8155 4.68972 27.7916 4.66384C26.5057 3.28509 24.5815 2.38566 22.693 2.31761C22.5524 2.31561 22.412 2.31514 22.2715 2.31526C22.1914 2.31504 22.1914 2.31504 22.1098 2.31481C21.9321 2.31438 21.7544 2.3143 21.5767 2.31422C21.4488 2.31399 21.3209 2.31374 21.1931 2.31346C20.8463 2.3128 20.4996 2.31248 20.1528 2.31225C19.9358 2.31211 19.7188 2.3119 19.5017 2.31168C18.8993 2.31106 18.2969 2.31054 17.6946 2.31037C17.6368 2.31036 17.6368 2.31036 17.5779 2.31034C17.5394 2.31033 17.5008 2.31032 17.4611 2.3103C17.3829 2.31028 17.3048 2.31026 17.2266 2.31024C17.1879 2.31023 17.1491 2.31022 17.1092 2.3102C16.4823 2.31001 15.8555 2.30913 15.2287 2.30795C14.5832 2.30675 13.9376 2.30613 13.2921 2.30607C12.9305 2.30603 12.5689 2.30574 12.2072 2.30482C11.8665 2.30396 11.5259 2.30389 11.1852 2.30433C11.0609 2.30436 10.9367 2.30415 10.8124 2.30365C9.8932 2.30016 8.97211 2.33724 8.08571 2.60565Z"/>
<path d="M13.2551 7.90497C13.3268 7.90474 13.3986 7.90448 13.4704 7.90421C13.6648 7.90355 13.8591 7.90323 14.0535 7.903C14.1752 7.90286 14.297 7.90265 14.4188 7.90242C14.8007 7.90174 15.1827 7.90125 15.5647 7.90105C16.0038 7.90083 16.4428 7.89995 16.8819 7.89849C17.2224 7.89739 17.563 7.89689 17.9036 7.89682C18.1064 7.89677 18.3092 7.89648 18.5121 7.89557C18.7033 7.89473 18.8945 7.89464 19.0857 7.89507C19.188 7.89513 19.2903 7.89445 19.3926 7.89373C20.7584 7.89982 21.9874 8.44961 22.9658 9.39577C23.9181 10.3819 24.352 11.6302 24.3493 12.9845C24.3495 13.0573 24.3498 13.1301 24.35 13.2029C24.3507 13.399 24.3508 13.5952 24.3506 13.7914C24.3506 13.9559 24.3508 14.1205 24.3511 14.2851C24.3516 14.6738 24.3516 15.0626 24.3513 15.4513C24.351 15.8504 24.3517 16.2496 24.3527 16.6487C24.3536 16.9931 24.3539 17.3374 24.3538 17.6818C24.3537 17.8867 24.3538 18.0916 24.3545 18.2966C24.3551 18.4896 24.355 18.6825 24.3544 18.8755C24.3543 18.9457 24.3544 19.0159 24.3548 19.0861C24.3625 20.4768 23.847 21.7291 22.8745 22.721C21.8286 23.7447 20.4623 24.1381 19.0309 24.1394C18.9651 24.1397 18.8992 24.1399 18.8314 24.1402C18.6518 24.1408 18.4722 24.1412 18.2927 24.1414C18.18 24.1415 18.0672 24.1417 17.9545 24.142C17.6004 24.1426 17.2463 24.1431 16.8922 24.1433C16.4862 24.1436 16.0802 24.1444 15.6743 24.1459C15.3587 24.147 15.0431 24.1475 14.7275 24.1476C14.5399 24.1476 14.3522 24.1479 14.1646 24.1488C12.1916 24.1579 12.1916 24.1579 11.3445 23.8196C11.2854 23.7969 11.2854 23.7969 11.2252 23.7737C10.6399 23.5394 10.1473 23.1873 9.67574 22.7714C9.62869 22.7307 9.62869 22.7307 9.58069 22.6891C8.62771 21.8052 8.19408 20.5102 8.11405 19.2457C8.09741 18.7879 8.09963 18.3297 8.10052 17.8716C8.10078 17.6948 8.10053 17.5179 8.10038 17.3411C8.10019 17.0444 8.10043 16.7478 8.10091 16.4511C8.10146 16.1107 8.10128 15.7703 8.10073 15.4299C8.10027 15.1349 8.10021 14.8398 8.10047 14.5448C8.10063 14.3698 8.10066 14.1948 8.10032 14.0198C8.09788 12.1813 8.30439 10.6602 9.6348 9.28874C10.6139 8.31667 11.8993 7.906 13.2551 7.90497ZM10.5825 10.1292C10.5363 10.1684 10.5363 10.1684 10.4892 10.2083C9.79574 10.8384 9.44452 11.7844 9.37347 12.698C9.36632 12.9151 9.36607 13.1321 9.36616 13.3493C9.36599 13.4132 9.36582 13.4771 9.36564 13.5429C9.3652 13.7169 9.36508 13.8909 9.36505 14.0649C9.36501 14.174 9.3649 14.283 9.36477 14.3921C9.36431 14.7736 9.3641 15.1552 9.36414 15.5367C9.36417 15.8907 9.36364 16.2447 9.36284 16.5987C9.36218 16.904 9.36191 17.2093 9.36195 17.5146C9.36196 17.6963 9.36182 17.878 9.36128 18.0598C9.3607 18.2628 9.36093 18.4659 9.36124 18.669C9.36095 18.7281 9.36067 18.7872 9.36038 18.8481C9.36423 19.8711 9.62358 20.7709 10.2803 21.5626C10.3123 21.6044 10.3443 21.6462 10.3773 21.6893C10.9769 22.4073 11.8955 22.7583 12.7991 22.8721C13.0293 22.8855 13.2588 22.8864 13.4893 22.886C13.5555 22.8862 13.6217 22.8865 13.6899 22.8867C13.8696 22.8874 14.0494 22.8874 14.2292 22.8873C14.3801 22.8873 14.5311 22.8875 14.682 22.8877C15.0387 22.8883 15.3953 22.8883 15.7519 22.888C16.1178 22.8877 16.4837 22.8883 16.8495 22.8894C17.1655 22.8903 17.4815 22.8906 17.7975 22.8904C17.9854 22.8903 18.1733 22.8905 18.3612 22.8912C18.5711 22.8919 18.7811 22.8915 18.991 22.8909C19.0519 22.8913 19.1127 22.8916 19.1755 22.892C20.2988 22.8852 21.2654 22.503 22.0685 21.7137C22.1001 21.6827 22.1317 21.6517 22.1643 21.6198C22.7196 21.0319 23.0802 20.2025 23.0834 19.3927C23.0838 19.3312 23.0841 19.2696 23.0845 19.2062C23.0847 19.1384 23.0848 19.0705 23.0849 19.0027C23.0852 18.931 23.0856 18.8592 23.0859 18.7875C23.087 18.5521 23.0875 18.3167 23.088 18.0813C23.0882 18 23.0884 17.9187 23.0886 17.8374C23.0896 17.4549 23.0903 17.0725 23.0907 16.69C23.0912 16.2502 23.0925 15.8104 23.0946 15.3706C23.0961 15.0296 23.0969 14.6887 23.097 14.3478C23.0971 14.1446 23.0976 13.9415 23.0989 13.7384C23.1 13.5468 23.1002 13.3552 23.0997 13.1637C23.0997 13.0611 23.1006 12.9586 23.1016 12.8561C23.0961 11.8523 22.7137 10.9539 22.0181 10.23C21.7334 9.95215 21.4253 9.7414 21.0735 9.55946C21.0436 9.54367 21.0136 9.52788 20.9828 9.51161C20.4002 9.22725 19.7996 9.14213 19.1587 9.14619C19.088 9.14592 19.0172 9.14556 18.9464 9.14512C18.7567 9.14422 18.5669 9.14456 18.3772 9.1452C18.177 9.14572 17.9768 9.14524 17.7766 9.14492C17.4406 9.14456 17.1046 9.14503 16.7686 9.146C16.3823 9.14709 15.996 9.14674 15.6096 9.14563C15.2757 9.14471 14.9418 9.14459 14.6079 9.14511C14.4094 9.14543 14.211 9.14548 14.0125 9.1448C12.7092 9.14099 11.6019 9.21308 10.5825 10.1292Z"/>
<path d="M18.0383 12.295C18.0842 12.3167 18.1301 12.3384 18.1774 12.3607C19.1318 12.8426 19.8253 13.6946 20.1681 14.6999C20.4896 15.7808 20.4388 16.9024 19.9125 17.9078C19.3253 18.9742 18.4362 19.6721 17.2732 20.0169C16.4905 20.2145 15.6205 20.1773 14.8646 19.9005C14.8127 19.8828 14.7609 19.8651 14.7075 19.8469C13.7524 19.4898 12.9267 18.7096 12.5004 17.7841C12.0574 16.7475 11.969 15.5701 12.3867 14.5077C12.8203 13.4856 13.583 12.6482 14.6099 12.2021C15.7299 11.7609 16.953 11.7638 18.0383 12.295ZM14.1593 14.0579C13.651 14.7028 13.3117 15.4329 13.4036 16.274C13.5587 17.1304 13.9152 17.8565 14.6485 18.3706C15.346 18.7895 16.0712 18.9629 16.8765 18.7892C17.698 18.5552 18.337 18.097 18.7607 17.3481C19.0962 16.6764 19.1887 15.8544 18.9608 15.1282C18.9245 15.039 18.8858 14.9507 18.8443 14.8637C18.8267 14.8244 18.809 14.7851 18.7908 14.7445C18.4536 14.0679 17.8349 13.5578 17.1315 13.3024C16.1005 12.9976 14.8982 13.2461 14.1593 14.0579Z"/>
<path d="M21.4986 10.6109C21.724 10.8484 21.8801 11.1386 21.8922 11.4703C21.8678 11.8158 21.7793 12.0526 21.5206 12.2887C21.2348 12.5296 20.9747 12.5727 20.6079 12.5659C20.3063 12.528 20.1066 12.3655 19.9086 12.1439C19.69 11.8355 19.6592 11.5575 19.7008 11.1869C19.7885 10.8915 19.9482 10.7047 20.2045 10.5322C20.6661 10.2991 21.0623 10.3572 21.4986 10.6109Z"/>
<path d="M13.7563 12.698C13.7895 12.7146 13.8228 12.7312 13.857 12.7483C13.5744 13.0309 13.2918 13.3134 13.0006 13.6046C13.0006 13.3921 13.0939 13.3333 13.2368 13.1796C13.2806 13.1319 13.3244 13.0842 13.3696 13.035C13.4924 12.9115 13.6179 12.8034 13.7563 12.698Z"/>
<path d="M4.43653 3.12821C4.46978 3.14483 4.50303 3.16145 4.53729 3.17858C4.22142 3.49438 3.90556 3.81018 3.58012 4.13555C3.54687 4.11893 3.51363 4.10231 3.47937 4.08519C3.72343 3.80445 3.96861 3.53776 4.25372 3.2982C4.34127 3.22628 4.34127 3.22628 4.43653 3.12821Z"/>
<path d="M20.2045 10.5322C20.2378 10.5488 20.271 10.5654 20.3053 10.5825C20.1557 10.7321 20.006 10.8817 19.8519 11.0358C19.8519 10.8188 19.9611 10.7388 20.1038 10.5825C20.137 10.5659 20.1703 10.5493 20.2045 10.5322Z"/>
</mask>
<path d="M11.3762 1.00548C11.4938 1.00533 11.6114 1.00515 11.729 1.00496C12.046 1.00452 12.3629 1.0044 12.6799 1.00437C12.9122 1.00433 13.1445 1.00418 13.3768 1.00402C14.0032 1.00361 14.6295 1.00342 15.2558 1.00345C15.3089 1.00346 15.3089 1.00346 15.3631 1.00346C15.4163 1.00346 15.4163 1.00346 15.4705 1.00347C16.0441 1.00349 16.6176 1.003 17.1912 1.00229C17.7833 1.00157 18.3755 1.00122 18.9677 1.00127C19.2989 1.00128 19.63 1.00114 19.9612 1.0006C20.2731 1.00011 20.585 1.00011 20.897 1.00048C21.0103 1.00053 21.1237 1.00042 21.237 1.00011C21.832 0.998593 22.4229 1.01298 23.0165 1.05664C23.0956 1.0623 23.0956 1.0623 23.1763 1.06808C23.7099 1.11135 24.2233 1.22241 24.7384 1.36536C24.773 1.3749 24.8075 1.38443 24.8431 1.39426C26.2204 1.78714 27.4335 2.55117 28.4663 3.53115C28.4902 3.5536 28.514 3.57604 28.5385 3.59917C30.1917 5.16648 31.1444 7.4101 31.2371 9.67593C31.2465 10.0853 31.2445 10.4949 31.2444 10.9043C31.2445 11.0278 31.2447 11.1512 31.2449 11.2746C31.2453 11.5737 31.2455 11.8728 31.2455 12.1719C31.2455 12.4154 31.2456 12.6589 31.2458 12.9025C31.2462 13.5953 31.2465 14.2882 31.2464 14.981C31.2464 15.0369 31.2464 15.0369 31.2464 15.0939C31.2464 15.1498 31.2464 15.1498 31.2464 15.2068C31.2464 15.8102 31.2469 16.4137 31.2476 17.0171C31.2483 17.639 31.2487 18.261 31.2486 18.8829C31.2486 19.2311 31.2487 19.5793 31.2493 19.9276C31.2498 20.2554 31.2498 20.5833 31.2494 20.9112C31.2493 21.0307 31.2495 21.1502 31.2498 21.2698C31.2519 22.1759 31.2432 23.0982 31.0261 23.9833C31.0152 24.0289 31.0043 24.0744 30.9931 24.1213C30.7029 25.2896 30.2085 26.3958 29.4739 27.3548C29.4415 27.3976 29.4092 27.4405 29.3759 27.4846C27.9173 29.3622 25.7964 30.6242 23.4286 30.9309C23.0732 30.9742 22.7229 30.9886 22.3649 30.9883C22.3108 30.9884 22.2566 30.9886 22.2008 30.9887C22.0205 30.9892 21.8401 30.9893 21.6598 30.9893C21.53 30.9896 21.4002 30.9898 21.2704 30.9901C20.9185 30.9908 20.5665 30.9911 20.2146 30.9913C19.9943 30.9914 19.7739 30.9917 19.5536 30.9919C18.9421 30.9925 18.3306 30.993 17.7191 30.9932C17.6605 30.9932 17.6605 30.9932 17.6007 30.9932C17.5615 30.9932 17.5224 30.9932 17.482 30.9933C17.4027 30.9933 17.3234 30.9933 17.2441 30.9933C17.185 30.9933 17.185 30.9933 17.1248 30.9934C16.4886 30.9936 15.8523 30.9944 15.2161 30.9956C14.5608 30.9968 13.9056 30.9974 13.2503 30.9975C12.8833 30.9975 12.5162 30.9978 12.1491 30.9987C11.8033 30.9996 11.4574 30.9997 11.1116 30.9992C10.9855 30.9992 10.8594 30.9994 10.7333 30.9999C8.04778 31.01 5.70114 30.159 3.77219 28.2677C2.16735 26.6502 1.25245 24.3338 1.25605 22.0648C1.25593 22.0112 1.25582 21.9575 1.2557 21.9022C1.25538 21.7235 1.25542 21.5448 1.25546 21.3661C1.25531 21.2375 1.25514 21.1089 1.25495 20.9803C1.25455 20.6678 1.2544 20.3554 1.25437 20.0429C1.25434 19.7886 1.25424 19.5343 1.25408 19.28C1.25364 18.5573 1.2534 17.8346 1.25344 17.1119C1.25344 17.073 1.25345 17.0341 1.25345 16.9941C1.25345 16.9551 1.25345 16.9162 1.25345 16.8761C1.25347 16.2458 1.25299 15.6156 1.25228 14.9854C1.25156 14.3366 1.25121 13.6879 1.25125 13.0391C1.25127 12.6756 1.25114 12.312 1.25059 11.9484C1.25008 11.6061 1.2501 11.2638 1.25047 10.9215C1.25052 10.7965 1.2504 10.6715 1.25009 10.5465C1.24803 9.64591 1.2781 8.77252 1.49578 7.8942C1.50885 7.84105 1.52191 7.7879 1.53538 7.73314C1.89571 6.32873 2.60635 5.00699 3.61161 3.96006C3.73258 3.83545 3.73258 3.83545 3.83732 3.70055C3.98353 3.5182 4.15639 3.37795 4.33578 3.22895C4.37628 3.19508 4.37628 3.19508 4.41759 3.16053C4.84112 2.80793 5.2659 2.4938 5.74633 2.2216C5.80296 2.18862 5.85959 2.15564 5.91793 2.12166C7.61729 1.15556 9.46377 1.00498 11.3762 1.00548ZM8.08571 2.60565C8.04288 2.61833 8.00005 2.631 7.95592 2.64405C7.19919 2.87804 6.48896 3.21828 5.84709 3.68225C5.81897 3.70234 5.79085 3.72242 5.76188 3.74312C4.15932 4.90237 3.07731 6.58261 2.67334 8.51749C2.66459 8.55725 2.65584 8.59701 2.64683 8.63797C2.53271 9.2476 2.55807 9.8675 2.55875 10.4852C2.55853 10.6183 2.55827 10.7514 2.55797 10.8845C2.55733 11.2073 2.55723 11.5302 2.55735 11.853C2.55744 12.1158 2.55735 12.3785 2.55714 12.6412C2.55711 12.6788 2.55708 12.7163 2.55705 12.755C2.55699 12.8312 2.55693 12.9075 2.55687 12.9838C2.55632 13.6977 2.55643 14.4115 2.55673 15.1254C2.55699 15.7766 2.55643 16.4279 2.55547 17.0791C2.55449 17.7497 2.55408 18.4203 2.55427 19.0909C2.55436 19.4666 2.55424 19.8424 2.55352 20.2181C2.55292 20.538 2.55286 20.858 2.55346 21.1779C2.55376 21.3407 2.55374 21.5035 2.55321 21.6664C2.55056 22.55 2.59396 23.3899 2.86225 24.2383C2.87519 24.28 2.88812 24.3217 2.90145 24.3647C3.53154 26.3376 4.92836 27.9065 6.74379 28.875C8.02562 29.5348 9.32224 29.7028 10.7482 29.6969C10.8824 29.6971 11.0167 29.6974 11.151 29.6978C11.4749 29.6985 11.7989 29.6981 12.1228 29.6973C12.5013 29.6965 12.8798 29.6966 13.2583 29.6968C13.9342 29.6971 14.61 29.6964 15.2859 29.6952C15.9395 29.694 16.5932 29.6936 17.2468 29.6941C17.9615 29.6947 18.6762 29.6948 19.3909 29.6941C19.4673 29.694 19.5437 29.6939 19.6201 29.6939C19.6576 29.6938 19.6952 29.6938 19.7339 29.6937C19.9968 29.6935 20.2598 29.6936 20.5227 29.6938C20.8436 29.6941 21.1645 29.6937 21.4853 29.6928C21.6486 29.6923 21.8118 29.6921 21.9751 29.6924C22.6616 29.6936 23.3119 29.6756 23.9828 29.5206C24.0314 29.5095 24.08 29.4984 24.13 29.4869C25.3868 29.1864 26.5241 28.5394 27.4588 27.657C27.5204 27.6052 27.5823 27.5537 27.6446 27.5027C28.6141 26.6706 29.2578 25.3979 29.6345 24.2005C29.6465 24.1637 29.6584 24.1268 29.6708 24.0888C29.939 23.1952 29.9495 22.2749 29.9476 21.3502C29.9479 21.2205 29.9483 21.0909 29.9487 20.9612C29.9495 20.6479 29.9496 20.3347 29.9493 20.0215C29.9491 19.7664 29.9492 19.5113 29.9495 19.2562C29.9495 19.2196 29.9495 19.1831 29.9496 19.1454C29.9497 19.0711 29.9497 18.9968 29.9498 18.9225C29.9505 18.2284 29.9502 17.5343 29.9496 16.8402C29.9491 16.2081 29.9498 15.576 29.951 14.9439C29.9522 14.2916 29.9527 13.6393 29.9524 12.987C29.9522 12.6221 29.9523 12.2572 29.9532 11.8922C29.954 11.5488 29.9538 11.2053 29.9528 10.8618C29.9526 10.7368 29.9528 10.6117 29.9533 10.4867C29.9592 8.98347 29.7184 7.57041 28.9701 6.25097C28.9512 6.21756 28.9323 6.18415 28.9129 6.14972C28.6152 5.63171 28.2682 5.17717 27.8618 4.73996C27.8386 4.71484 27.8155 4.68972 27.7916 4.66384C26.5057 3.28509 24.5815 2.38566 22.693 2.31761C22.5524 2.31561 22.412 2.31514 22.2715 2.31526C22.1914 2.31504 22.1914 2.31504 22.1098 2.31481C21.9321 2.31438 21.7544 2.3143 21.5767 2.31422C21.4488 2.31399 21.3209 2.31374 21.1931 2.31346C20.8463 2.3128 20.4996 2.31248 20.1528 2.31225C19.9358 2.31211 19.7188 2.3119 19.5017 2.31168C18.8993 2.31106 18.2969 2.31054 17.6946 2.31037C17.6368 2.31036 17.6368 2.31036 17.5779 2.31034C17.5394 2.31033 17.5008 2.31032 17.4611 2.3103C17.3829 2.31028 17.3048 2.31026 17.2266 2.31024C17.1879 2.31023 17.1491 2.31022 17.1092 2.3102C16.4823 2.31001 15.8555 2.30913 15.2287 2.30795C14.5832 2.30675 13.9376 2.30613 13.2921 2.30607C12.9305 2.30603 12.5689 2.30574 12.2072 2.30482C11.8665 2.30396 11.5259 2.30389 11.1852 2.30433C11.0609 2.30436 10.9367 2.30415 10.8124 2.30365C9.8932 2.30016 8.97211 2.33724 8.08571 2.60565Z" fill="#EEEEEE"/>
<path d="M13.2551 7.90497C13.3268 7.90474 13.3986 7.90448 13.4704 7.90421C13.6648 7.90355 13.8591 7.90323 14.0535 7.903C14.1752 7.90286 14.297 7.90265 14.4188 7.90242C14.8007 7.90174 15.1827 7.90125 15.5647 7.90105C16.0038 7.90083 16.4428 7.89995 16.8819 7.89849C17.2224 7.89739 17.563 7.89689 17.9036 7.89682C18.1064 7.89677 18.3092 7.89648 18.5121 7.89557C18.7033 7.89473 18.8945 7.89464 19.0857 7.89507C19.188 7.89513 19.2903 7.89445 19.3926 7.89373C20.7584 7.89982 21.9874 8.44961 22.9658 9.39577C23.9181 10.3819 24.352 11.6302 24.3493 12.9845C24.3495 13.0573 24.3498 13.1301 24.35 13.2029C24.3507 13.399 24.3508 13.5952 24.3506 13.7914C24.3506 13.9559 24.3508 14.1205 24.3511 14.2851C24.3516 14.6738 24.3516 15.0626 24.3513 15.4513C24.351 15.8504 24.3517 16.2496 24.3527 16.6487C24.3536 16.9931 24.3539 17.3374 24.3538 17.6818C24.3537 17.8867 24.3538 18.0916 24.3545 18.2966C24.3551 18.4896 24.355 18.6825 24.3544 18.8755C24.3543 18.9457 24.3544 19.0159 24.3548 19.0861C24.3625 20.4768 23.847 21.7291 22.8745 22.721C21.8286 23.7447 20.4623 24.1381 19.0309 24.1394C18.9651 24.1397 18.8992 24.1399 18.8314 24.1402C18.6518 24.1408 18.4722 24.1412 18.2927 24.1414C18.18 24.1415 18.0672 24.1417 17.9545 24.142C17.6004 24.1426 17.2463 24.1431 16.8922 24.1433C16.4862 24.1436 16.0802 24.1444 15.6743 24.1459C15.3587 24.147 15.0431 24.1475 14.7275 24.1476C14.5399 24.1476 14.3522 24.1479 14.1646 24.1488C12.1916 24.1579 12.1916 24.1579 11.3445 23.8196C11.2854 23.7969 11.2854 23.7969 11.2252 23.7737C10.6399 23.5394 10.1473 23.1873 9.67574 22.7714C9.62869 22.7307 9.62869 22.7307 9.58069 22.6891C8.62771 21.8052 8.19408 20.5102 8.11405 19.2457C8.09741 18.7879 8.09963 18.3297 8.10052 17.8716C8.10078 17.6948 8.10053 17.5179 8.10038 17.3411C8.10019 17.0444 8.10043 16.7478 8.10091 16.4511C8.10146 16.1107 8.10128 15.7703 8.10073 15.4299C8.10027 15.1349 8.10021 14.8398 8.10047 14.5448C8.10063 14.3698 8.10066 14.1948 8.10032 14.0198C8.09788 12.1813 8.30439 10.6602 9.6348 9.28874C10.6139 8.31667 11.8993 7.906 13.2551 7.90497ZM10.5825 10.1292C10.5363 10.1684 10.5363 10.1684 10.4892 10.2083C9.79574 10.8384 9.44452 11.7844 9.37347 12.698C9.36632 12.9151 9.36607 13.1321 9.36616 13.3493C9.36599 13.4132 9.36582 13.4771 9.36564 13.5429C9.3652 13.7169 9.36508 13.8909 9.36505 14.0649C9.36501 14.174 9.3649 14.283 9.36477 14.3921C9.36431 14.7736 9.3641 15.1552 9.36414 15.5367C9.36417 15.8907 9.36364 16.2447 9.36284 16.5987C9.36218 16.904 9.36191 17.2093 9.36195 17.5146C9.36196 17.6963 9.36182 17.878 9.36128 18.0598C9.3607 18.2628 9.36093 18.4659 9.36124 18.669C9.36095 18.7281 9.36067 18.7872 9.36038 18.8481C9.36423 19.8711 9.62358 20.7709 10.2803 21.5626C10.3123 21.6044 10.3443 21.6462 10.3773 21.6893C10.9769 22.4073 11.8955 22.7583 12.7991 22.8721C13.0293 22.8855 13.2588 22.8864 13.4893 22.886C13.5555 22.8862 13.6217 22.8865 13.6899 22.8867C13.8696 22.8874 14.0494 22.8874 14.2292 22.8873C14.3801 22.8873 14.5311 22.8875 14.682 22.8877C15.0387 22.8883 15.3953 22.8883 15.7519 22.888C16.1178 22.8877 16.4837 22.8883 16.8495 22.8894C17.1655 22.8903 17.4815 22.8906 17.7975 22.8904C17.9854 22.8903 18.1733 22.8905 18.3612 22.8912C18.5711 22.8919 18.7811 22.8915 18.991 22.8909C19.0519 22.8913 19.1127 22.8916 19.1755 22.892C20.2988 22.8852 21.2654 22.503 22.0685 21.7137C22.1001 21.6827 22.1317 21.6517 22.1643 21.6198C22.7196 21.0319 23.0802 20.2025 23.0834 19.3927C23.0838 19.3312 23.0841 19.2696 23.0845 19.2062C23.0847 19.1384 23.0848 19.0705 23.0849 19.0027C23.0852 18.931 23.0856 18.8592 23.0859 18.7875C23.087 18.5521 23.0875 18.3167 23.088 18.0813C23.0882 18 23.0884 17.9187 23.0886 17.8374C23.0896 17.4549 23.0903 17.0725 23.0907 16.69C23.0912 16.2502 23.0925 15.8104 23.0946 15.3706C23.0961 15.0296 23.0969 14.6887 23.097 14.3478C23.0971 14.1446 23.0976 13.9415 23.0989 13.7384C23.1 13.5468 23.1002 13.3552 23.0997 13.1637C23.0997 13.0611 23.1006 12.9586 23.1016 12.8561C23.0961 11.8523 22.7137 10.9539 22.0181 10.23C21.7334 9.95215 21.4253 9.7414 21.0735 9.55946C21.0436 9.54367 21.0136 9.52788 20.9828 9.51161C20.4002 9.22725 19.7996 9.14213 19.1587 9.14619C19.088 9.14592 19.0172 9.14556 18.9464 9.14512C18.7567 9.14422 18.5669 9.14456 18.3772 9.1452C18.177 9.14572 17.9768 9.14524 17.7766 9.14492C17.4406 9.14456 17.1046 9.14503 16.7686 9.146C16.3823 9.14709 15.996 9.14674 15.6096 9.14563C15.2757 9.14471 14.9418 9.14459 14.6079 9.14511C14.4094 9.14543 14.211 9.14548 14.0125 9.1448C12.7092 9.14099 11.6019 9.21308 10.5825 10.1292Z" fill="#EEEEEE"/>
<path d="M18.0383 12.295C18.0842 12.3167 18.1301 12.3384 18.1774 12.3607C19.1318 12.8426 19.8253 13.6946 20.1681 14.6999C20.4896 15.7808 20.4388 16.9024 19.9125 17.9078C19.3253 18.9742 18.4362 19.6721 17.2732 20.0169C16.4905 20.2145 15.6205 20.1773 14.8646 19.9005C14.8127 19.8828 14.7609 19.8651 14.7075 19.8469C13.7524 19.4898 12.9267 18.7096 12.5004 17.7841C12.0574 16.7475 11.969 15.5701 12.3867 14.5077C12.8203 13.4856 13.583 12.6482 14.6099 12.2021C15.7299 11.7609 16.953 11.7638 18.0383 12.295ZM14.1593 14.0579C13.651 14.7028 13.3117 15.4329 13.4036 16.274C13.5587 17.1304 13.9152 17.8565 14.6485 18.3706C15.346 18.7895 16.0712 18.9629 16.8765 18.7892C17.698 18.5552 18.337 18.097 18.7607 17.3481C19.0962 16.6764 19.1887 15.8544 18.9608 15.1282C18.9245 15.039 18.8858 14.9507 18.8443 14.8637C18.8267 14.8244 18.809 14.7851 18.7908 14.7445C18.4536 14.0679 17.8349 13.5578 17.1315 13.3024C16.1005 12.9976 14.8982 13.2461 14.1593 14.0579Z" fill="#EEEEEE"/>
<path d="M21.4986 10.6109C21.724 10.8484 21.8801 11.1386 21.8922 11.4703C21.8678 11.8158 21.7793 12.0526 21.5206 12.2887C21.2348 12.5296 20.9747 12.5727 20.6079 12.5659C20.3063 12.528 20.1066 12.3655 19.9086 12.1439C19.69 11.8355 19.6592 11.5575 19.7008 11.1869C19.7885 10.8915 19.9482 10.7047 20.2045 10.5322C20.6661 10.2991 21.0623 10.3572 21.4986 10.6109Z" fill="#EEEEEE"/>
<path d="M13.7563 12.698C13.7895 12.7146 13.8228 12.7312 13.857 12.7483C13.5744 13.0309 13.2918 13.3134 13.0006 13.6046C13.0006 13.3921 13.0939 13.3333 13.2368 13.1796C13.2806 13.1319 13.3244 13.0842 13.3696 13.035C13.4924 12.9115 13.6179 12.8034 13.7563 12.698Z" fill="#EEEEEE"/>
<path d="M4.43653 3.12821C4.46978 3.14483 4.50303 3.16145 4.53729 3.17858C4.22142 3.49438 3.90556 3.81018 3.58012 4.13555C3.54687 4.11893 3.51363 4.10231 3.47937 4.08519C3.72343 3.80445 3.96861 3.53776 4.25372 3.2982C4.34127 3.22628 4.34127 3.22628 4.43653 3.12821Z" fill="#EEEEEE"/>
<path d="M20.2045 10.5322C20.2378 10.5488 20.271 10.5654 20.3053 10.5825C20.1557 10.7321 20.006 10.8817 19.8519 11.0358C19.8519 10.8188 19.9611 10.7388 20.1038 10.5825C20.137 10.5659 20.1703 10.5493 20.2045 10.5322Z" fill="#EEEEEE"/>
<path d="M11.3762 1.00548L11.3759 2.00548L11.3774 2.00548L11.3762 1.00548ZM11.729 1.00496L11.7276 0.00496443L11.7274 0.00496479L11.729 1.00496ZM12.6799 1.00437L12.68 2.00437L12.6801 2.00437L12.6799 1.00437ZM13.3768 1.00402L13.3762 0.00402425L13.3762 0.00402425L13.3768 1.00402ZM15.2558 1.00345L15.2557 2.00345L15.2557 2.00345L15.2558 1.00345ZM15.3631 1.00346L15.3632 0.00345945L15.3632 0.00345945L15.3631 1.00346ZM15.4705 1.00347L15.4705 2.00347L15.4705 2.00347L15.4705 1.00347ZM17.1912 1.00229L17.1899 0.0022948L17.1899 0.00229481L17.1912 1.00229ZM18.9677 1.00127L18.9676 2.00127L18.9677 2.00127L18.9677 1.00127ZM19.9612 1.0006L19.9596 0.000603748L19.9595 0.00060382L19.9612 1.0006ZM20.897 1.00048L20.8958 2.00048L20.8965 2.00048L20.897 1.00048ZM21.237 1.00011L21.2345 0.000109912L21.2343 0.000110403L21.237 1.00011ZM23.0165 1.05664L22.9431 2.05395L22.9451 2.05409L23.0165 1.05664ZM23.1763 1.06808L23.2571 0.0713053L23.2477 0.0706295L23.1763 1.06808ZM24.7384 1.36536L24.4711 2.32895L24.4723 2.3293L24.7384 1.36536ZM24.8431 1.39426L25.1174 0.432585L25.1092 0.430324L24.8431 1.39426ZM28.4663 3.53115L27.778 4.25658L27.7806 4.25896L28.4663 3.53115ZM28.5385 3.59917L29.2266 2.87347L29.2243 2.87136L28.5385 3.59917ZM31.2371 9.67593L32.2368 9.65288L32.2366 9.64398L32.2362 9.63508L31.2371 9.67593ZM31.2444 10.9043L30.2444 10.9041L30.2444 10.9056L31.2444 10.9043ZM31.2449 11.2746L32.2449 11.2733L32.2449 11.2731L31.2449 11.2746ZM31.2455 12.1719L30.2455 12.172L30.2455 12.172L31.2455 12.1719ZM31.2458 12.9025L32.2458 12.9018L32.2458 12.9018L31.2458 12.9025ZM31.2464 14.981L30.2464 14.981L30.2464 14.981L31.2464 14.981ZM31.2464 15.0939L32.2464 15.0939L32.2464 15.0939L31.2464 15.0939ZM31.2464 15.2068L30.2464 15.2068L30.2464 15.2068L31.2464 15.2068ZM31.2476 17.0171L32.2476 17.0159L32.2476 17.0159L31.2476 17.0171ZM31.2486 18.8829L30.2486 18.8828L30.2486 18.8829L31.2486 18.8829ZM31.2493 19.9276L32.2493 19.926L32.2493 19.926L31.2493 19.9276ZM31.2494 20.9112L30.2494 20.9101L30.2494 20.9108L31.2494 20.9112ZM31.2498 21.2698L32.2498 21.2674L32.2498 21.2672L31.2498 21.2698ZM31.0261 23.9833L30.0549 23.7451L30.0536 23.7503L31.0261 23.9833ZM30.9931 24.1213L31.9636 24.3624L31.9656 24.3543L30.9931 24.1213ZM29.4739 27.3548L28.68 26.7467L28.6757 26.7524L29.4739 27.3548ZM29.3759 27.4846L30.1657 28.0982L30.1741 28.087L29.3759 27.4846ZM23.4286 30.9309L23.5498 31.9235L23.5571 31.9226L23.4286 30.9309ZM22.3649 30.9883L22.3658 29.9883L22.3622 29.9883L22.3649 30.9883ZM22.2008 30.9887L22.2032 31.9887L22.2036 31.9887L22.2008 30.9887ZM21.6598 30.9893L21.6594 29.9893L21.658 29.9893L21.6598 30.9893ZM21.2704 30.9901L21.2723 31.9901L21.2725 31.9901L21.2704 30.9901ZM20.2146 30.9913L20.2139 29.9913L20.2139 29.9913L20.2146 30.9913ZM19.5536 30.9919L19.5546 31.9919L19.5547 31.9919L19.5536 30.9919ZM17.7191 30.9932L17.7188 29.9932L17.7188 29.9932L17.7191 30.9932ZM17.6007 30.9932L17.601 31.9932L17.601 31.9932L17.6007 30.9932ZM17.482 30.9933L17.4818 29.9933L17.4818 29.9933L17.482 30.9933ZM17.2441 30.9933L17.2443 31.9933L17.2443 31.9933L17.2441 30.9933ZM17.1248 30.9934L17.1245 29.9934L17.1245 29.9934L17.1248 30.9934ZM15.2161 30.9956L15.2179 31.9956L15.2179 31.9956L15.2161 30.9956ZM13.2503 30.9975L13.2502 29.9975L13.2502 29.9975L13.2503 30.9975ZM12.1491 30.9987L12.1516 31.9987L12.1516 31.9987L12.1491 30.9987ZM11.1116 30.9992L11.1128 29.9992L11.1119 29.9992L11.1116 30.9992ZM10.7333 30.9999L10.737 31.9999L10.7373 31.9999L10.7333 30.9999ZM3.77219 28.2677L3.06224 28.9721L3.07208 28.9817L3.77219 28.2677ZM1.25605 22.0648L2.25605 22.0664L2.25604 22.0627L1.25605 22.0648ZM1.2557 21.9022L0.255702 21.904L0.255703 21.9043L1.2557 21.9022ZM1.25546 21.3661L2.25547 21.3664L2.25546 21.3649L1.25546 21.3661ZM1.25495 20.9803L0.254953 20.9816L0.254953 20.9818L1.25495 20.9803ZM1.25437 20.0429L2.25437 20.0428L2.25437 20.0428L1.25437 20.0429ZM1.25408 19.28L0.25408 19.2806L0.25408 19.2806L1.25408 19.28ZM1.25344 17.1119L2.25344 17.112L2.25344 17.112L1.25344 17.1119ZM1.25345 16.9941L0.253448 16.994L0.253448 16.994L1.25345 16.9941ZM1.25345 16.8761L2.25345 16.8761L2.25345 16.8761L1.25345 16.8761ZM1.25228 14.9854L0.252283 14.9865L0.252283 14.9865L1.25228 14.9854ZM1.25125 13.0391L2.25125 13.0392L2.25125 13.0392L1.25125 13.0391ZM1.25059 11.9484L0.250592 11.9499L0.250592 11.9499L1.25059 11.9484ZM1.25047 10.9215L2.25046 10.9226L2.25047 10.9219L1.25047 10.9215ZM1.25009 10.5465L0.250097 10.5487L0.250098 10.5489L1.25009 10.5465ZM1.49578 7.8942L2.46641 8.13475L2.46685 8.13297L1.49578 7.8942ZM1.53538 7.73314L0.566703 7.4846L0.564304 7.49436L1.53538 7.73314ZM3.61161 3.96006L2.89409 3.26349L2.89029 3.26745L3.61161 3.96006ZM3.83732 3.70055L3.05714 3.07499L3.05225 3.08109L3.04746 3.08726L3.83732 3.70055ZM4.33578 3.22895L4.97475 3.99818L4.97729 3.99606L4.33578 3.22895ZM4.41759 3.16053L3.77777 2.392L3.77608 2.39342L4.41759 3.16053ZM5.74633 2.2216L6.23931 3.09173L6.24964 3.08571L5.74633 2.2216ZM5.91793 2.12166L5.42368 1.25227L5.41462 1.25755L5.91793 2.12166ZM8.08571 2.60565L8.36944 3.56458L8.37553 3.56273L8.08571 2.60565ZM7.95592 2.64405L7.67218 1.68508L7.66052 1.68868L7.95592 2.64405ZM5.84709 3.68225L6.42837 4.49597L6.43291 4.49269L5.84709 3.68225ZM5.76188 3.74312L5.18059 2.9294L5.17577 2.93288L5.76188 3.74312ZM2.67334 8.51749L3.65003 8.73242L3.65223 8.72187L2.67334 8.51749ZM2.64683 8.63797L1.67019 8.42305L1.6668 8.43847L1.6639 8.45398L2.64683 8.63797ZM2.55875 10.4852L3.55875 10.4868L3.55875 10.4841L2.55875 10.4852ZM2.55797 10.8845L1.55797 10.8822L1.55797 10.8825L2.55797 10.8845ZM2.55735 11.853L3.55735 11.8527L3.55735 11.8527L2.55735 11.853ZM2.55714 12.6412L1.55714 12.6404L1.55714 12.6404L2.55714 12.6412ZM2.55705 12.755L3.55705 12.7558L3.55705 12.7558L2.55705 12.755ZM2.55687 12.9838L1.55687 12.983L1.55687 12.983L2.55687 12.9838ZM2.55673 15.1254L3.55673 15.125L3.55673 15.125L2.55673 15.1254ZM2.55547 17.0791L1.55547 17.0776L1.55547 17.0776L2.55547 17.0791ZM2.55427 19.0909L3.55427 19.0907L3.55427 19.0906L2.55427 19.0909ZM2.55352 20.2181L1.55353 20.2162L1.55353 20.2162L2.55352 20.2181ZM2.55346 21.1779L3.55346 21.1761L3.55346 21.176L2.55346 21.1779ZM2.55321 21.6664L1.55322 21.6631L1.55322 21.6634L2.55321 21.6664ZM2.86225 24.2383L3.81736 23.942L3.81572 23.9368L2.86225 24.2383ZM2.90145 24.3647L1.94632 24.661L1.94885 24.6689L2.90145 24.3647ZM6.74379 28.875L6.27309 29.7573L6.2796 29.7608L6.28617 29.7642L6.74379 28.875ZM10.7482 29.6969L10.7496 28.6969L10.7441 28.697L10.7482 29.6969ZM11.151 29.6978L11.1483 30.6978L11.1488 30.6978L11.151 29.6978ZM12.1228 29.6973L12.1205 28.6973L12.1204 28.6973L12.1228 29.6973ZM13.2583 29.6968L13.2578 30.6968L13.2579 30.6968L13.2583 29.6968ZM15.2859 29.6952L15.2841 28.6952L15.2841 28.6952L15.2859 29.6952ZM17.2468 29.6941L17.246 30.6941L17.246 30.6941L17.2468 29.6941ZM19.3909 29.6941L19.3899 28.6941L19.3899 28.6941L19.3909 29.6941ZM19.6201 29.6939L19.6211 30.6939L19.6211 30.6939L19.6201 29.6939ZM19.7339 29.6937L19.733 28.6937L19.7329 28.6937L19.7339 29.6937ZM20.5227 29.6938L20.5219 30.6938L20.522 30.6938L20.5227 29.6938ZM21.4853 29.6928L21.4823 28.6928L21.4822 28.6928L21.4853 29.6928ZM21.9751 29.6924L21.9731 30.6924L21.9734 30.6924L21.9751 29.6924ZM23.9828 29.5206L23.7601 28.5457L23.7576 28.5463L23.9828 29.5206ZM24.13 29.4869L24.3527 30.4619L24.3626 30.4595L24.13 29.4869ZM27.4588 27.657L26.8153 26.8915L26.7933 26.9101L26.7723 26.9298L27.4588 27.657ZM27.6446 27.5027L28.2783 28.2763L28.2872 28.269L28.2959 28.2616L27.6446 27.5027ZM29.6345 24.2005L28.6835 23.8911L28.6805 23.9005L29.6345 24.2005ZM29.6708 24.0888L30.6217 24.3982L30.6253 24.3873L30.6286 24.3763L29.6708 24.0888ZM29.9476 21.3502L28.9476 21.348L28.9476 21.3523L29.9476 21.3502ZM29.9487 20.9612L30.9487 20.9643L30.9487 20.9639L29.9487 20.9612ZM29.9493 20.0215L28.9493 20.0223L28.9493 20.0223L29.9493 20.0215ZM29.9495 19.2562L30.9495 19.2572L30.9495 19.2572L29.9495 19.2562ZM29.9496 19.1454L28.9496 19.1444L28.9496 19.1444L29.9496 19.1454ZM29.9498 18.9225L30.9498 18.9235L30.9498 18.9235L29.9498 18.9225ZM29.9496 16.8402L28.9496 16.841L28.9496 16.841L29.9496 16.8402ZM29.951 14.9439L30.951 14.9458L30.951 14.9457L29.951 14.9439ZM29.9524 12.987L28.9524 12.9875L28.9524 12.9875L29.9524 12.987ZM29.9532 11.8922L30.9532 11.8947L30.9532 11.8947L29.9532 11.8922ZM29.9528 10.8618L28.9528 10.8633L28.9528 10.8646L29.9528 10.8618ZM29.9533 10.4867L30.9533 10.4909L30.9533 10.4906L29.9533 10.4867ZM28.9701 6.25097L28.0996 6.7431L28.1002 6.74426L28.9701 6.25097ZM28.9129 6.14972L29.7834 5.65758L29.7799 5.65148L28.9129 6.14972ZM27.8618 4.73996L27.127 5.4182L27.1293 5.42073L27.8618 4.73996ZM27.7916 4.66384L28.5264 3.9856L28.5229 3.98179L27.7916 4.66384ZM22.693 2.31761L22.729 1.31826L22.7181 1.31787L22.7072 1.31771L22.693 2.31761ZM22.2715 2.31526L22.2687 3.31527L22.2724 3.31526L22.2715 2.31526ZM22.1098 2.31481L22.1126 1.31481L22.1122 1.31481L22.1098 2.31481ZM21.5767 2.31422L21.5749 3.31422L21.5763 3.31422L21.5767 2.31422ZM21.1931 2.31346L21.1952 1.31347L21.195 1.31347L21.1931 2.31346ZM20.1528 2.31225L20.1522 3.31225L20.1522 3.31225L20.1528 2.31225ZM19.5017 2.31168L19.5028 1.31168L19.5028 1.31168L19.5017 2.31168ZM17.6946 2.31037L17.6943 3.31037L17.6943 3.31037L17.6946 2.31037ZM17.5779 2.31034L17.5782 1.31034L17.5782 1.31034L17.5779 2.31034ZM17.4611 2.3103L17.4608 3.3103L17.4608 3.3103L17.4611 2.3103ZM17.2266 2.31024L17.2269 1.31024L17.2269 1.31024L17.2266 2.31024ZM17.1092 2.3102L17.1089 3.3102L17.1089 3.3102L17.1092 2.3102ZM15.2287 2.30795L15.2305 1.30795L15.2305 1.30795L15.2287 2.30795ZM13.2921 2.30607L13.292 3.30607L13.292 3.30607L13.2921 2.30607ZM12.2072 2.30482L12.2098 1.30483L12.2098 1.30483L12.2072 2.30482ZM11.1852 2.30433L11.1855 3.30433L11.1865 3.30432L11.1852 2.30433ZM10.8124 2.30365L10.8165 1.30366L10.8162 1.30365L10.8124 2.30365ZM13.2551 7.90497L13.2558 8.90497L13.2583 8.90496L13.2551 7.90497ZM13.4704 7.90421L13.467 6.90422L13.4666 6.90422L13.4704 7.90421ZM14.0535 7.903L14.0546 8.903L14.0547 8.903L14.0535 7.903ZM14.4188 7.90242L14.417 6.90243L14.4169 6.90243L14.4188 7.90242ZM15.5647 7.90105L15.5652 8.90105L15.5652 8.90105L15.5647 7.90105ZM16.8819 7.89849L16.8787 6.89849L16.8785 6.89849L16.8819 7.89849ZM17.9036 7.89682L17.9038 8.89682L17.9038 8.89682L17.9036 7.89682ZM18.5121 7.89557L18.5077 6.89558L18.5076 6.89558L18.5121 7.89557ZM19.0857 7.89507L19.0834 8.89507L19.0851 8.89507L19.0857 7.89507ZM19.3926 7.89373L19.397 6.89367L19.3855 6.89375L19.3926 7.89373ZM22.9658 9.39577L23.6852 8.70114L23.6733 8.68882L23.661 8.67692L22.9658 9.39577ZM24.3493 12.9845L23.3493 12.9825L23.3493 12.9875L24.3493 12.9845ZM24.35 13.2029L25.35 13.1994L25.35 13.1987L24.35 13.2029ZM24.3506 13.7914L23.3506 13.7907L23.3506 13.791L24.3506 13.7914ZM24.3511 14.2851L25.3511 14.2836L25.3511 14.2836L24.3511 14.2851ZM24.3513 15.4513L23.3513 15.4505L23.3513 15.4505L24.3513 15.4513ZM24.3527 16.6487L25.3527 16.6461L25.3527 16.646L24.3527 16.6487ZM24.3538 17.6818L23.3538 17.6813L23.3538 17.6814L24.3538 17.6818ZM24.3545 18.2966L25.3545 18.2933L25.3545 18.2931L24.3545 18.2966ZM24.3544 18.8755L23.3544 18.8722L23.3544 18.8738L24.3544 18.8755ZM24.3548 19.0861L25.3548 19.0805L25.3548 19.0801L24.3548 19.0861ZM22.8745 22.721L23.574 23.4357L23.5813 23.4285L23.5885 23.4211L22.8745 22.721ZM19.0309 24.1394L19.03 23.1394L19.0271 23.1394L19.0309 24.1394ZM18.8314 24.1402L18.835 25.1402L18.8352 25.1402L18.8314 24.1402ZM18.2927 24.1414L18.2914 23.1414L18.2913 23.1414L18.2927 24.1414ZM17.9545 24.142L17.9565 25.142L17.9565 25.142L17.9545 24.142ZM16.8922 24.1433L16.8916 23.1433L16.8916 23.1433L16.8922 24.1433ZM15.6743 24.1459L15.6777 25.1459L15.6779 25.1459L15.6743 24.1459ZM14.7275 24.1476L14.7273 23.1476L14.7272 23.1476L14.7275 24.1476ZM14.1646 24.1488L14.1692 25.1488L14.1695 25.1488L14.1646 24.1488ZM11.3445 23.8196L11.7153 22.8909L11.7041 22.8866L11.3445 23.8196ZM11.2252 23.7737L10.8536 24.7022L10.8656 24.7068L11.2252 23.7737ZM9.67574 22.7714L10.3372 22.0213L10.3301 22.0152L9.67574 22.7714ZM9.58069 22.6891L8.90064 23.4223L8.9133 23.4341L8.92637 23.4454L9.58069 22.6891ZM8.11405 19.2457L7.11471 19.282L7.1152 19.2954L7.11605 19.3088L8.11405 19.2457ZM8.10052 17.8716L9.10051 17.8735L9.10051 17.8731L8.10052 17.8716ZM8.10038 17.3411L7.10038 17.3417L7.10038 17.342L8.10038 17.3411ZM8.10091 16.4511L9.10091 16.4528L9.10091 16.4527L8.10091 16.4511ZM8.10073 15.4299L7.10073 15.4315L7.10073 15.4315L8.10073 15.4299ZM8.10047 14.5448L9.10047 14.5456L9.10047 14.5456L8.10047 14.5448ZM8.10032 14.0198L7.10032 14.0211L7.10032 14.0217L8.10032 14.0198ZM9.6348 9.28874L8.93027 8.57907L8.92359 8.5857L8.91703 8.59246L9.6348 9.28874ZM10.5825 10.1292L11.2293 10.892L11.2402 10.8826L11.251 10.873L10.5825 10.1292ZM10.4892 10.2083L9.84251 9.44561L9.82947 9.45667L9.81681 9.46817L10.4892 10.2083ZM9.37347 12.698L8.37649 12.6204L8.37475 12.6427L8.37402 12.665L9.37347 12.698ZM9.36616 13.3493L10.3662 13.352L10.3662 13.349L9.36616 13.3493ZM9.36564 13.5429L8.36565 13.5402L8.36565 13.5403L9.36564 13.5429ZM9.36505 14.0649L10.365 14.0652L10.365 14.0651L9.36505 14.0649ZM9.36477 14.3921L8.36477 14.3909L8.36477 14.3909L9.36477 14.3921ZM9.36414 15.5367L10.3641 15.5366L10.3641 15.5366L9.36414 15.5367ZM9.36284 16.5987L8.36284 16.5964L8.36284 16.5965L9.36284 16.5987ZM9.36195 17.5146L10.3619 17.5145L10.3619 17.5145L9.36195 17.5146ZM9.36128 18.0598L8.36129 18.0568L8.36129 18.0569L9.36128 18.0598ZM9.36124 18.669L10.3612 18.6738L10.3612 18.6675L9.36124 18.669ZM9.36038 18.8481L8.36035 18.8433L8.36039 18.8518L9.36038 18.8481ZM10.2803 21.5626L11.0742 20.9546L11.0624 20.9392L11.0499 20.9241L10.2803 21.5626ZM10.3773 21.6893L9.58329 22.2972L9.59615 22.314L9.60971 22.3302L10.3773 21.6893ZM12.7991 22.8721L12.6742 23.8643L12.7074 23.8685L12.7409 23.8704L12.7991 22.8721ZM13.4893 22.886L13.4932 21.8859L13.4873 21.886L13.4893 22.886ZM13.6899 22.8867L13.686 23.8867L13.6862 23.8867L13.6899 22.8867ZM14.2292 22.8873L14.2288 21.8873L14.2284 21.8873L14.2292 22.8873ZM14.682 22.8877L14.6804 23.8877L14.6805 23.8877L14.682 22.8877ZM15.7519 22.888L15.7511 21.888L15.751 21.888L15.7519 22.888ZM16.8495 22.8894L16.8466 23.8894L16.8467 23.8894L16.8495 22.8894ZM17.7975 22.8904L17.797 21.8904L17.797 21.8904L17.7975 22.8904ZM18.3612 22.8912L18.3574 23.8912L18.3576 23.8912L18.3612 22.8912ZM18.991 22.8909L18.9973 21.8908L18.9882 21.8909L18.991 22.8909ZM19.1755 22.892L19.1691 23.8921L19.1815 23.892L19.1755 22.892ZM22.0685 21.7137L21.3688 20.9992L21.3675 21.0005L22.0685 21.7137ZM22.1643 21.6198L22.864 22.3343L22.8779 22.3207L22.8913 22.3065L22.1643 21.6198ZM23.0834 19.3927L22.0834 19.3868L22.0834 19.3887L23.0834 19.3927ZM23.0845 19.2062L24.0845 19.212L24.0845 19.2083L23.0845 19.2062ZM23.0849 19.0027L22.0849 18.9983L22.0849 19.0008L23.0849 19.0027ZM23.0859 18.7875L24.0859 18.7924L24.0859 18.792L23.0859 18.7875ZM23.088 18.0813L22.088 18.0788L22.088 18.0792L23.088 18.0813ZM23.0886 17.8374L24.0886 17.84L24.0886 17.8399L23.0886 17.8374ZM23.0907 16.69L22.0907 16.6889L22.0907 16.6889L23.0907 16.69ZM23.0946 15.3706L24.0946 15.3752L24.0946 15.375L23.0946 15.3706ZM23.097 14.3478L22.097 14.3472L22.097 14.3473L23.097 14.3478ZM23.0989 13.7384L24.0988 13.7447L24.0988 13.7446L23.0989 13.7384ZM23.0997 13.1637L22.0997 13.164L22.0997 13.1663L23.0997 13.1637ZM23.1016 12.8561L24.1016 12.8659L24.1017 12.8582L24.1016 12.8505L23.1016 12.8561ZM22.0181 10.23L22.7391 9.53709L22.728 9.52551L22.7165 9.5143L22.0181 10.23ZM21.0735 9.55946L20.6071 10.444L20.6141 10.4477L21.0735 9.55946ZM20.9828 9.51161L21.4493 8.62707L21.4355 8.61979L21.4214 8.61295L20.9828 9.51161ZM19.1587 9.14619L19.1548 10.1462L19.1651 10.1462L19.1587 9.14619ZM18.9464 9.14512L18.9526 8.14514L18.9512 8.14514L18.9464 9.14512ZM18.3772 9.1452L18.3797 10.1452L18.3806 10.1452L18.3772 9.1452ZM17.7766 9.14492L17.7782 8.14492L17.7777 8.14492L17.7766 9.14492ZM16.7686 9.146L16.7715 10.146L16.7715 10.146L16.7686 9.146ZM15.6096 9.14563L15.6125 8.14563L15.6124 8.14563L15.6096 9.14563ZM14.6079 9.14511L14.6095 10.1451L14.6095 10.1451L14.6079 9.14511ZM14.0125 9.1448L14.0159 8.14481L14.0154 8.14481L14.0125 9.1448ZM18.0383 12.295L17.5987 13.1933L17.6112 13.1992L18.0383 12.295ZM18.1774 12.3607L18.6281 11.4681L18.6164 11.4621L18.6045 11.4565L18.1774 12.3607ZM20.1681 14.6999L21.1266 14.4148L21.121 14.3958L21.1146 14.3771L20.1681 14.6999ZM19.9125 17.9078L20.7885 18.3902L20.7936 18.3809L20.7984 18.3716L19.9125 17.9078ZM17.2732 20.0169L17.5179 20.9865L17.5378 20.9815L17.5575 20.9757L17.2732 20.0169ZM14.8646 19.9005L15.2084 18.9614L15.1978 18.9576L15.1871 18.9539L14.8646 19.9005ZM14.7075 19.8469L14.3573 20.7836L14.371 20.7887L14.385 20.7935L14.7075 19.8469ZM12.5004 17.7841L11.5808 18.177L11.5863 18.1898L11.5921 18.2025L12.5004 17.7841ZM12.3867 14.5077L11.4661 14.1171L11.4609 14.1294L11.456 14.1418L12.3867 14.5077ZM14.6099 12.2021L14.2434 11.2717L14.2273 11.278L14.2115 11.2849L14.6099 12.2021ZM14.1593 14.0579L13.4198 13.3847L13.3959 13.411L13.3739 13.4389L14.1593 14.0579ZM13.4036 16.274L12.4096 16.3827L12.4134 16.4176L12.4196 16.4522L13.4036 16.274ZM14.6485 18.3706L14.0745 19.1894L14.1034 19.2097L14.1336 19.2278L14.6485 18.3706ZM16.8765 18.7892L17.0873 19.7668L17.1192 19.7599L17.1505 19.751L16.8765 18.7892ZM18.7607 17.3481L19.6311 17.8405L19.6438 17.818L19.6553 17.7949L18.7607 17.3481ZM18.9608 15.1282L19.915 14.8288L19.9025 14.789L19.8867 14.7504L18.9608 15.1282ZM18.8443 14.8637L17.9321 15.2733L17.9367 15.2837L17.9416 15.294L18.8443 14.8637ZM18.7908 14.7445L19.7031 14.335L19.6948 14.3165L19.6858 14.2985L18.7908 14.7445ZM17.1315 13.3024L17.4729 12.3624L17.4442 12.352L17.415 12.3434L17.1315 13.3024ZM21.4986 10.6109L22.224 9.92254L22.1252 9.81844L22.0011 9.74632L21.4986 10.6109ZM21.8922 11.4703L22.8897 11.5405L22.8934 11.4873L22.8915 11.4339L21.8922 11.4703ZM21.5206 12.2887L22.1651 13.0533L22.1803 13.0406L22.1949 13.0272L21.5206 12.2887ZM20.6079 12.5659L20.483 13.5581L20.536 13.5648L20.5895 13.5658L20.6079 12.5659ZM19.9086 12.1439L19.0926 12.722L19.1253 12.7682L19.163 12.8104L19.9086 12.1439ZM19.7008 11.1869L18.7421 10.9024L18.7169 10.9873L18.707 11.0754L19.7008 11.1869ZM13.7563 12.698L14.2034 11.8035L13.6459 11.5248L13.1502 11.9026L13.7563 12.698ZM13.857 12.7483L14.5641 13.4555L15.5454 12.4744L14.3042 11.8539L13.857 12.7483ZM13.0006 13.6046H12.0006V16.0184L13.7077 14.3117L13.0006 13.6046ZM13.2368 13.1796L13.9692 13.8605L13.9732 13.8561L13.2368 13.1796ZM13.3696 13.035L12.6605 12.3299L12.6465 12.3439L12.6331 12.3585L13.3696 13.035ZM4.43653 3.12821L4.88368 2.23375L4.22911 1.90653L3.71922 2.43145L4.43653 3.12821ZM4.53729 3.17858L5.24432 3.88575L6.22566 2.90461L4.98443 2.28412L4.53729 3.17858ZM3.58012 4.13555L3.13298 5.03002L3.77755 5.35224L4.28716 4.84273L3.58012 4.13555ZM3.47937 4.08519L2.7247 3.42908L1.87821 4.40275L3.03223 4.97965L3.47937 4.08519ZM4.25372 3.2982L3.61894 2.52543L3.61042 2.53259L4.25372 3.2982ZM20.3053 10.5825L21.0123 11.2897L21.9937 10.3086L20.7524 9.68808L20.3053 10.5825ZM19.8519 11.0358H18.8519V13.4497L20.5589 11.743L19.8519 11.0358ZM20.1038 10.5825L19.6566 9.68808L19.4906 9.7711L19.3653 9.9082L20.1038 10.5825ZM11.3774 2.00548C11.4952 2.00532 11.6129 2.00515 11.7306 2.00496L11.7274 0.00496479C11.6099 0.00515471 11.4924 0.00532601 11.3749 0.00547693L11.3774 2.00548ZM11.7304 2.00496C12.0467 2.00452 12.3632 2.0044 12.68 2.00437L12.6798 0.00436837C12.3627 0.00440066 12.0452 0.00452203 11.7276 0.00496446L11.7304 2.00496ZM12.6801 2.00437C12.9127 2.00433 13.1452 2.00418 13.3775 2.00402L13.3762 0.00402425C13.1438 0.00418004 12.9118 0.00432635 12.6797 0.00436838L12.6801 2.00437ZM13.3775 2.00402C14.0036 2.00361 14.6297 2.00342 15.2557 2.00345L15.2559 0.00345336C14.6293 0.00341733 14.0027 0.00360698 13.3762 0.00402425L13.3775 2.00402ZM15.2557 2.00345C15.3089 2.00346 15.3089 2.00346 15.363 2.00346L15.3632 0.00345945C15.309 0.00345637 15.309 0.00345637 15.2559 0.00345336L15.2557 2.00345ZM15.363 2.00346C15.4162 2.00346 15.4162 2.00346 15.4705 2.00347L15.4706 0.00346569C15.4163 0.00346254 15.4163 0.00346254 15.3632 0.00345945L15.363 2.00346ZM15.4705 2.00347C16.0446 2.00349 16.6186 2.003 17.1924 2.00229L17.1899 0.00229481C16.6166 0.00300517 16.0435 0.00348611 15.4706 0.00346569L15.4705 2.00347ZM17.1924 2.00229C17.7841 2.00157 18.3759 2.00122 18.9676 2.00127L18.9678 0.00126624C18.3752 0.00122293 17.7825 0.00156641 17.1899 0.0022948L17.1924 2.00229ZM18.9677 2.00127C19.2991 2.00128 19.6309 2.00114 19.9628 2.0006L19.9595 0.00060382C19.6291 0.00114102 19.2986 0.0012828 18.9678 0.00126624L18.9677 2.00127ZM19.9627 2.0006C20.2736 2.00011 20.5846 2.00012 20.8958 2.00048L20.8982 0.000478093C20.5854 0.000114649 20.2726 0.000108602 19.9596 0.000603749L19.9627 2.0006ZM20.8965 2.00048C21.0108 2.00053 21.1253 2.00041 21.2397 2.0001L21.2343 0.000110403C21.1221 0.000416051 21.0098 0.000529035 20.8974 0.000477523L20.8965 2.00048ZM21.2396 2.0001C21.8172 1.99863 22.3817 2.01264 22.9431 2.05395L23.0899 0.0593401C22.4642 0.0133104 21.8469 -0.00144801 21.2345 0.000109928L21.2396 2.0001ZM22.9451 2.05409C23.0243 2.05976 23.0241 2.05975 23.1049 2.06553L23.2477 0.0706295C23.1671 0.0648623 23.1669 0.0648487 23.0879 0.0591957L22.9451 2.05409ZM23.0955 2.06481C23.5438 2.10116 23.9907 2.19567 24.4711 2.32895L25.0058 0.401771C24.4558 0.249146 23.8761 0.121545 23.2571 0.07135L23.0955 2.06481ZM24.4723 2.3293C24.5069 2.33883 24.5414 2.34837 24.577 2.3582L25.1092 0.430324C25.0737 0.420499 25.0391 0.410963 25.0046 0.401426L24.4723 2.3293ZM24.5688 2.3559C25.7636 2.69672 26.8395 3.36606 27.778 4.25658L29.1546 2.80572C28.0275 1.73628 26.6772 0.877553 25.1174 0.43262L24.5688 2.3559ZM27.7806 4.25896C27.8044 4.28141 27.8282 4.30386 27.8528 4.32699L29.2243 2.87136C29.1998 2.84823 29.1759 2.82578 29.1521 2.80333L27.7806 4.25896ZM27.8505 4.32487C29.3015 5.7005 30.1551 7.69215 30.2379 9.71679L32.2362 9.63508C32.1337 7.12805 31.0819 4.63246 29.2266 2.87348L27.8505 4.32487ZM30.2373 9.69899C30.2464 10.0935 30.2445 10.4877 30.2444 10.9041L32.2444 10.9046C32.2445 10.5021 32.2466 10.0771 32.2368 9.65288L30.2373 9.69899ZM30.2444 10.9056C30.2445 11.0291 30.2447 11.1526 30.2449 11.2762L32.2449 11.2731C32.2447 11.1498 32.2445 11.0264 32.2444 10.9031L30.2444 10.9056ZM30.2449 11.276C30.2453 11.5745 30.2455 11.8732 30.2455 12.172L32.2455 12.1718C32.2455 11.8724 32.2453 11.5729 32.2449 11.2733L30.2449 11.276ZM30.2455 12.172C30.2455 12.4157 30.2456 12.6595 30.2458 12.9031L32.2458 12.9018C32.2456 12.6584 32.2455 12.4151 32.2455 12.1718L30.2455 12.172ZM30.2458 12.9031C30.2462 13.5958 30.2465 14.2884 30.2464 14.981L32.2464 14.9811C32.2465 14.288 32.2462 13.5949 32.2458 12.9018L30.2458 12.9031ZM30.2464 14.981C30.2464 15.0369 30.2464 15.0367 30.2464 15.0938L32.2464 15.0939C32.2464 15.0371 32.2464 15.0368 32.2464 14.9811L30.2464 14.981ZM30.2464 15.0938C30.2464 15.153 30.2464 15.1465 30.2464 15.2068L32.2464 15.2069C32.2464 15.1531 32.2464 15.1466 32.2464 15.0939L30.2464 15.0938ZM30.2464 15.2068C30.2464 15.8108 30.2469 16.4146 30.2476 17.0183L32.2476 17.0159C32.2469 16.4127 32.2464 15.8097 32.2464 15.2069L30.2464 15.2068ZM30.2476 17.0182C30.2483 17.6398 30.2487 18.2613 30.2486 18.8828L32.2486 18.883C32.2487 18.2606 32.2483 17.6383 32.2476 17.0159L30.2476 17.0182ZM30.2486 18.8829C30.2486 19.2313 30.2487 19.5802 30.2493 19.9291L32.2493 19.926C32.2487 19.5785 32.2486 19.2309 32.2486 18.8829L30.2486 18.8829ZM30.2493 19.9291C30.2498 20.2559 30.2498 20.5829 30.2494 20.9101L32.2494 20.9123C32.2498 20.5838 32.2498 20.255 32.2493 19.926L30.2493 19.9291ZM30.2494 20.9108C30.2493 21.0312 30.2495 21.1518 30.2498 21.2723L32.2498 21.2672C32.2495 21.1487 32.2493 21.0302 32.2494 20.9116L30.2494 20.9108ZM30.2498 21.2722C30.252 22.1882 30.239 22.9944 30.0549 23.7451L31.9973 24.2215C32.2474 23.2019 32.2519 22.1636 32.2498 21.2674L30.2498 21.2722ZM30.0536 23.7503C30.0427 23.7959 30.0318 23.8414 30.0206 23.8883L31.9656 24.3543C31.9768 24.3074 31.9877 24.2619 31.9986 24.2163L30.0536 23.7503ZM30.0226 23.8802C29.7606 24.9347 29.3199 25.9115 28.68 26.7467L30.2677 27.9629C31.0971 26.8802 31.6451 25.6445 31.9636 24.3624L30.0226 23.8802ZM28.6757 26.7524C28.6433 26.7952 28.611 26.8381 28.5777 26.8822L30.1741 28.087C30.2074 28.0429 30.2397 28 30.2721 27.9572L28.6757 26.7524ZM28.5862 26.8711C27.2817 28.5503 25.394 29.668 23.3002 29.9391L23.5571 31.9226C26.1988 31.5804 28.5528 30.1741 30.1656 28.0981L28.5862 26.8711ZM23.3075 29.9382C23.0042 29.9752 22.6967 29.9886 22.3658 29.9883L22.3641 31.9883C22.7491 31.9886 23.1422 31.9732 23.5498 31.9235L23.3075 29.9382ZM22.3622 29.9883C22.3544 29.9883 22.2075 29.9887 22.198 29.9888L22.2036 31.9887C22.3058 31.9885 22.2672 31.9886 22.3677 31.9883L22.3622 29.9883ZM22.1984 29.9888C22.0192 29.9892 21.8399 29.9893 21.6594 29.9893L21.6602 31.9893C21.8404 31.9893 22.0217 31.9892 22.2032 31.9887L22.1984 29.9888ZM21.658 29.9893C21.5281 29.9896 21.3982 29.9898 21.2683 29.9901L21.2725 31.9901C21.4022 31.9898 21.5319 31.9896 21.6616 31.9893L21.658 29.9893ZM21.2685 29.9901C20.9172 29.9908 20.5658 29.9911 20.2139 29.9913L20.2152 31.9913C20.5673 31.9911 20.9197 31.9908 21.2723 31.9901L21.2685 29.9901ZM20.2139 29.9913C19.9934 29.9914 19.7729 29.9917 19.5526 29.9919L19.5547 31.9919C19.7749 31.9917 19.9951 31.9914 20.2152 31.9913L20.2139 29.9913ZM19.5526 29.9919C18.9412 29.9925 18.33 29.993 17.7188 29.9932L17.7194 31.9932C18.3312 31.993 18.943 31.9925 19.5546 31.9919L19.5526 29.9919ZM17.7188 29.9932C17.6895 29.9932 17.6749 29.9932 17.6601 29.9932C17.6453 29.9932 17.6303 29.9932 17.6004 29.9932L17.601 31.9932C17.6309 31.9932 17.6458 31.9932 17.6606 31.9932C17.6754 31.9932 17.6901 31.9932 17.7194 31.9932L17.7188 29.9932ZM17.6004 29.9932C17.5687 29.9932 17.5146 29.9932 17.4818 29.9933L17.4823 31.9933C17.5302 31.9932 17.5544 31.9932 17.601 31.9932L17.6004 29.9932ZM17.4818 29.9933C17.4024 29.9933 17.3231 29.9933 17.2438 29.9933L17.2443 31.9933C17.3237 31.9933 17.403 31.9933 17.4823 31.9933L17.4818 29.9933ZM17.2438 29.9933C17.1848 29.9933 17.1847 29.9933 17.1245 29.9934L17.1251 31.9934C17.1853 31.9933 17.1853 31.9933 17.2443 31.9933L17.2438 29.9933ZM17.1245 29.9934C16.4876 29.9936 15.8508 29.9944 15.2142 29.9956L15.2179 31.9956C15.8539 31.9944 16.4896 31.9936 17.1251 31.9934L17.1245 29.9934ZM15.2142 29.9956C14.5596 29.9968 13.9049 29.9974 13.2502 29.9975L13.2504 31.9975C13.9062 31.9974 14.5621 31.9968 15.2179 31.9956L15.2142 29.9956ZM13.2502 29.9975C12.8827 29.9975 12.5148 29.9978 12.1466 29.9987L12.1516 31.9987C12.5176 31.9978 12.8838 31.9975 13.2505 31.9975L13.2502 29.9975ZM12.1466 29.9987C11.8023 29.9996 11.4577 29.9997 11.1128 29.9992L11.1103 31.9992C11.4571 31.9997 11.8042 31.9996 12.1516 31.9987L12.1466 29.9987ZM11.1119 29.9992C10.9844 29.9992 10.8569 29.9994 10.7293 29.9999L10.7373 31.9999C10.8618 31.9994 10.9865 31.9992 11.1113 31.9992L11.1119 29.9992ZM10.7295 29.9999C8.27998 30.0091 6.19485 29.2426 4.47229 27.5537L3.07208 28.9817C5.20743 31.0754 7.81557 32.0108 10.737 31.9999L10.7295 29.9999ZM4.48206 27.5634C3.07058 26.1408 2.25285 24.0812 2.25605 22.0664L0.256048 22.0633C0.252052 24.5863 1.26411 27.1596 3.06231 28.972L4.48206 27.5634ZM2.25604 22.0627C2.25593 22.0089 2.25582 21.9555 2.2557 21.9L0.255703 21.9043C0.25582 21.9595 0.255935 22.0134 0.256049 22.067L2.25604 22.0627ZM2.2557 21.9004C2.25538 21.7229 2.25542 21.5452 2.25546 21.3664L0.255465 21.3659C0.255423 21.5444 0.255383 21.7241 0.255702 21.904L2.2557 21.9004ZM2.25546 21.3649C2.25531 21.2362 2.25514 21.1075 2.25495 20.9788L0.254953 20.9818C0.255143 21.1103 0.255315 21.2388 0.255465 21.3673L2.25546 21.3649ZM2.25495 20.979C2.25455 20.667 2.2544 20.355 2.25437 20.0428L0.254367 20.043C0.254395 20.3557 0.254554 20.6686 0.254953 20.9816L2.25495 20.979ZM2.25437 20.0428C2.25434 19.7883 2.25424 19.5338 2.25408 19.2793L0.25408 19.2806C0.254239 19.5348 0.254343 19.7889 0.254367 20.043L2.25437 20.0428ZM2.25408 19.2793C2.25364 18.5569 2.2534 17.8344 2.25344 17.112L0.253442 17.1119C0.253404 17.8348 0.253636 18.5577 0.25408 19.2806L2.25408 19.2793ZM2.25344 17.112C2.25344 17.073 2.25345 17.0342 2.25345 16.9941L0.253448 16.994C0.253446 17.034 0.253444 17.073 0.253442 17.1119L2.25344 17.112ZM2.25345 16.9941C2.25345 16.954 2.25345 16.9174 2.25345 16.8761L0.253454 16.876C0.253452 16.9149 0.25345 16.9563 0.253448 16.994L2.25345 16.9941ZM2.25345 16.8761C2.25347 16.2453 2.25299 15.6147 2.25228 14.9842L0.252283 14.9865C0.252994 15.6165 0.253474 16.2463 0.253454 16.876L2.25345 16.8761ZM2.25228 14.9842C2.25156 14.3359 2.25121 13.6875 2.25125 13.0392L0.251254 13.0391C0.25121 13.6882 0.251557 14.3373 0.252283 14.9865L2.25228 14.9842ZM2.25125 13.0392C2.25127 12.6754 2.25114 12.3112 2.25059 11.9469L0.250592 11.9499C0.251136 12.3128 0.251271 12.6758 0.251254 13.0391L2.25125 13.0392ZM2.25059 11.9469C2.25008 11.6057 2.2501 11.2642 2.25046 10.9226L0.250466 10.9205C0.2501 11.2634 0.25008 11.6066 0.250592 11.9499L2.25059 11.9469ZM2.25047 10.9219C2.25052 10.796 2.2504 10.67 2.25009 10.544L0.250098 10.5489C0.250402 10.6729 0.250517 10.797 0.250465 10.9211L2.25047 10.9219ZM2.25009 10.5442C2.24806 9.65895 2.27974 8.88799 2.46641 8.13475L0.525141 7.65364C0.27646 8.65706 0.248 9.63286 0.250097 10.5487L2.25009 10.5442ZM2.46685 8.13297C2.47992 8.07982 2.49299 8.02667 2.50645 7.97191L0.564304 7.49436C0.550839 7.54912 0.53777 7.60227 0.524701 7.65542L2.46685 8.13297ZM2.50401 7.98166C2.82416 6.73383 3.45412 5.56791 4.33293 4.65266L2.89029 3.26745C1.75859 4.44607 0.967255 5.92362 0.566752 7.48462L2.50401 7.98166ZM4.32911 4.65661C4.47528 4.50604 4.49949 4.47828 4.62718 4.31383L3.04746 3.08726C2.98879 3.16283 2.98185 3.17119 2.97602 3.1779C2.96987 3.18497 2.96184 3.19373 2.89411 3.2635L4.32911 4.65661ZM4.6175 4.3261C4.68804 4.23812 4.77513 4.16399 4.97474 3.99818L3.69681 2.45971C3.53766 2.59191 3.27902 2.79827 3.05714 3.07499L4.6175 4.3261ZM4.97729 3.99606C5.01779 3.96219 5.01779 3.96219 5.05911 3.92764L3.77608 2.39342C3.73476 2.42797 3.73476 2.42797 3.69426 2.46184L4.97729 3.99606ZM5.05741 3.92905C5.45254 3.6001 5.8273 3.32507 6.23927 3.09167L5.25339 1.35154C4.70449 1.66252 4.2297 2.01576 3.77777 2.392L5.05741 3.92905ZM6.24964 3.08571C6.30626 3.05273 6.36289 3.01975 6.42123 2.98577L5.41462 1.25755C5.35628 1.29153 5.29966 1.32451 5.24303 1.35749L6.24964 3.08571ZM6.41215 2.99099C7.87406 2.15989 9.498 2.00499 11.3759 2.00548L11.3764 0.00547614C9.42955 0.0049715 7.36053 0.151233 5.42371 1.25232L6.41215 2.99099ZM7.80199 1.64674C7.75898 1.65947 7.71652 1.67204 7.6722 1.68515L8.23964 3.60296C8.28358 3.58996 8.32678 3.57718 8.36943 3.56456L7.80199 1.64674ZM7.66052 1.68868C6.81045 1.95152 6.00006 2.33778 5.26127 2.87181L6.43291 4.49269C6.97786 4.09877 7.58793 3.80455 8.25132 3.59943L7.66052 1.68868ZM5.26581 2.86854C5.23769 2.88863 5.20958 2.90871 5.1806 2.92941L6.34315 4.55683C6.37212 4.53613 6.40024 4.51604 6.42836 4.49596L5.26581 2.86854ZM5.17577 2.93288C3.36962 4.23941 2.14888 6.13656 1.69445 8.31311L3.65223 8.72187C4.00575 7.02865 4.94902 5.56534 6.34798 4.55335L5.17577 2.93288ZM1.6967 8.30258C1.68792 8.34252 1.67925 8.38191 1.67019 8.42305L3.62346 8.85288C3.63243 8.8121 3.64126 8.77198 3.64997 8.73241L1.6967 8.30258ZM1.6639 8.45398C1.52782 9.18096 1.55814 9.92734 1.55875 10.4863L3.55875 10.4841C3.55801 9.80766 3.53761 9.31424 3.62975 8.82195L1.6639 8.45398ZM1.55875 10.4835C1.55853 10.6165 1.55827 10.7493 1.55797 10.8822L3.55796 10.8868C3.55827 10.7534 3.55853 10.6201 3.55875 10.4868L1.55875 10.4835ZM1.55797 10.8825C1.55733 11.2064 1.55723 11.5301 1.55735 11.8534L3.55735 11.8527C3.55723 11.5302 3.55733 11.2082 3.55797 10.8865L1.55797 10.8825ZM1.55735 11.8534C1.55744 12.1157 1.55735 12.378 1.55714 12.6404L3.55714 12.6421C3.55735 12.379 3.55744 12.1159 3.55735 11.8527L1.55735 11.8534ZM1.55714 12.6404C1.5571 12.695 1.55709 12.6984 1.55705 12.7542L3.55705 12.7558C3.55707 12.7342 3.55712 12.6625 3.55714 12.642L1.55714 12.6404ZM1.55705 12.7542C1.55699 12.8305 1.55693 12.9067 1.55687 12.983L3.55687 12.9846C3.55693 12.9083 3.55699 12.832 3.55705 12.7558L1.55705 12.7542ZM1.55687 12.983C1.55632 13.6975 1.55643 14.4118 1.55673 15.1258L3.55673 15.125C3.55643 14.4113 3.55632 13.6978 3.55687 12.9846L1.55687 12.983ZM1.55673 15.1258C1.55699 15.7762 1.55643 16.4268 1.55547 17.0776L3.55547 17.0806C3.55643 16.429 3.55699 15.7771 3.55673 15.125L1.55673 15.1258ZM1.55547 17.0776C1.55449 17.7488 1.55408 18.42 1.55427 19.0912L3.55427 19.0906C3.55408 18.4206 3.55449 17.7506 3.55547 17.0806L1.55547 17.0776ZM1.55427 19.0912C1.55436 19.4665 1.55424 19.8415 1.55353 20.2162L3.55352 20.22C3.55424 19.8432 3.55436 19.4667 3.55427 19.0907L1.55427 19.0912ZM1.55353 20.2162C1.55292 20.5373 1.55286 20.8585 1.55347 21.1798L3.55346 21.176C3.55286 20.8575 3.55292 20.5388 3.55352 20.22L1.55353 20.2162ZM1.55347 21.1797C1.55376 21.3413 1.55374 21.5024 1.55322 21.6631L3.55321 21.6696C3.55374 21.5047 3.55376 21.3402 3.55346 21.1761L1.55347 21.1797ZM1.55322 21.6634C1.55048 22.5744 1.59264 23.54 1.90878 24.5398L3.81572 23.9368C3.59528 23.2397 3.55064 22.5257 3.55321 21.6694L1.55322 21.6634ZM1.90716 24.5346C1.92009 24.5763 1.93303 24.618 1.94635 24.661L3.85654 24.0684C3.84322 24.0254 3.83028 23.9837 3.81735 23.942L1.90716 24.5346ZM1.94885 24.6689C2.6652 26.9119 4.2491 28.6775 6.27309 29.7573L7.21449 27.9928C5.60762 27.1355 4.39788 25.7632 3.85405 24.0604L1.94885 24.6689ZM6.28617 29.7642C7.76649 30.5261 9.24302 30.7031 10.7523 30.6969L10.7441 28.697C9.40146 28.7025 8.28475 28.5435 7.20141 27.9859L6.28617 29.7642ZM10.7468 30.6969C10.8806 30.6971 11.0145 30.6974 11.1483 30.6978L11.1537 28.6978C11.019 28.6974 10.8843 28.6971 10.7496 28.6969L10.7468 30.6969ZM11.1488 30.6978C11.4749 30.6985 11.8005 30.6981 12.1252 30.6973L12.1204 28.6973C11.7972 28.6981 11.475 28.6985 11.1531 28.6978L11.1488 30.6978ZM12.1251 30.6973C12.502 30.6965 12.8791 30.6966 13.2578 30.6968L13.2588 28.6968C12.8805 28.6966 12.5006 28.6965 12.1205 28.6973L12.1251 30.6973ZM13.2579 30.6968C13.9347 30.6971 14.6114 30.6964 15.2878 30.6952L15.2841 28.6952C14.6087 28.6964 13.9336 28.6971 13.2587 28.6968L13.2579 30.6968ZM15.2878 30.6952C15.9405 30.694 16.5933 30.6936 17.246 30.6941L17.2476 28.6941C16.5931 28.6936 15.9386 28.694 15.2841 28.6952L15.2878 30.6952ZM17.246 30.6941C17.9611 30.6947 18.6765 30.6948 19.3919 30.6941L19.3899 28.6941C18.6759 28.6948 17.9619 28.6947 17.2476 28.6941L17.246 30.6941ZM19.3919 30.6941C19.4683 30.694 19.5447 30.6939 19.6211 30.6939L19.6191 28.6939C19.5427 28.6939 19.4663 28.694 19.3899 28.6941L19.3919 30.6941ZM19.6211 30.6939C19.6398 30.6938 19.6586 30.6938 19.6775 30.6938C19.6965 30.6938 19.7155 30.6938 19.7349 30.6937L19.7329 28.6937C19.7135 28.6938 19.6945 28.6938 19.6756 28.6938C19.6566 28.6938 19.6378 28.6938 19.619 28.6939L19.6211 30.6939ZM19.7348 30.6937C19.9969 30.6935 20.2593 30.6936 20.5219 30.6938L20.5235 28.6938C20.2603 28.6936 19.9967 28.6935 19.733 28.6937L19.7348 30.6937ZM20.522 30.6938C20.844 30.6941 21.1661 30.6937 21.4884 30.6928L21.4822 28.6928C21.1628 28.6938 20.8432 28.6941 20.5235 28.6938L20.522 30.6938ZM21.4883 30.6928C21.6504 30.6923 21.8119 30.6921 21.9731 30.6924L21.977 28.6924C21.8117 28.6921 21.6468 28.6923 21.4823 28.6928L21.4883 30.6928ZM21.9734 30.6924C22.6706 30.6936 23.4183 30.6774 24.208 30.4949L23.7576 28.5463C23.2055 28.6739 22.6525 28.6936 21.9768 28.6924L21.9734 30.6924ZM24.2055 30.4955C24.2657 30.4817 24.2909 30.4759 24.3527 30.4618L23.9074 28.5121C23.869 28.5208 23.797 28.5372 23.7601 28.5457L24.2055 30.4955ZM24.3626 30.4595C25.8037 30.1149 27.0943 29.3763 28.1453 28.3841L26.7723 26.9298C25.9539 27.7025 24.97 28.2579 23.8974 28.5144L24.3626 30.4595ZM28.1023 28.4224C28.1611 28.373 28.2197 28.3243 28.2783 28.2763L27.0108 26.7292C26.9449 26.7832 26.8797 26.8374 26.8153 26.8915L28.1023 28.4224ZM28.2959 28.2616C29.4642 27.2588 30.1837 25.7872 30.5884 24.5006L28.6805 23.9005C28.332 25.0086 27.7639 26.0825 26.9933 26.7439L28.2959 28.2616ZM30.5854 24.5099C30.5974 24.4731 30.6094 24.4362 30.6217 24.3982L28.7199 23.7795C28.7075 23.8174 28.6955 23.8543 28.6835 23.8912L30.5854 24.5099ZM30.6286 24.3763C30.9449 23.3224 30.9495 22.2614 30.9476 21.3482L28.9476 21.3523C28.9495 22.2884 28.9331 23.0681 28.713 23.8014L30.6286 24.3763ZM30.9476 21.3525C30.9479 21.2231 30.9483 21.0937 30.9487 20.9643L28.9487 20.958C28.9483 21.088 28.9479 21.218 28.9476 21.348L30.9476 21.3525ZM30.9487 20.9639C30.9495 20.649 30.9496 20.3345 30.9493 20.0206L28.9493 20.0223C28.9496 20.3349 28.9495 20.6469 28.9487 20.9584L30.9487 20.9639ZM30.9493 20.0207C30.9491 19.7663 30.9492 19.5118 30.9495 19.2572L28.9495 19.2552C28.9492 19.5107 28.9491 19.7665 28.9493 20.0223L30.9493 20.0207ZM30.9495 19.2572C30.9496 19.1469 30.9495 19.2578 30.9496 19.1464L28.9496 19.1444C28.9496 19.1632 28.9495 19.1818 28.9495 19.2002C28.9495 19.2186 28.9495 19.2369 28.9495 19.2552L30.9495 19.2572ZM30.9496 19.1465C30.9497 19.0721 30.9497 18.9978 30.9498 18.9235L28.9498 18.9214C28.9497 18.9957 28.9497 19.0701 28.9496 19.1444L30.9496 19.1465ZM30.9498 18.9235C30.9505 18.2285 30.9502 17.5337 30.9496 16.8394L28.9496 16.841C28.9502 17.5349 28.9505 18.2283 28.9498 18.9215L30.9498 18.9235ZM30.9496 16.8394C30.9491 16.2085 30.9498 15.5773 30.951 14.9458L28.951 14.9419C28.9498 15.5746 28.9491 16.2077 28.9496 16.841L30.9496 16.8394ZM30.951 14.9457C30.9522 14.2927 30.9527 13.6396 30.9524 12.9865L28.9524 12.9875C28.9527 13.639 28.9522 14.2904 28.951 14.942L30.951 14.9457ZM30.9524 12.9865C30.9522 12.6221 30.9523 12.2582 30.9532 11.8947L28.9532 11.8898C28.9523 12.2561 28.9522 12.6221 28.9524 12.9875L30.9524 12.9865ZM30.9532 11.8947C30.954 11.5491 30.9538 11.2039 30.9528 10.8591L28.9528 10.8646C28.9538 11.2067 28.954 11.5484 28.9532 11.8898L30.9532 11.8947ZM30.9528 10.8604C30.9527 10.7371 30.9528 10.6139 30.9533 10.4909L28.9533 10.4824C28.9528 10.6095 28.9526 10.7365 28.9528 10.8633L30.9528 10.8604ZM30.9533 10.4906C30.9597 8.87656 30.7008 7.27567 29.84 5.75768L28.1002 6.74426C28.7359 7.86514 28.9588 9.09038 28.9533 10.4827L30.9533 10.4906ZM29.8406 5.75884C29.8217 5.72543 29.8029 5.69202 29.7834 5.65759L28.0424 6.64185C28.0618 6.67628 28.0807 6.70969 28.0996 6.7431L29.8406 5.75884ZM29.7799 5.65148C29.4391 5.05845 29.0445 4.54353 28.5943 4.05919L27.1293 5.42073C27.4919 5.81082 27.7913 6.20496 28.0458 6.64797L29.7799 5.65148ZM28.5967 4.06173C28.5735 4.03661 28.5503 4.01149 28.5264 3.98561L27.0567 5.34208C27.0806 5.36795 27.1038 5.39307 27.127 5.41819L28.5967 4.06173ZM28.5229 3.98179C27.0611 2.41448 24.8891 1.39609 22.729 1.31826L22.6569 3.31696C24.274 3.37523 25.9502 4.1557 27.0603 5.3459L28.5229 3.98179ZM22.7072 1.31771C22.5597 1.31562 22.4137 1.31514 22.2706 1.31526L22.2724 3.31526C22.4103 3.31514 22.5452 3.31561 22.6787 3.31751L22.7072 1.31771ZM22.2743 1.31527C22.1943 1.31504 22.1942 1.31504 22.1126 1.31481L22.107 3.31481C22.1887 3.31504 22.1886 3.31504 22.2687 3.31526L22.2743 1.31527ZM22.1122 1.31481C21.9334 1.31438 21.7547 1.3143 21.5772 1.31422L21.5763 3.31422C21.7541 3.3143 21.9308 3.31438 22.1073 3.31481L22.1122 1.31481ZM21.5786 1.31422C21.4508 1.31399 21.323 1.31374 21.1952 1.31347L21.1909 3.31346C21.3189 3.31373 21.4469 3.31399 21.5749 3.31422L21.5786 1.31422ZM21.195 1.31347C20.8476 1.31281 20.5004 1.31248 20.1535 1.31225L20.1522 3.31225C20.4988 3.31248 20.845 3.3128 21.1912 3.31346L21.195 1.31347ZM20.1535 1.31225C19.9367 1.31212 19.7198 1.3119 19.5028 1.31168L19.5007 3.31167C19.7178 3.3119 19.935 3.31211 20.1522 3.31225L20.1535 1.31225ZM19.5028 1.31168C18.9003 1.31106 18.2976 1.31054 17.6948 1.31037L17.6943 3.31037C18.2963 3.31054 18.8984 3.31106 19.5007 3.31167L19.5028 1.31168ZM17.6948 1.31037C17.6371 1.31036 17.6371 1.31036 17.5782 1.31034L17.5776 3.31034C17.6366 3.31036 17.6365 3.31036 17.6943 3.31037L17.6948 1.31037ZM17.5782 1.31034C17.5397 1.31033 17.5011 1.31032 17.4613 1.3103L17.4608 3.3103C17.5005 3.31032 17.5391 3.31033 17.5776 3.31034L17.5782 1.31034ZM17.4613 1.3103C17.3832 1.31028 17.3051 1.31026 17.2269 1.31024L17.2263 3.31024C17.3045 3.31026 17.3826 3.31028 17.4608 3.3103L17.4613 1.3103ZM17.2269 1.31024C17.1524 1.31022 17.1852 1.31023 17.1095 1.3102L17.1089 3.3102C17.1125 3.3102 17.2239 3.31024 17.2263 3.31024L17.2269 1.31024ZM17.1095 1.3102C16.4834 1.31001 15.8571 1.30913 15.2305 1.30795L15.2268 3.30795C15.8539 3.30913 16.4813 3.31 17.1089 3.3102L17.1095 1.3102ZM15.2305 1.30795C14.5844 1.30675 13.9383 1.30613 13.2922 1.30607L13.292 3.30607C13.937 3.30613 14.5819 3.30675 15.2268 3.30795L15.2305 1.30795ZM13.2923 1.30607C12.931 1.30603 12.5703 1.30574 12.2098 1.30483L12.2047 3.30482C12.5674 3.30574 12.93 3.30603 13.292 3.30607L13.2923 1.30607ZM12.2098 1.30483C11.8675 1.30396 11.5256 1.30389 11.1839 1.30433L11.1865 3.30432C11.5262 3.30389 11.8655 3.30396 12.2047 3.30482L12.2098 1.30483ZM11.1849 1.30433C11.062 1.30436 10.9392 1.30415 10.8165 1.30366L10.8084 3.30364C10.9342 3.30415 11.0599 3.30436 11.1855 3.30433L11.1849 1.30433ZM10.8162 1.30365C9.88054 1.3001 8.83329 1.33443 7.79589 1.64857L8.37553 3.56273C9.11093 3.34004 9.90585 3.30021 10.8086 3.30364L10.8162 1.30365ZM13.2583 8.90496C13.3303 8.90473 13.4022 8.90448 13.4742 8.90421L13.4666 6.90422C13.395 6.90449 13.3234 6.90474 13.2518 6.90498L13.2583 8.90496ZM13.4738 8.90421C13.6671 8.90355 13.8606 8.90323 14.0546 8.903L14.0523 6.903C13.8577 6.90323 13.6625 6.90356 13.467 6.90422L13.4738 8.90421ZM14.0547 8.903C14.1768 8.90285 14.2988 8.90265 14.4206 8.90242L14.4169 6.90243C14.2952 6.90265 14.1737 6.90286 14.0522 6.903L14.0547 8.903ZM14.4206 8.90242C14.8022 8.90173 15.1837 8.90125 15.5652 8.90105L15.5642 6.90105C15.1817 6.90125 14.7993 6.90174 14.417 6.90243L14.4206 8.90242ZM15.5652 8.90105C16.0053 8.90083 16.4453 8.89994 16.8852 8.89848L16.8785 6.89849C16.4404 6.89995 16.0023 6.90083 15.5642 6.90105L15.5652 8.90105ZM16.8851 8.89848C17.2245 8.89739 17.5641 8.89689 17.9038 8.89682L17.9034 6.89682C17.562 6.89689 17.2204 6.89739 16.8787 6.89849L16.8851 8.89848ZM17.9038 8.89682C18.1074 8.89677 18.3118 8.89648 18.5165 8.89556L18.5076 6.89558C18.3067 6.89648 18.1054 6.89677 17.9033 6.89682L17.9038 8.89682ZM18.5165 8.89556C18.7051 8.89473 18.894 8.89464 19.0834 8.89507L19.088 6.89508C18.8949 6.89463 18.7015 6.89473 18.5077 6.89558L18.5165 8.89556ZM19.0851 8.89507C19.1917 8.89513 19.2976 8.89442 19.3996 8.8937L19.3855 6.89375C19.2829 6.89447 19.1842 6.89513 19.0862 6.89507L19.0851 8.89507ZM19.3881 8.89372C20.4718 8.89855 21.4595 9.33015 22.2706 10.1146L23.661 8.67692C22.5154 7.56907 21.045 6.90109 19.397 6.89374L19.3881 8.89372ZM22.2464 10.0904C22.9954 10.866 23.3515 11.8532 23.3493 12.9825L25.3493 12.9865C25.3524 11.4072 24.8408 9.89788 23.6852 8.70114L22.2464 10.0904ZM23.3493 12.9875C23.3495 13.0607 23.3498 13.1338 23.3501 13.207L25.35 13.1987C25.3497 13.1263 25.3495 13.0539 25.3493 12.9815L23.3493 12.9875ZM23.3501 13.2063C23.3507 13.4004 23.3508 13.595 23.3506 13.7907L25.3506 13.792C25.3508 13.5954 25.3507 13.3977 25.35 13.1994L23.3501 13.2063ZM23.3506 13.791C23.3506 13.9567 23.3508 14.1222 23.3511 14.2865L25.3511 14.2836C25.3508 14.1189 25.3506 13.9552 25.3506 13.7917L23.3506 13.791ZM23.3511 14.2865C23.3516 14.6743 23.3516 15.0623 23.3513 15.4505L25.3513 15.4521C25.3516 15.0628 25.3516 14.6733 25.3511 14.2836L23.3511 14.2865ZM23.3513 15.4505C23.351 15.8512 23.3517 16.2515 23.3527 16.6514L25.3527 16.646C25.3516 16.2476 25.351 15.8497 25.3513 15.4521L23.3513 15.4505ZM23.3527 16.6513C23.3536 16.9945 23.3539 17.3378 23.3538 17.6813L25.3538 17.6823C25.3539 17.337 25.3536 16.9916 25.3527 16.6461L23.3527 16.6513ZM23.3538 17.6814C23.3537 17.8869 23.3538 18.0933 23.3545 18.3L25.3545 18.2931C25.3538 18.09 25.3537 17.8865 25.3538 17.6822L23.3538 17.6814ZM23.3545 18.2999C23.3551 18.4903 23.355 18.681 23.3544 18.8722L25.3544 18.8789C25.355 18.6841 25.3551 18.4888 25.3545 18.2933L23.3545 18.2999ZM23.3544 18.8738C23.3543 18.9464 23.3544 19.0191 23.3548 19.0921L25.3548 19.0801C25.3544 19.0127 25.3543 18.945 25.3544 18.8772L23.3544 18.8738ZM23.3548 19.0916C23.3611 20.2147 22.9511 21.2146 22.1605 22.0209L23.5885 23.4211C24.743 22.2437 25.364 20.7388 25.3548 19.0805L23.3548 19.0916ZM22.175 22.0064C21.3668 22.7974 20.2816 23.1383 19.03 23.1394L19.0318 25.1394C20.643 25.1379 22.2904 24.692 23.574 23.4357L22.175 22.0064ZM19.0271 23.1394C18.9613 23.1397 18.8954 23.1399 18.8276 23.1402L18.8352 25.1402C18.903 25.1399 18.9689 25.1397 19.0347 25.1394L19.0271 23.1394ZM18.8277 23.1402C18.6493 23.1408 18.4707 23.1412 18.2914 23.1414L18.2939 25.1414C18.4738 25.1412 18.6543 25.1408 18.835 25.1402L18.8277 23.1402ZM18.2913 23.1414C18.1783 23.1415 18.0653 23.1417 17.9525 23.142L17.9565 25.142C18.0691 25.1417 18.1816 25.1415 18.294 25.1414L18.2913 23.1414ZM17.9526 23.142C17.5989 23.1426 17.2452 23.1431 16.8916 23.1433L16.8927 25.1433C17.2474 25.1431 17.602 25.1426 17.9565 25.142L17.9526 23.142ZM16.8916 23.1433C16.4846 23.1436 16.0776 23.1444 15.6707 23.1459L15.6779 25.1459C16.0829 25.1444 16.4878 25.1436 16.8927 25.1433L16.8916 23.1433ZM15.6708 23.1459C15.3565 23.147 15.042 23.1475 14.7273 23.1476L14.7277 25.1476C15.0442 25.1475 15.3609 25.147 15.6777 25.1459L15.6708 23.1459ZM14.7272 23.1476C14.5388 23.1476 14.3495 23.1479 14.1597 23.1488L14.1695 25.1488C14.355 25.1479 14.5409 25.1476 14.7278 25.1476L14.7272 23.1476ZM14.16 23.1488C13.1382 23.1535 12.7244 23.1534 12.4483 23.1212C12.2439 23.0973 12.1458 23.0628 11.7152 22.8909L10.9737 24.7484C11.3903 24.9147 11.7158 25.0493 12.2164 25.1077C12.6453 25.1578 13.218 25.1532 14.1692 25.1488L14.16 23.1488ZM11.7041 22.8866C11.6451 22.8638 11.6451 22.8638 11.5849 22.8406L10.8656 24.7068C10.9258 24.73 10.9258 24.73 10.9848 24.7527L11.7041 22.8866ZM11.5968 22.8453C11.156 22.6689 10.7608 22.395 10.3372 22.0214L9.01431 23.5214C9.53376 23.9795 10.1238 24.41 10.8537 24.7021L11.5968 22.8453ZM10.3301 22.0152C10.283 21.9745 10.283 21.9745 10.235 21.9329L8.92637 23.4454C8.97437 23.4869 8.97437 23.4869 9.02142 23.5276L10.3301 22.0152ZM10.2607 21.956C9.55558 21.3019 9.18192 20.2864 9.11205 19.1825L7.11605 19.3088C7.20625 20.7341 7.69984 22.3085 8.90064 23.4223L10.2607 21.956ZM9.11339 19.2094C9.0976 18.7748 9.09962 18.3378 9.10051 17.8735L7.10052 17.8697C7.09964 18.3215 7.09723 18.801 7.11471 19.282L9.11339 19.2094ZM9.10051 17.8731C9.10078 17.6947 9.10053 17.5163 9.10038 17.3402L7.10038 17.342C7.10053 17.5195 7.10077 17.6948 7.10052 17.8701L9.10051 17.8731ZM9.10038 17.3405C9.10019 17.0448 9.10043 16.7489 9.10091 16.4528L7.10092 16.4495C7.10043 16.7467 7.10019 17.0441 7.10038 17.3417L9.10038 17.3405ZM9.10091 16.4527C9.10146 16.1109 9.10128 15.7694 9.10073 15.4283L7.10073 15.4315C7.10128 15.7712 7.10146 16.1105 7.10092 16.4495L9.10091 16.4527ZM9.10073 15.4283C9.10027 15.1342 9.10021 14.84 9.10047 14.5456L7.10047 14.5439C7.10021 14.8396 7.10027 15.1355 7.10073 15.4315L9.10073 15.4283ZM9.10047 14.5456C9.10063 14.3702 9.10066 14.1942 9.10032 14.0178L7.10032 14.0217C7.10066 14.1954 7.10063 14.3693 7.10047 14.5439L9.10047 14.5456ZM9.10032 14.0184C9.09798 12.2558 9.30062 11.0695 10.3526 9.98501L8.91703 8.59246C7.30816 10.251 7.09778 12.1068 7.10032 14.0211L9.10032 14.0184ZM10.3393 9.9984C11.0919 9.25131 12.1024 8.90585 13.2558 8.90497L13.2543 6.90497C11.6962 6.90615 10.136 7.38203 8.93027 8.57907L10.3393 9.9984ZM9.93579 9.36652C9.88962 9.40567 9.88962 9.40567 9.84251 9.44561L11.136 10.971C11.1831 10.9311 11.1831 10.9311 11.2293 10.892L9.93579 9.36652ZM9.81681 9.46817C8.88313 10.3164 8.46115 11.5318 8.37649 12.6204L10.3705 12.7755C10.4279 12.0371 10.7084 11.3603 11.1617 10.9485L9.81681 9.46817ZM8.37402 12.665C8.36624 12.9011 8.36607 13.1337 8.36616 13.3497L10.3662 13.349C10.3661 13.1304 10.3664 12.9291 10.3729 12.7309L8.37402 12.665ZM8.36616 13.3467C8.36599 13.4106 8.36582 13.4744 8.36565 13.5402L10.3656 13.5455C10.3658 13.4797 10.366 13.4158 10.3662 13.352L8.36616 13.3467ZM8.36565 13.5403C8.3652 13.7155 8.36508 13.8904 8.36505 14.0647L10.365 14.0651C10.3651 13.8913 10.3652 13.7182 10.3656 13.5454L8.36565 13.5403ZM8.36505 14.0645C8.36501 14.1732 8.36491 14.2819 8.36477 14.3909L10.3648 14.3933C10.3649 14.2841 10.365 14.1747 10.365 14.0652L8.36505 14.0645ZM8.36477 14.3909C8.36431 14.7729 8.3641 15.1548 8.36414 15.5368L10.3641 15.5366C10.3641 15.1555 10.3643 14.7744 10.3648 14.3933L8.36477 14.3909ZM8.36414 15.5368C8.36417 15.8898 8.36364 16.2429 8.36284 16.5964L10.3628 16.6009C10.3636 16.2465 10.3642 15.8917 10.3641 15.5366L8.36414 15.5368ZM8.36284 16.5965C8.36218 16.9027 8.36191 17.2088 8.36195 17.5147L10.3619 17.5145C10.3619 17.2098 10.3622 16.9053 10.3628 16.6009L8.36284 16.5965ZM8.36195 17.5147C8.36196 17.6959 8.36182 17.8765 8.36129 18.0568L10.3613 18.0627C10.3618 17.8796 10.362 17.6968 10.3619 17.5145L8.36195 17.5147ZM8.36129 18.0569C8.36069 18.2624 8.36094 18.4674 8.36124 18.6705L10.3612 18.6675C10.3609 18.4644 10.3607 18.2633 10.3613 18.0627L8.36129 18.0569ZM8.36125 18.6642C8.36097 18.7233 8.36068 18.7824 8.36039 18.8433L10.3604 18.8529C10.3607 18.792 10.3609 18.7329 10.3612 18.6738L8.36125 18.6642ZM8.36039 18.8518C8.36492 20.0583 8.67763 21.1968 9.51058 22.201L11.0499 20.9241C10.5695 20.345 10.3635 19.684 10.3604 18.8443L8.36039 18.8518ZM9.48627 22.1705C9.51829 22.2123 9.5503 22.2541 9.58329 22.2972L11.1713 21.0813C11.1383 21.0383 11.1063 20.9964 11.0742 20.9546L9.48627 22.1705ZM9.60971 22.3302C10.4297 23.3122 11.6274 23.7325 12.6742 23.8643L12.924 21.88C12.1636 21.7842 11.5241 21.5024 11.1448 21.0483L9.60971 22.3302ZM12.7409 23.8704C13.004 23.8858 13.2601 23.8864 13.4913 23.8859L13.4873 21.886C13.2574 21.8864 13.0546 21.8853 12.8573 21.8738L12.7409 23.8704ZM13.4854 23.8859C13.5704 23.8863 13.599 23.8864 13.686 23.8867L13.6938 21.8867C13.6444 21.8865 13.5406 21.8861 13.4932 21.886L13.4854 23.8859ZM13.6862 23.8867C13.8681 23.8874 14.0496 23.8874 14.2299 23.8873L14.2284 21.8873C14.0492 21.8874 13.8711 21.8874 13.6936 21.8867L13.6862 23.8867ZM14.2295 23.8873C14.3793 23.8873 14.5293 23.8875 14.6804 23.8877L14.6836 21.8877C14.5329 21.8875 14.3809 21.8873 14.2288 21.8873L14.2295 23.8873ZM14.6805 23.8877C15.0381 23.8883 15.3955 23.8883 15.7528 23.888L15.751 21.888C15.395 21.8883 15.0392 21.8883 14.6836 21.8877L14.6805 23.8877ZM15.7527 23.888C16.117 23.8877 16.4815 23.8883 16.8466 23.8894L16.8525 21.8894C16.4858 21.8883 16.1186 21.8877 15.7511 21.888L15.7527 23.888ZM16.8467 23.8894C17.1639 23.8903 17.481 23.8906 17.798 23.8904L17.797 21.8904C17.4819 21.8906 17.1671 21.8903 16.8524 21.8894L16.8467 23.8894ZM17.798 23.8904C17.9852 23.8903 18.1715 23.8905 18.3574 23.8912L18.3649 21.8912C18.175 21.8905 17.9856 21.8903 17.797 21.8904L17.798 23.8904ZM18.3576 23.8912C18.5711 23.8919 18.7839 23.8914 18.9938 23.8909L18.9882 21.8909C18.7782 21.8915 18.5712 21.8919 18.3648 21.8912L18.3576 23.8912ZM18.9847 23.8908C19.0456 23.8912 19.1064 23.8916 19.1691 23.892L19.1818 21.8921C19.1191 21.8917 19.0582 21.8913 18.9973 21.8909L18.9847 23.8908ZM19.1815 23.892C20.5546 23.8837 21.7736 23.4057 22.7694 22.4269L21.3675 21.0005C20.7573 21.6003 20.043 21.8868 19.1694 21.8921L19.1815 23.892ZM22.7681 22.4281C22.7998 22.3972 22.8314 22.3662 22.864 22.3343L21.4646 20.9054C21.4321 20.9373 21.4004 20.9682 21.3688 20.9992L22.7681 22.4281ZM22.8913 22.3065C23.6049 21.551 24.079 20.483 24.0834 19.3967L22.0834 19.3887C22.0813 19.922 21.8344 20.5128 21.4373 20.9332L22.8913 22.3065ZM24.0834 19.3986C24.0839 19.3079 24.084 19.3046 24.0845 19.212L22.0845 19.2003C22.0843 19.2346 22.0836 19.3544 22.0834 19.3868L24.0834 19.3986ZM24.0845 19.2083C24.0847 19.1404 24.0848 19.0725 24.0849 19.0047L22.0849 19.0008C22.0848 19.0686 22.0847 19.1363 22.0845 19.2041L24.0845 19.2083ZM24.0849 19.0071C24.0852 18.9355 24.0856 18.864 24.0859 18.7924L22.0859 18.7825C22.0856 18.8545 22.0853 18.9264 22.0849 18.9983L24.0849 19.0071ZM24.0859 18.792C24.087 18.5552 24.0875 18.3187 24.088 18.0835L22.088 18.0792C22.0875 18.3147 22.087 18.5489 22.0859 18.783L24.0859 18.792ZM24.088 18.0838C24.0882 18.0025 24.0884 17.9212 24.0886 17.84L22.0886 17.8348C22.0884 17.9161 22.0882 17.9975 22.088 18.0788L24.088 18.0838ZM24.0886 17.8399C24.0896 17.457 24.0903 17.0741 24.0907 16.6911L22.0907 16.6889C22.0903 17.0709 22.0896 17.4528 22.0886 17.8349L24.0886 17.8399ZM24.0907 16.6912C24.0912 16.2526 24.0925 15.8139 24.0946 15.3752L22.0946 15.3659C22.0926 15.8068 22.0912 16.2478 22.0907 16.6889L24.0907 16.6912ZM24.0946 15.375C24.0961 15.0326 24.0969 14.6903 24.097 14.3483L22.097 14.3473C22.0969 14.6871 22.0961 15.0267 22.0946 15.3661L24.0946 15.375ZM24.097 14.3484C24.0971 14.1462 24.0976 13.9452 24.0988 13.7447L22.0989 13.7321C22.0976 13.9379 22.0971 14.1431 22.097 14.3472L24.097 14.3484ZM24.0988 13.7446C24.1 13.5496 24.1002 13.355 24.0997 13.161L22.0997 13.1663C22.1002 13.3555 22.1 13.544 22.0989 13.7322L24.0988 13.7446ZM24.0997 13.1633C24.0997 13.0665 24.1006 12.9688 24.1016 12.8659L22.1017 12.8463C22.1007 12.9485 22.0997 13.0557 22.0997 13.164L24.0997 13.1633ZM24.1016 12.8505C24.0946 11.5781 23.6037 10.4368 22.7391 9.53709L21.297 10.9229C21.8237 11.4709 22.0976 12.1265 22.1017 12.8616L24.1016 12.8505ZM22.7165 9.5143C22.3498 9.15645 21.9572 8.8907 21.5329 8.67124L20.6141 10.4477C20.8933 10.5921 21.117 10.7479 21.3197 10.9456L22.7165 9.5143ZM21.54 8.67492C21.51 8.65913 21.4801 8.64334 21.4493 8.62707L20.5163 10.3962C20.5472 10.4124 20.5771 10.4282 20.6071 10.444L21.54 8.67492ZM21.4214 8.61295C20.6551 8.23893 19.8878 8.14155 19.1524 8.14621L19.1651 10.1462C19.7115 10.1427 20.1453 10.2156 20.5442 10.4103L21.4214 8.61295ZM19.1626 8.1462C19.0926 8.14593 19.0226 8.14558 18.9526 8.14514L18.9402 10.1451C19.0117 10.1455 19.0833 10.1459 19.1548 10.1462L19.1626 8.1462ZM18.9512 8.14514C18.7573 8.14421 18.5643 8.14456 18.3738 8.14521L18.3806 10.1452C18.5695 10.1446 18.756 10.1442 18.9416 10.1451L18.9512 8.14514ZM18.3746 8.1452C18.177 8.14571 17.9796 8.14524 17.7782 8.14492L17.7751 10.1449C17.974 10.1452 18.1769 10.1457 18.3797 10.1452L18.3746 8.1452ZM17.7777 8.14492C17.4401 8.14456 17.1027 8.14504 16.7658 8.146L16.7715 10.146C17.1066 10.145 17.4412 10.1446 17.7755 10.1449L17.7777 8.14492ZM16.7658 8.146C16.3819 8.14709 15.9976 8.14674 15.6125 8.14563L15.6067 10.1456C15.9943 10.1467 16.3827 10.1471 16.7715 10.146L16.7658 8.146ZM15.6124 8.14563C15.2769 8.14471 14.9415 8.14459 14.6063 8.14512L14.6095 10.1451C14.9421 10.1446 15.2745 10.1447 15.6069 10.1456L15.6124 8.14563ZM14.6063 8.14512C14.4086 8.14543 14.212 8.14548 14.0159 8.14481L14.0091 10.1448C14.2099 10.1455 14.4102 10.1454 14.6095 10.1451L14.6063 8.14512ZM14.0154 8.14481C12.692 8.14094 11.2362 8.1972 9.91407 9.38548L11.251 10.873C11.9676 10.229 12.7265 10.141 14.0096 10.1448L14.0154 8.14481ZM17.6112 13.1992C17.6571 13.2209 17.7031 13.2426 17.7504 13.265L18.6045 11.4565C18.5572 11.4342 18.5113 11.4125 18.4654 11.3908L17.6112 13.1992ZM17.7267 13.2534C18.4268 13.6069 18.9553 14.2417 19.2216 15.0226L21.1146 14.3771C20.6952 13.1475 19.8369 12.0784 18.6281 11.4681L17.7267 13.2534ZM19.2096 14.9849C19.4678 15.8532 19.4154 16.7012 19.0265 17.4441L20.7984 18.3716C21.4623 17.1035 21.5113 15.7083 21.1266 14.4148L19.2096 14.9849ZM19.0365 17.4255C18.5803 18.2541 17.9079 18.7857 16.9889 19.0582L17.5575 20.9757C18.9645 20.5584 20.0704 19.6944 20.7885 18.3902L19.0365 17.4255ZM17.0285 19.0473C16.4337 19.1974 15.7691 19.1667 15.2084 18.9614L14.5207 20.8395C15.4719 21.1878 16.5473 21.2315 17.5179 20.9865L17.0285 19.0473ZM15.1871 18.9539C15.1353 18.9363 15.0835 18.9186 15.0301 18.9004L14.385 20.7935C14.4384 20.8117 14.4902 20.8293 14.542 20.847L15.1871 18.9539ZM15.0578 18.9103C14.356 18.6478 13.7274 18.0577 13.4086 17.3656L11.5921 18.2025C12.126 19.3614 13.1488 20.3317 14.3573 20.7836L15.0578 18.9103ZM13.4199 17.3911C13.0622 16.5539 13.0114 15.6518 13.3173 14.8736L11.456 14.1418C10.9265 15.4885 11.0526 16.941 11.5808 18.177L13.4199 17.3911ZM13.3073 14.8982C13.653 14.0832 14.2439 13.4514 15.0084 13.1193L14.2115 11.2849C12.9221 11.845 11.9875 12.888 11.4661 14.1171L13.3073 14.8982ZM14.9764 13.1325C15.8619 12.7837 16.7904 12.7976 17.5987 13.1932L18.4779 11.3968C17.1156 10.7301 15.5979 10.7381 14.2434 11.2717L14.9764 13.1325ZM13.3739 13.4389C12.778 14.195 12.2783 15.1818 12.4096 16.3827L14.3977 16.1654C14.3451 15.684 14.5241 15.2105 14.9447 14.6769L13.3739 13.4389ZM12.4196 16.4522C12.6071 17.4875 13.0667 18.4829 14.0745 19.1894L15.2225 17.5517C14.7636 17.23 14.5103 16.7733 14.3876 16.0958L12.4196 16.4522ZM14.1336 19.2278C15.0059 19.7517 15.9885 20.0038 17.0873 19.7668L16.6657 17.8117C16.1539 17.9221 15.6862 17.8273 15.1633 17.5133L14.1336 19.2278ZM17.1505 19.751C18.1942 19.4536 19.0632 18.8443 19.6311 17.8405L17.8903 16.8557C17.6109 17.3496 17.2018 17.6568 16.6025 17.8275L17.1505 19.751ZM19.6553 17.7949C20.0959 16.913 20.2272 15.824 19.915 14.8288L18.0067 15.4275C18.1502 15.8848 18.0966 16.4398 17.8661 16.9012L19.6553 17.7949ZM19.8867 14.7504C19.844 14.6456 19.7976 14.5396 19.7471 14.4335L17.9416 15.294C17.9739 15.3618 18.0049 15.4324 18.0349 15.506L19.8867 14.7504ZM19.7566 14.4542C19.739 14.4148 19.7213 14.3755 19.7031 14.335L17.8785 15.1541C17.8967 15.1946 17.9144 15.234 17.9321 15.2733L19.7566 14.4542ZM19.6858 14.2985C19.2218 13.3675 18.3898 12.6955 17.4729 12.3624L16.7902 14.2423C17.2799 14.4202 17.6854 14.7684 17.8958 15.1906L19.6858 14.2985ZM17.415 12.3434C16.073 11.9467 14.4542 12.2484 13.4198 13.3847L14.8988 14.731C15.3422 14.2439 16.1281 14.0485 16.8481 14.2613L17.415 12.3434ZM20.7732 11.2992C20.8812 11.4131 20.8919 11.4827 20.8928 11.5066L22.8915 11.4339C22.8682 10.7945 22.5667 10.2837 22.224 9.92254L20.7732 11.2992ZM20.8946 11.4C20.8871 11.5066 20.8738 11.5295 20.8776 11.5209C20.8795 11.5164 20.8816 11.5135 20.8809 11.5145C20.8794 11.5164 20.8704 11.5283 20.8464 11.5502L22.1949 13.0272C22.4104 12.8304 22.5885 12.6008 22.7109 12.3202C22.8297 12.0478 22.8728 11.7795 22.8897 11.5405L20.8946 11.4ZM20.8761 11.5241C20.8511 11.5452 20.838 11.5525 20.8354 11.5539C20.8337 11.5548 20.8337 11.5549 20.8312 11.5555C20.8203 11.5585 20.7744 11.5688 20.6264 11.5661L20.5895 13.5658C20.8082 13.5698 21.0758 13.562 21.3581 13.4849C21.6575 13.4031 21.9218 13.2584 22.1651 13.0533L20.8761 11.5241ZM20.7329 11.5738C20.7329 11.5738 20.7396 11.5748 20.7497 11.5786C20.7596 11.5822 20.765 11.5857 20.7645 11.5854C20.7631 11.5845 20.7535 11.578 20.7345 11.5606C20.715 11.5428 20.6892 11.5167 20.6541 11.4775L19.163 12.8104C19.4226 13.1008 19.8269 13.4755 20.483 13.5581L20.7329 11.5738ZM20.7245 11.5658C20.7048 11.538 20.6968 11.5216 20.6939 11.5149C20.6913 11.509 20.6901 11.5049 20.6889 11.499C20.686 11.4839 20.6793 11.434 20.6945 11.2985L18.707 11.0754C18.6486 11.5958 18.6856 12.1476 19.0926 12.722L20.7245 11.5658ZM20.6594 11.4715C20.6658 11.4499 20.6708 11.4396 20.6723 11.4365C20.6737 11.4338 20.6741 11.4333 20.6747 11.4326C20.6755 11.4316 20.6931 11.4088 20.7628 11.3618L19.6462 9.70254C19.2392 9.97647 18.909 10.3401 18.7421 10.9024L20.6594 11.4715ZM20.6553 11.4248C20.704 11.4002 20.7347 11.3915 20.7499 11.3882C20.7639 11.3852 20.7725 11.3851 20.7803 11.3857C20.7965 11.387 20.8595 11.3961 20.996 11.4754L22.0011 9.74632C21.7013 9.57206 21.3481 9.42517 20.9418 9.39226C20.5231 9.35836 20.1258 9.45164 19.7537 9.63954L20.6553 11.4248ZM13.3091 13.5924C13.3348 13.6053 13.3084 13.592 13.3341 13.6049C13.3404 13.608 13.3528 13.6142 13.3591 13.6174C13.4147 13.6452 13.354 13.6148 13.4099 13.6428L14.3042 11.8539C14.2483 11.8259 14.3089 11.8562 14.2534 11.8285C14.2297 11.8167 14.2708 11.8372 14.2471 11.8254C14.2343 11.819 14.2537 11.8286 14.2409 11.8222C14.2343 11.8189 14.2349 11.8193 14.2284 11.816C14.2153 11.8094 14.2165 11.81 14.2034 11.8035L13.3091 13.5924ZM13.15 12.0412C13.1163 12.0748 13.1704 12.0207 13.1367 12.0544C13.1228 12.0684 13.1375 12.0537 13.1235 12.0676C13.094 12.0971 13.1265 12.0646 13.097 12.0941C13.0475 12.1436 13.0935 12.0977 13.044 12.1471C13.026 12.1651 13.0355 12.1557 13.0175 12.1736C12.9675 12.2236 13.0542 12.1369 13.0042 12.1869C12.9951 12.196 13.0001 12.1911 12.991 12.2001C12.989 12.2021 12.9398 12.2513 12.9379 12.2532C12.9213 12.2698 12.9412 12.2499 12.9246 12.2665C12.9202 12.2709 12.9158 12.2753 12.9113 12.2798C12.8934 12.2977 12.9027 12.2884 12.8848 12.3063C12.8762 12.3149 12.8402 12.3509 12.8316 12.3595C12.8309 12.3602 12.8256 12.3654 12.8249 12.3661C12.8244 12.3667 12.8238 12.3672 12.8233 12.3678C12.8227 12.3684 12.8222 12.3689 12.8216 12.3695C12.8214 12.3696 12.8185 12.3726 12.8183 12.3728C12.7687 12.4223 12.8545 12.3366 12.805 12.3861C12.7691 12.422 12.8276 12.3635 12.7917 12.3994C12.7852 12.4059 12.7848 12.4063 12.7783 12.4127C12.7164 12.4747 12.787 12.4041 12.725 12.4661C12.5822 12.6089 12.4396 12.7514 12.2936 12.8974L13.7077 14.3117C13.8535 14.166 13.9965 14.023 14.1391 13.8804C14.2437 13.7758 14.4605 13.559 14.5641 13.4555L13.15 12.0412ZM14.0006 13.6046C14.0006 13.6249 13.9983 13.6781 13.9777 13.7491C13.9559 13.8244 13.9229 13.8871 13.8917 13.9328C13.8664 13.9701 13.8472 13.988 13.8657 13.9686C13.8748 13.9589 13.8837 13.9498 13.9035 13.9294C13.921 13.9114 13.944 13.8876 13.9692 13.8605L12.5043 12.4987C12.4593 12.5472 12.4819 12.5212 12.4135 12.5933C12.3743 12.6348 12.305 12.7095 12.2385 12.8072C12.072 13.0518 12.0006 13.3208 12.0006 13.6046H14.0006ZM13.9732 13.8561C14.0171 13.8084 14.0609 13.7606 14.1061 13.7115L12.6331 12.3585C12.588 12.4077 12.5441 12.4554 12.5003 12.5031L13.9732 13.8561ZM14.0787 13.7401C14.1654 13.6529 14.2557 13.5746 14.3624 13.4934L13.1502 11.9026C12.9801 12.0322 12.8194 12.1701 12.6605 12.3299L14.0787 13.7401ZM3.98939 4.02267C3.99486 4.02541 3.99638 4.02617 4.00186 4.02891C4.00898 4.03247 4.00098 4.02847 4.0081 4.03203C4.00884 4.0324 4.00892 4.03244 4.00966 4.03281C4.01472 4.03534 4.00538 4.03067 4.01044 4.0332C4.0105 4.03323 4.01057 4.03326 4.01063 4.03329C4.0107 4.03333 4.01076 4.03336 4.01083 4.03339C4.01089 4.03342 4.01096 4.03346 4.01102 4.03349C4.01109 4.03352 4.01115 4.03355 4.01122 4.03359C4.01771 4.03683 4.00784 4.0319 4.01434 4.03515C4.01934 4.03765 4.03434 4.04515 4.03939 4.04767C4.10046 4.0782 4.02869 4.04232 4.09014 4.07304L4.98443 2.28412C4.98375 2.28378 4.9835 2.28365 4.98282 2.28331C4.98178 2.28279 4.98306 2.28343 4.98202 2.28291C4.98196 2.28288 4.98189 2.28285 4.98182 2.28281C4.98175 2.28278 4.98169 2.28275 4.98162 2.28271C4.98117 2.28248 4.98168 2.28274 4.98122 2.28251C4.98068 2.28224 4.98096 2.28238 4.98042 2.28211C4.98012 2.28196 4.97992 2.28186 4.97962 2.28171C4.97961 2.28171 4.97803 2.28092 4.97802 2.28091C4.97023 2.27702 4.97941 2.28161 4.97163 2.27772C4.95505 2.26943 4.97546 2.27963 4.95891 2.27136C4.93578 2.2598 4.96937 2.27659 4.94626 2.26504C4.93514 2.25948 4.94478 2.26429 4.93367 2.25874C4.90181 2.24281 4.94044 2.26213 4.90863 2.24622C4.90387 2.24384 4.9009 2.24236 4.89615 2.23998C4.88021 2.23201 4.89961 2.24172 4.88368 2.23375L3.98939 4.02267ZM3.83025 2.4714C3.82311 2.47854 3.82258 2.47907 3.81544 2.48621C3.80207 2.49957 3.82141 2.48024 3.80804 2.49361C3.80742 2.49422 3.8068 2.49484 3.80619 2.49546C3.80557 2.49607 3.80495 2.49669 3.80434 2.49731C3.80372 2.49792 3.8031 2.49854 3.80249 2.49916C3.80187 2.49978 3.80125 2.50039 3.80064 2.50101C3.79044 2.5112 3.78122 2.52042 3.77102 2.53062C3.71684 2.58479 3.76597 2.53566 3.71178 2.58985C3.67448 2.62714 3.68983 2.6118 3.65251 2.6491C3.59376 2.70785 3.65197 2.64964 3.5932 2.7084C3.57357 2.72802 3.55348 2.74812 3.53383 2.76776C3.5108 2.79079 3.52717 2.77442 3.50412 2.79746C3.50152 2.80006 3.50301 2.79857 3.50041 2.80118C3.49865 2.80293 3.49845 2.80313 3.49669 2.80489C3.49338 2.80821 3.4963 2.80529 3.49298 2.8086C3.49236 2.80922 3.49174 2.80984 3.49112 2.81046C3.4905 2.81108 3.48988 2.8117 3.48926 2.81232C3.47802 2.82356 3.48564 2.81595 3.4744 2.82718C3.44425 2.85732 3.44505 2.85652 3.41488 2.88669C3.34233 2.95922 3.42783 2.87374 3.35526 2.9463C3.30609 2.99546 3.285 3.01654 3.23567 3.06587C3.22249 3.07904 3.18889 3.11263 3.17567 3.12585C3.15662 3.14489 3.13462 3.1669 3.11552 3.18599C3.05618 3.24532 2.93347 3.36801 2.87309 3.42838L4.28716 4.84273C4.34769 4.78221 4.47011 4.65982 4.52959 4.60035C4.56916 4.56079 4.52014 4.6098 4.55969 4.57025C4.58579 4.54416 4.54862 4.58132 4.57472 4.55522C4.57726 4.55268 4.57594 4.55401 4.57848 4.55147C4.5791 4.55084 4.57973 4.55022 4.58036 4.54959C4.58098 4.54897 4.58161 4.54834 4.58223 4.54771C4.58286 4.54709 4.58349 4.54646 4.58411 4.54584C4.58474 4.54521 4.58536 4.54458 4.58599 4.54396C4.59008 4.53987 4.58565 4.5443 4.58974 4.5402C4.61657 4.51339 4.62297 4.50699 4.64974 4.48022C4.71383 4.41614 4.64556 4.4844 4.7096 4.42037C4.72928 4.4007 4.74969 4.38029 4.76933 4.36065C4.84232 4.28768 4.756 4.37398 4.82895 4.30105C4.84005 4.28995 4.83274 4.29725 4.84384 4.28616C4.8448 4.2852 4.85032 4.27968 4.85128 4.27872C4.87079 4.25921 4.83921 4.29078 4.85872 4.27128C4.89605 4.23396 4.85115 4.27885 4.88847 4.24154C4.93487 4.19514 4.8718 4.2582 4.9182 4.21181C4.92372 4.20629 4.94239 4.18762 4.94791 4.18211C4.94853 4.18149 4.94915 4.18087 4.94976 4.18025C4.95038 4.17964 4.951 4.17902 4.95162 4.1784C4.95224 4.17778 4.95286 4.17716 4.95348 4.17654C4.9541 4.17592 4.95471 4.17531 4.95533 4.17469C4.96269 4.16733 4.9554 4.17462 4.96276 4.16727C4.97238 4.15764 4.96798 4.16205 4.9776 4.15242C4.99437 4.13566 4.97567 4.15435 4.99244 4.13759C5.00493 4.1251 4.99479 4.13524 5.00728 4.12275C5.01219 4.11784 5.0172 4.11284 5.02211 4.10793C5.02714 4.10289 5.0319 4.09813 5.03694 4.0931C5.03989 4.09015 5.04881 4.08123 5.05176 4.07828C5.05826 4.07178 5.06009 4.06995 5.06659 4.06346C5.09151 4.03854 5.05649 4.07355 5.08141 4.04864C5.08202 4.04802 5.08264 4.0474 5.08326 4.04679C5.08388 4.04617 5.08449 4.04555 5.08511 4.04493C5.08812 4.04193 5.08581 4.04423 5.08882 4.04123C5.09735 4.0327 5.08769 4.04235 5.09623 4.03382C5.10003 4.03002 5.12205 4.008 5.12586 4.0042C5.16476 3.9653 5.20543 3.92463 5.24432 3.88575L3.83025 2.4714ZM4.02727 3.24109C4.02179 3.23835 4.02028 3.2376 4.0148 3.23486C4.00768 3.2313 4.01568 3.2353 4.00856 3.23174C4.00749 3.23121 4.0065 3.23071 4.00544 3.23018C3.99894 3.22693 4.00881 3.23186 4.00231 3.22862C3.94354 3.19924 4.03609 3.2455 3.97727 3.2161C3.96048 3.2077 3.9689 3.21191 3.95203 3.20348C3.91621 3.18557 3.96244 3.20869 3.92651 3.19072L3.03223 4.97965C3.06233 4.9947 3.10389 5.01547 3.13298 5.03002L4.02727 3.24109ZM4.23404 4.74129C4.46921 4.47079 4.67327 4.25182 4.89702 4.06381L3.61042 2.53259C3.26395 2.8237 2.97766 3.13812 2.7247 3.42908L4.23404 4.74129ZM4.88846 4.07093C5.01011 3.971 5.03762 3.94461 5.15384 3.82497L3.71922 2.43145C3.69414 2.45728 3.68008 2.47174 3.6694 2.48253C3.6598 2.49223 3.65877 2.49302 3.66128 2.49069C3.66464 2.48756 3.66608 2.48647 3.6609 2.49085C3.65329 2.49726 3.64271 2.50598 3.61898 2.52547L4.88846 4.07093ZM19.7574 11.4266C19.7817 11.4388 19.7829 11.4394 19.8074 11.4516C19.8319 11.4639 19.8332 11.4646 19.8581 11.477L20.7524 9.68808C20.6965 9.66014 20.7572 9.69046 20.7017 9.66271C20.6787 9.65125 20.712 9.66789 20.6891 9.65644C20.6875 9.65561 20.6783 9.65101 20.6766 9.65019C20.6503 9.63703 20.6967 9.66023 20.6704 9.64707C20.6405 9.63213 20.694 9.65889 20.6641 9.64395C20.6575 9.64063 20.6583 9.64103 20.6517 9.63771L19.7574 11.4266ZM19.5982 9.87537C19.5679 9.90565 19.4041 10.0695 19.3732 10.1003C19.3089 10.1646 19.2109 10.2627 19.1448 10.3287L20.5589 11.743C20.5828 11.7192 20.564 11.738 20.5878 11.7142C20.6313 11.6707 20.5478 11.7541 20.5914 11.7106C20.593 11.709 20.5934 11.7086 20.595 11.707C20.5977 11.7042 20.5994 11.7025 20.6022 11.6998C20.6204 11.6815 20.5911 11.7109 20.6093 11.6926C20.6115 11.6905 20.6144 11.6876 20.6165 11.6854C20.6596 11.6424 20.6308 11.6712 20.6738 11.6282C20.7495 11.5525 20.712 11.59 20.7873 11.5147C20.8408 11.4612 20.8467 11.4553 20.9 11.402C20.9237 11.3783 20.9326 11.3694 20.9562 11.3458C20.966 11.336 20.9605 11.3416 20.9702 11.3318C20.9722 11.3298 20.9753 11.3267 20.9772 11.3248C20.9804 11.3217 20.9776 11.3244 20.9808 11.3213C20.9827 11.3193 20.9823 11.3197 20.9843 11.3178C21.0129 11.2892 20.9697 11.3323 20.9983 11.3037C21.0029 11.2991 21.0077 11.2943 21.0123 11.2897L19.5982 9.87537ZM20.8519 11.0358C20.8519 11.0674 20.8476 11.1224 20.8269 11.1898C20.8057 11.2585 20.7761 11.3121 20.7524 11.347C20.7329 11.3757 20.7202 11.3874 20.7394 11.3667C20.7488 11.3565 20.7589 11.3458 20.7779 11.3258C20.795 11.3077 20.8177 11.2837 20.8422 11.2569L19.3653 9.9082C19.3542 9.92045 19.3423 9.93309 19.3261 9.95021C19.3118 9.96525 19.29 9.98819 19.269 10.0109C19.2276 10.0558 19.1608 10.1304 19.0963 10.2257C18.9401 10.4565 18.8519 10.7257 18.8519 11.0358H20.8519ZM20.5509 11.477C20.5757 11.4646 20.576 11.4645 20.6009 11.452C20.6254 11.4398 20.6268 11.4391 20.6517 11.4266L19.7574 9.63771C19.7015 9.66567 19.7622 9.63532 19.7066 9.66309C19.6843 9.67425 19.7164 9.6582 19.6941 9.66935C19.6922 9.67028 19.6834 9.67469 19.6816 9.67561C19.6688 9.68201 19.6819 9.67544 19.6691 9.68185C19.6401 9.69634 19.6856 9.67359 19.6566 9.68808L20.5509 11.477Z" fill="#EEEEEE" mask="url(#path-1-outside-1_389_4166)"/>
</g>
<defs>
<filter id="filter0_d_389_4166" x="0.25" y="0" width="35" height="35" filterUnits="userSpaceOnUse" color-interpolation-filters="sRGB">
<feFlood flood-opacity="0" result="BackgroundImageFix"/>
<feColorMatrix in="SourceAlpha" type="matrix" values="0 0 0 0 0 0 0 0 0 0 0 0 0 0 0 0 0 0 127 0" result="hardAlpha"/>
<feOffset dx="1.5" dy="1.5"/>
<feGaussianBlur stdDeviation="0.75"/>
<feComposite in2="hardAlpha" operator="out"/>
<feColorMatrix type="matrix" values="0 0 0 0 0.0666667 0 0 0 0 0.0666667 0 0 0 0 0.0666667 0 0 0 1 0"/>
<feBlend mode="normal" in2="BackgroundImageFix" result="effect1_dropShadow_389_4166"/>
<feBlend mode="normal" in="SourceGraphic" in2="effect1_dropShadow_389_4166" result="shape"/>
</filter>
</defs>
</svg>
