<svg width="36" height="36" viewBox="0 0 36 36" fill="none" xmlns="http://www.w3.org/2000/svg">
<g filter="url(#filter0_d_389_4166)">
<mask id="path-1-outside-1_389_4166" maskUnits="userSpaceOnUse" x="0.507568" y="0.677246" width="32" height="32" fill="black">
<rect fill="white" x="0.507568" y="0.677246" width="32" height="32"/>
<path d="M11.6337 1.68272C11.7513 1.68257 11.869 1.6824 11.9866 1.68221C12.3035 1.68177 12.6205 1.68165 12.9375 1.68161C13.1698 1.68157 13.4021 1.68143 13.6344 1.68127C14.2607 1.68085 14.887 1.68066 15.5134 1.6807C15.5665 1.6807 15.5665 1.6807 15.6207 1.68071C15.6738 1.68071 15.6738 1.68071 15.7281 1.68071C16.3016 1.68073 16.8752 1.68025 17.4487 1.67954C18.0409 1.67881 18.6331 1.67847 19.2253 1.67851C19.5564 1.67853 19.8876 1.67839 20.2187 1.67785C20.5307 1.67736 20.8426 1.67736 21.1546 1.67772C21.2679 1.67778 21.3812 1.67766 21.4946 1.67735C22.0896 1.67584 22.6805 1.69022 23.2741 1.73389C23.3532 1.73955 23.3532 1.73955 23.4338 1.74532C23.9675 1.7886 24.4808 1.89965 24.996 2.04261C25.0306 2.05214 25.0651 2.06168 25.1007 2.07151C26.4779 2.46438 27.6911 3.22842 28.7239 4.20839C28.7477 4.23084 28.7716 4.25329 28.7961 4.27642C30.4493 5.84372 31.402 8.08735 31.4946 10.3532C31.5041 10.7626 31.5021 11.1721 31.502 11.5816C31.5021 11.705 31.5023 11.8285 31.5025 11.9519C31.5029 12.251 31.503 12.5501 31.5031 12.8491C31.5031 13.0927 31.5032 13.3362 31.5033 13.5797C31.5038 14.2726 31.504 14.9654 31.504 15.6583C31.504 15.7141 31.504 15.7141 31.504 15.7711C31.504 15.827 31.504 15.827 31.504 15.8841C31.504 16.4875 31.5044 17.0909 31.5051 17.6943C31.5059 18.3163 31.5062 18.9382 31.5062 19.5601C31.5062 19.9084 31.5063 20.2566 31.5068 20.6048C31.5074 20.9327 31.5073 21.2606 31.507 21.5885C31.5069 21.708 31.507 21.8275 31.5073 21.947C31.5095 22.8531 31.5008 23.7754 31.2837 24.6606C31.2728 24.7061 31.2619 24.7516 31.2506 24.7985C30.9604 25.9668 30.466 27.0731 29.7315 28.032C29.6991 28.0749 29.6668 28.1177 29.6335 28.1619C28.1748 30.0394 26.054 31.3014 23.6862 31.6081C23.3307 31.6515 22.9805 31.6659 22.6225 31.6655C22.5683 31.6657 22.5142 31.6658 22.4584 31.666C22.278 31.6664 22.0977 31.6665 21.9174 31.6666C21.7876 31.6668 21.6578 31.6671 21.528 31.6673C21.176 31.668 20.8241 31.6683 20.4721 31.6685C20.2518 31.6687 20.0315 31.6689 19.8112 31.6691C19.1997 31.6697 18.5882 31.6703 17.9767 31.6704C17.9181 31.6704 17.9181 31.6704 17.8583 31.6705C17.8191 31.6705 17.78 31.6705 17.7396 31.6705C17.6603 31.6705 17.581 31.6705 17.5016 31.6706C17.4426 31.6706 17.4426 31.6706 17.3824 31.6706C16.7461 31.6708 16.1099 31.6717 15.4736 31.6728C14.8184 31.674 14.1631 31.6747 13.5079 31.6747C13.1408 31.6748 12.7738 31.6751 12.4067 31.676C12.0608 31.6768 11.715 31.6769 11.3691 31.6765C11.243 31.6764 11.1169 31.6767 10.9908 31.6772C8.30535 31.6872 5.95871 30.8363 4.02975 28.9449C2.42491 27.3275 1.51002 25.011 1.51362 22.7421C1.5135 22.6884 1.51339 22.6347 1.51327 22.5794C1.51295 22.4007 1.51299 22.2221 1.51303 22.0434C1.51288 21.9148 1.51271 21.7861 1.51252 21.6575C1.51212 21.3451 1.51196 21.0326 1.51194 20.7201C1.51191 20.4658 1.51181 20.2115 1.51165 19.9572C1.5112 19.2345 1.51097 18.5119 1.51101 17.7892C1.51101 17.7503 1.51101 17.7114 1.51102 17.6713C1.51102 17.6324 1.51102 17.5934 1.51102 17.5533C1.51104 16.9231 1.51056 16.2928 1.50985 15.6626C1.50912 15.0139 1.50878 14.3651 1.50882 13.7164C1.50884 13.3528 1.5087 12.9892 1.50816 12.6257C1.50765 12.2834 1.50767 11.9411 1.50803 11.5988C1.50809 11.4737 1.50797 11.3487 1.50766 11.2237C1.5056 10.3232 1.53567 9.44977 1.75334 8.57144C1.76641 8.51829 1.77948 8.46514 1.79295 8.41038C2.15327 7.00597 2.86392 5.68424 3.86918 4.6373C3.99015 4.51269 3.99015 4.51269 4.09489 4.37779C4.2411 4.19544 4.41396 4.0552 4.59335 3.90619C4.63384 3.87232 4.63384 3.87232 4.67516 3.83777C5.09869 3.48517 5.52347 3.17104 6.0039 2.89885C6.06053 2.86587 6.11715 2.83288 6.1755 2.7989C7.87486 1.83281 9.72134 1.68223 11.6337 1.68272ZM8.34328 3.2829C8.30045 3.29557 8.25762 3.30824 8.21349 3.3213C7.45676 3.55528 6.74653 3.89552 6.10465 4.3595C6.07654 4.37958 6.04842 4.39967 6.01945 4.42036C4.41689 5.57962 3.33488 7.25985 2.93091 9.19474C2.92216 9.23449 2.91341 9.27425 2.90439 9.31521C2.79028 9.92485 2.81564 10.5447 2.81632 11.1624C2.8161 11.2955 2.81584 11.4286 2.81554 11.5617C2.8149 11.8846 2.8148 12.2074 2.81492 12.5303C2.81501 12.793 2.81492 13.0557 2.81471 13.3185C2.81468 13.356 2.81465 13.3935 2.81462 13.4322C2.81456 13.5085 2.8145 13.5848 2.81443 13.661C2.81389 14.3749 2.81399 15.0888 2.8143 15.8026C2.81456 16.4539 2.814 17.1051 2.81304 17.7564C2.81206 18.427 2.81165 19.0976 2.81184 19.7682C2.81193 20.1439 2.81181 20.5196 2.81109 20.8953C2.81049 21.2153 2.81043 21.5352 2.81103 21.8551C2.81133 22.018 2.81131 22.1808 2.81078 22.3436C2.80813 23.2273 2.85153 24.0671 3.11982 24.9156C3.13275 24.9573 3.14569 24.999 3.15902 25.0419C3.78911 27.0148 5.18593 28.5838 7.00136 29.5523C8.28319 30.212 9.57981 30.38 11.0057 30.3742C11.14 30.3744 11.2743 30.3747 11.4086 30.375C11.7325 30.3757 12.0564 30.3753 12.3804 30.3746C12.7589 30.3737 13.1374 30.3739 13.5159 30.3741C14.1917 30.3744 14.8676 30.3737 15.5435 30.3724C16.1971 30.3712 16.8507 30.3709 17.5044 30.3714C18.2191 30.372 18.9338 30.3721 19.6485 30.3713C19.7248 30.3713 19.8012 30.3712 19.8776 30.3711C19.9152 30.3711 19.9528 30.371 19.9915 30.371C20.2544 30.3707 20.5174 30.3708 20.7803 30.3711C21.1012 30.3713 21.422 30.371 21.7429 30.37C21.9061 30.3695 22.0694 30.3693 22.2326 30.3696C22.9191 30.3708 23.5694 30.3529 24.2404 30.1978C24.289 30.1867 24.3375 30.1756 24.3876 30.1642C25.6444 29.8636 26.7817 29.2167 27.7164 28.3342C27.778 28.2824 27.8399 28.231 27.9021 28.18C28.8716 27.3479 29.5154 26.0751 29.892 24.8778C29.904 24.8409 29.916 24.8041 29.9284 24.7661C30.1966 23.8725 30.2071 22.9521 30.2052 22.0275C30.2055 21.8978 30.2058 21.7681 30.2062 21.6384C30.2071 21.3252 30.2072 21.012 30.2069 20.6987C30.2067 20.4436 30.2068 20.1885 30.207 19.9334C30.2071 19.8969 30.2071 19.8603 30.2071 19.8227C30.2072 19.7484 30.2073 19.674 30.2074 19.5997C30.2081 18.9056 30.2078 18.2115 30.2072 17.5175C30.2067 16.8853 30.2074 16.2532 30.2086 15.6211C30.2098 14.9688 30.2103 14.3165 30.2099 13.6642C30.2098 13.2993 30.2099 12.9344 30.2108 12.5695C30.2116 12.226 30.2113 11.8826 30.2104 11.5391C30.2102 11.414 30.2104 11.289 30.2109 11.1639C30.2168 9.66072 29.9759 8.24765 29.2277 6.92822C29.2088 6.89481 29.1899 6.86139 29.1704 6.82697C28.8728 6.30895 28.5257 5.85442 28.1194 5.4172C28.0962 5.39209 28.073 5.36697 28.0491 5.34109C26.7632 3.96234 24.8391 3.06291 22.9505 2.99486C22.81 2.99286 22.6696 2.99238 22.5291 2.99251C22.449 2.99229 22.449 2.99229 22.3673 2.99206C22.1897 2.99162 22.012 2.99154 21.8343 2.99147C21.7064 2.99123 21.5785 2.99098 21.4506 2.99071C21.1039 2.99005 20.7571 2.98972 20.4104 2.9895C20.1934 2.98936 19.9763 2.98915 19.7593 2.98892C19.1569 2.98831 18.5545 2.98779 17.9521 2.98762C17.8944 2.9876 17.8944 2.9876 17.8355 2.98758C17.7969 2.98757 17.7584 2.98756 17.7186 2.98755C17.6405 2.98753 17.5623 2.98751 17.4842 2.98748C17.4454 2.98747 17.4067 2.98746 17.3668 2.98745C16.7399 2.98725 16.1131 2.98637 15.4862 2.9852C14.8407 2.984 14.1952 2.98338 13.5497 2.98332C13.1881 2.98327 12.8264 2.98299 12.4648 2.98207C12.1241 2.9812 11.7834 2.98113 11.4428 2.98157C11.3185 2.98161 11.1942 2.9814 11.07 2.98089C10.1508 2.9774 9.22968 3.01448 8.34328 3.2829Z"/>
<path d="M13.5126 8.58222C13.5844 8.58198 13.6562 8.58173 13.728 8.58146C13.9223 8.5808 14.1167 8.58047 14.311 8.58025C14.4328 8.5801 14.5546 8.57989 14.6763 8.57967C15.0583 8.57898 15.4403 8.57849 15.8223 8.5783C16.2613 8.57807 16.7004 8.57719 17.1394 8.57573C17.48 8.57464 17.8206 8.57413 18.1611 8.57407C18.364 8.57401 18.5668 8.57372 18.7696 8.57282C18.9608 8.57198 19.152 8.57188 19.3432 8.57232C19.4455 8.57238 19.5478 8.57169 19.6501 8.57097C21.016 8.57707 22.245 9.12685 23.2234 10.073C24.1756 11.0592 24.6096 12.3075 24.6068 13.6617C24.6071 13.7345 24.6073 13.8073 24.6076 13.8801C24.6083 14.0763 24.6083 14.2724 24.6082 14.4686C24.6081 14.6332 24.6084 14.7977 24.6086 14.9623C24.6092 15.3511 24.6092 15.7398 24.6089 16.1286C24.6086 16.5277 24.6092 16.9268 24.6103 17.326C24.6112 17.6703 24.6115 18.0147 24.6113 18.359C24.6112 18.564 24.6114 18.7689 24.6121 18.9738C24.6127 19.1668 24.6126 19.3598 24.6119 19.5528C24.6118 19.623 24.612 19.6931 24.6124 19.7633C24.6201 21.154 24.1046 22.4064 23.1321 23.3983C22.0862 24.4219 20.7199 24.8153 19.2885 24.8167C19.2226 24.8169 19.1568 24.8172 19.089 24.8174C18.9094 24.8181 18.7298 24.8184 18.5502 24.8186C18.4375 24.8188 18.3248 24.819 18.2121 24.8192C17.858 24.8199 17.5039 24.8204 17.1498 24.8206C16.7438 24.8208 16.3378 24.8217 15.9318 24.8231C15.6162 24.8242 15.3007 24.8247 14.9851 24.8248C14.7974 24.8249 14.6098 24.8251 14.4222 24.8261C12.4492 24.8351 12.4492 24.8351 11.602 24.4969C11.543 24.4741 11.543 24.4741 11.4828 24.4509C10.8975 24.2167 10.4049 23.8645 9.9333 23.4486C9.88626 23.4079 9.88626 23.4079 9.83826 23.3664C8.88528 22.4824 8.45165 21.1875 8.37162 19.9229C8.35498 19.4651 8.3572 19.0069 8.35808 18.5489C8.35834 18.372 8.3581 18.1952 8.35794 18.0184C8.35776 17.7217 8.358 17.425 8.35848 17.1284C8.35903 16.788 8.35885 16.4476 8.3583 16.1071C8.35784 15.8121 8.35778 15.5171 8.35804 15.222C8.3582 15.047 8.35822 14.872 8.35789 14.697C8.35545 12.8585 8.56196 11.3375 9.89237 9.96598C10.8715 8.99392 12.1569 8.58325 13.5126 8.58222ZM10.8401 10.8065C10.7939 10.8456 10.7939 10.8456 10.7468 10.8856C10.0533 11.5156 9.70209 12.4617 9.63104 13.3752C9.62389 13.5923 9.62364 13.8093 9.62372 14.0266C9.62356 14.0904 9.62339 14.1543 9.62321 14.2201C9.62277 14.3941 9.62265 14.5681 9.62262 14.7421C9.62258 14.8512 9.62247 14.9603 9.62234 15.0693C9.62188 15.4509 9.62167 15.8324 9.62171 16.214C9.62174 16.568 9.62121 16.9219 9.62041 17.2759C9.61975 17.5812 9.61948 17.8865 9.61951 18.1918C9.61953 18.3736 9.61939 18.5553 9.61885 18.737C9.61827 18.9401 9.6185 19.1432 9.6188 19.3462C9.61852 19.4053 9.61824 19.4644 9.61795 19.5253C9.62179 20.5484 9.88114 21.4481 10.5378 22.2398C10.5698 22.2816 10.6019 22.3234 10.6348 22.3665C11.2345 23.0846 12.1531 23.4356 13.0567 23.5494C13.2869 23.5628 13.5163 23.5637 13.7469 23.5632C13.8131 23.5635 13.8792 23.5637 13.9474 23.564C14.1272 23.5646 14.307 23.5647 14.4867 23.5646C14.6377 23.5645 14.7886 23.5647 14.9396 23.565C15.2962 23.5655 15.6528 23.5656 16.0095 23.5653C16.3754 23.565 16.7412 23.5656 17.1071 23.5667C17.4231 23.5675 17.7391 23.5678 18.055 23.5677C18.2429 23.5676 18.4308 23.5677 18.6187 23.5684C18.8287 23.5692 19.0386 23.5687 19.2486 23.5681C19.3094 23.5685 19.3703 23.5689 19.433 23.5693C20.5564 23.5625 21.523 23.1802 22.326 22.3909C22.3577 22.3599 22.3893 22.329 22.4219 22.2971C22.9772 21.7091 23.3377 20.8798 23.341 20.07C23.3414 20.0084 23.3417 19.9468 23.3421 19.8834C23.3422 19.8156 23.3424 19.7478 23.3425 19.68C23.3428 19.6082 23.3431 19.5365 23.3435 19.4647C23.3446 19.2293 23.3451 18.994 23.3456 18.7586C23.3458 18.6773 23.346 18.5959 23.3462 18.5146C23.3472 18.1322 23.3479 17.7497 23.3483 17.3673C23.3488 16.9275 23.3501 16.4876 23.3522 16.0478C23.3537 15.7069 23.3544 15.366 23.3546 15.025C23.3547 14.8219 23.3551 14.6188 23.3564 14.4156C23.3576 14.2241 23.3578 14.0325 23.3573 13.8409C23.3573 13.7384 23.3582 13.6359 23.3592 13.5333C23.3536 12.5295 22.9713 11.6311 22.2757 10.9072C21.991 10.6294 21.6828 10.4186 21.3311 10.2367C21.3012 10.2209 21.2712 10.2051 21.2404 10.1889C20.6578 9.9045 20.0572 9.81938 19.4163 9.82344C19.3455 9.82317 19.2747 9.82281 19.204 9.82237C19.0142 9.82146 18.8245 9.8218 18.6347 9.82245C18.4346 9.82296 18.2344 9.82248 18.0342 9.82217C17.6982 9.8218 17.3622 9.82228 17.0262 9.82324C16.6399 9.82434 16.2535 9.82399 15.8672 9.82288C15.5333 9.82196 15.1994 9.82184 14.8655 9.82236C14.667 9.82267 14.4685 9.82272 14.2701 9.82205C12.9668 9.81824 11.8595 9.89032 10.8401 10.8065Z"/>
<path d="M18.2959 12.9723C18.3418 12.994 18.3877 13.0156 18.435 13.038C19.3894 13.5199 20.0828 14.3718 20.4257 15.3771C20.7472 16.458 20.6964 17.5796 20.17 18.5851C19.5829 19.6515 18.6938 20.3493 17.5308 20.6942C16.7481 20.8917 15.878 20.8545 15.1221 20.5777C15.0703 20.56 15.0185 20.5424 14.9651 20.5242C14.01 20.167 13.1843 19.3868 12.7579 18.4613C12.315 17.4247 12.2265 16.2474 12.6443 15.1849C13.0778 14.1629 13.8406 13.3254 14.8675 12.8793C15.9875 12.4382 17.2105 12.4411 18.2959 12.9723ZM14.4169 14.7351C13.9086 15.38 13.5693 16.1101 13.6612 16.9513C13.8163 17.8077 14.1728 18.5337 14.9061 19.0478C15.6036 19.4667 16.3288 19.6402 17.1341 19.4665C17.9556 19.2324 18.5946 18.7742 19.0183 18.0253C19.3538 17.3536 19.4463 16.5317 19.2184 15.8054C19.182 15.7162 19.1434 15.6279 19.1019 15.541C19.0842 15.5016 19.0666 15.4623 19.0484 15.4218C18.7112 14.7452 18.0924 14.2351 17.3891 13.9796C16.3581 13.6749 15.1557 13.9234 14.4169 14.7351Z"/>
<path d="M21.7561 11.2881C21.9815 11.5256 22.1376 11.8159 22.1497 12.1475C22.1254 12.4931 22.0368 12.7298 21.7782 12.966C21.4924 13.2069 21.2323 13.2499 20.8655 13.2432C20.5638 13.2052 20.3642 13.0427 20.1661 12.8212C19.9476 12.5127 19.9167 12.2347 19.9583 11.8642C20.046 11.5687 20.2057 11.3819 20.4621 11.2094C20.9237 10.9763 21.3198 11.0345 21.7561 11.2881Z"/>
<path d="M14.0138 13.3752C14.0471 13.3918 14.0803 13.4084 14.1146 13.4256C13.832 13.7081 13.5494 13.9907 13.2582 14.2818C13.2582 14.0694 13.3515 14.0105 13.4943 13.8568C13.5382 13.8091 13.582 13.7614 13.6272 13.7122C13.75 13.5887 13.8754 13.4807 14.0138 13.3752Z"/>
<path d="M4.6941 3.80546C4.72735 3.82208 4.7606 3.8387 4.79485 3.85582C4.47899 4.17163 4.16313 4.48743 3.83769 4.8128C3.80444 4.79618 3.77119 4.77956 3.73694 4.76243C3.981 4.4817 4.22618 4.21501 4.51129 3.97545C4.59884 3.90353 4.59884 3.90353 4.6941 3.80546Z"/>
<path d="M20.4621 11.2094C20.4953 11.226 20.5286 11.2427 20.5628 11.2598C20.4132 11.4094 20.2636 11.559 20.1095 11.7131C20.1095 11.496 20.2186 11.4161 20.3613 11.2598C20.3946 11.2432 20.4278 11.2265 20.4621 11.2094Z"/>
</mask>
<path d="M11.6337 1.68272C11.7513 1.68257 11.869 1.6824 11.9866 1.68221C12.3035 1.68177 12.6205 1.68165 12.9375 1.68161C13.1698 1.68157 13.4021 1.68143 13.6344 1.68127C14.2607 1.68085 14.887 1.68066 15.5134 1.6807C15.5665 1.6807 15.5665 1.6807 15.6207 1.68071C15.6738 1.68071 15.6738 1.68071 15.7281 1.68071C16.3016 1.68073 16.8752 1.68025 17.4487 1.67954C18.0409 1.67881 18.6331 1.67847 19.2253 1.67851C19.5564 1.67853 19.8876 1.67839 20.2187 1.67785C20.5307 1.67736 20.8426 1.67736 21.1546 1.67772C21.2679 1.67778 21.3812 1.67766 21.4946 1.67735C22.0896 1.67584 22.6805 1.69022 23.2741 1.73389C23.3532 1.73955 23.3532 1.73955 23.4338 1.74532C23.9675 1.7886 24.4808 1.89965 24.996 2.04261C25.0306 2.05214 25.0651 2.06168 25.1007 2.07151C26.4779 2.46438 27.6911 3.22842 28.7239 4.20839C28.7477 4.23084 28.7716 4.25329 28.7961 4.27642C30.4493 5.84372 31.402 8.08735 31.4946 10.3532C31.5041 10.7626 31.5021 11.1721 31.502 11.5816C31.5021 11.705 31.5023 11.8285 31.5025 11.9519C31.5029 12.251 31.503 12.5501 31.5031 12.8491C31.5031 13.0927 31.5032 13.3362 31.5033 13.5797C31.5038 14.2726 31.504 14.9654 31.504 15.6583C31.504 15.7141 31.504 15.7141 31.504 15.7711C31.504 15.827 31.504 15.827 31.504 15.8841C31.504 16.4875 31.5044 17.0909 31.5051 17.6943C31.5059 18.3163 31.5062 18.9382 31.5062 19.5601C31.5062 19.9084 31.5063 20.2566 31.5068 20.6048C31.5074 20.9327 31.5073 21.2606 31.507 21.5885C31.5069 21.708 31.507 21.8275 31.5073 21.947C31.5095 22.8531 31.5008 23.7754 31.2837 24.6606C31.2728 24.7061 31.2619 24.7516 31.2506 24.7985C30.9604 25.9668 30.466 27.0731 29.7315 28.032C29.6991 28.0749 29.6668 28.1177 29.6335 28.1619C28.1748 30.0394 26.054 31.3014 23.6862 31.6081C23.3307 31.6515 22.9805 31.6659 22.6225 31.6655C22.5683 31.6657 22.5142 31.6658 22.4584 31.666C22.278 31.6664 22.0977 31.6665 21.9174 31.6666C21.7876 31.6668 21.6578 31.6671 21.528 31.6673C21.176 31.668 20.8241 31.6683 20.4721 31.6685C20.2518 31.6687 20.0315 31.6689 19.8112 31.6691C19.1997 31.6697 18.5882 31.6703 17.9767 31.6704C17.9181 31.6704 17.9181 31.6704 17.8583 31.6705C17.8191 31.6705 17.78 31.6705 17.7396 31.6705C17.6603 31.6705 17.581 31.6705 17.5016 31.6706C17.4426 31.6706 17.4426 31.6706 17.3824 31.6706C16.7461 31.6708 16.1099 31.6717 15.4736 31.6728C14.8184 31.674 14.1631 31.6747 13.5079 31.6747C13.1408 31.6748 12.7738 31.6751 12.4067 31.676C12.0608 31.6768 11.715 31.6769 11.3691 31.6765C11.243 31.6764 11.1169 31.6767 10.9908 31.6772C8.30535 31.6872 5.95871 30.8363 4.02975 28.9449C2.42491 27.3275 1.51002 25.011 1.51362 22.7421C1.5135 22.6884 1.51339 22.6347 1.51327 22.5794C1.51295 22.4007 1.51299 22.2221 1.51303 22.0434C1.51288 21.9148 1.51271 21.7861 1.51252 21.6575C1.51212 21.3451 1.51196 21.0326 1.51194 20.7201C1.51191 20.4658 1.51181 20.2115 1.51165 19.9572C1.5112 19.2345 1.51097 18.5119 1.51101 17.7892C1.51101 17.7503 1.51101 17.7114 1.51102 17.6713C1.51102 17.6324 1.51102 17.5934 1.51102 17.5533C1.51104 16.9231 1.51056 16.2928 1.50985 15.6626C1.50912 15.0139 1.50878 14.3651 1.50882 13.7164C1.50884 13.3528 1.5087 12.9892 1.50816 12.6257C1.50765 12.2834 1.50767 11.9411 1.50803 11.5988C1.50809 11.4737 1.50797 11.3487 1.50766 11.2237C1.5056 10.3232 1.53567 9.44977 1.75334 8.57144C1.76641 8.51829 1.77948 8.46514 1.79295 8.41038C2.15327 7.00597 2.86392 5.68424 3.86918 4.6373C3.99015 4.51269 3.99015 4.51269 4.09489 4.37779C4.2411 4.19544 4.41396 4.0552 4.59335 3.90619C4.63384 3.87232 4.63384 3.87232 4.67516 3.83777C5.09869 3.48517 5.52347 3.17104 6.0039 2.89885C6.06053 2.86587 6.11715 2.83288 6.1755 2.7989C7.87486 1.83281 9.72134 1.68223 11.6337 1.68272ZM8.34328 3.2829C8.30045 3.29557 8.25762 3.30824 8.21349 3.3213C7.45676 3.55528 6.74653 3.89552 6.10465 4.3595C6.07654 4.37958 6.04842 4.39967 6.01945 4.42036C4.41689 5.57962 3.33488 7.25985 2.93091 9.19474C2.92216 9.23449 2.91341 9.27425 2.90439 9.31521C2.79028 9.92485 2.81564 10.5447 2.81632 11.1624C2.8161 11.2955 2.81584 11.4286 2.81554 11.5617C2.8149 11.8846 2.8148 12.2074 2.81492 12.5303C2.81501 12.793 2.81492 13.0557 2.81471 13.3185C2.81468 13.356 2.81465 13.3935 2.81462 13.4322C2.81456 13.5085 2.8145 13.5848 2.81443 13.661C2.81389 14.3749 2.81399 15.0888 2.8143 15.8026C2.81456 16.4539 2.814 17.1051 2.81304 17.7564C2.81206 18.427 2.81165 19.0976 2.81184 19.7682C2.81193 20.1439 2.81181 20.5196 2.81109 20.8953C2.81049 21.2153 2.81043 21.5352 2.81103 21.8551C2.81133 22.018 2.81131 22.1808 2.81078 22.3436C2.80813 23.2273 2.85153 24.0671 3.11982 24.9156C3.13275 24.9573 3.14569 24.999 3.15902 25.0419C3.78911 27.0148 5.18593 28.5838 7.00136 29.5523C8.28319 30.212 9.57981 30.38 11.0057 30.3742C11.14 30.3744 11.2743 30.3747 11.4086 30.375C11.7325 30.3757 12.0564 30.3753 12.3804 30.3746C12.7589 30.3737 13.1374 30.3739 13.5159 30.3741C14.1917 30.3744 14.8676 30.3737 15.5435 30.3724C16.1971 30.3712 16.8507 30.3709 17.5044 30.3714C18.2191 30.372 18.9338 30.3721 19.6485 30.3713C19.7248 30.3713 19.8012 30.3712 19.8776 30.3711C19.9152 30.3711 19.9528 30.371 19.9915 30.371C20.2544 30.3707 20.5174 30.3708 20.7803 30.3711C21.1012 30.3713 21.422 30.371 21.7429 30.37C21.9061 30.3695 22.0694 30.3693 22.2326 30.3696C22.9191 30.3708 23.5694 30.3529 24.2404 30.1978C24.289 30.1867 24.3375 30.1756 24.3876 30.1642C25.6444 29.8636 26.7817 29.2167 27.7164 28.3342C27.778 28.2824 27.8399 28.231 27.9021 28.18C28.8716 27.3479 29.5154 26.0751 29.892 24.8778C29.904 24.8409 29.916 24.8041 29.9284 24.7661C30.1966 23.8725 30.2071 22.9521 30.2052 22.0275C30.2055 21.8978 30.2058 21.7681 30.2062 21.6384C30.2071 21.3252 30.2072 21.012 30.2069 20.6987C30.2067 20.4436 30.2068 20.1885 30.207 19.9334C30.2071 19.8969 30.2071 19.8603 30.2071 19.8227C30.2072 19.7484 30.2073 19.674 30.2074 19.5997C30.2081 18.9056 30.2078 18.2115 30.2072 17.5175C30.2067 16.8853 30.2074 16.2532 30.2086 15.6211C30.2098 14.9688 30.2103 14.3165 30.2099 13.6642C30.2098 13.2993 30.2099 12.9344 30.2108 12.5695C30.2116 12.226 30.2113 11.8826 30.2104 11.5391C30.2102 11.414 30.2104 11.289 30.2109 11.1639C30.2168 9.66072 29.9759 8.24765 29.2277 6.92822C29.2088 6.89481 29.1899 6.86139 29.1704 6.82697C28.8728 6.30895 28.5257 5.85442 28.1194 5.4172C28.0962 5.39209 28.073 5.36697 28.0491 5.34109C26.7632 3.96234 24.8391 3.06291 22.9505 2.99486C22.81 2.99286 22.6696 2.99238 22.5291 2.99251C22.449 2.99229 22.449 2.99229 22.3673 2.99206C22.1897 2.99162 22.012 2.99154 21.8343 2.99147C21.7064 2.99123 21.5785 2.99098 21.4506 2.99071C21.1039 2.99005 20.7571 2.98972 20.4104 2.9895C20.1934 2.98936 19.9763 2.98915 19.7593 2.98892C19.1569 2.98831 18.5545 2.98779 17.9521 2.98762C17.8944 2.9876 17.8944 2.9876 17.8355 2.98758C17.7969 2.98757 17.7584 2.98756 17.7186 2.98755C17.6405 2.98753 17.5623 2.98751 17.4842 2.98748C17.4454 2.98747 17.4067 2.98746 17.3668 2.98745C16.7399 2.98725 16.1131 2.98637 15.4862 2.9852C14.8407 2.984 14.1952 2.98338 13.5497 2.98332C13.1881 2.98327 12.8264 2.98299 12.4648 2.98207C12.1241 2.9812 11.7834 2.98113 11.4428 2.98157C11.3185 2.98161 11.1942 2.9814 11.07 2.98089C10.1508 2.9774 9.22968 3.01448 8.34328 3.2829Z" fill="#111111"/>
<path d="M13.5126 8.58222C13.5844 8.58198 13.6562 8.58173 13.728 8.58146C13.9223 8.5808 14.1167 8.58047 14.311 8.58025C14.4328 8.5801 14.5546 8.57989 14.6763 8.57967C15.0583 8.57898 15.4403 8.57849 15.8223 8.5783C16.2613 8.57807 16.7004 8.57719 17.1394 8.57573C17.48 8.57464 17.8206 8.57413 18.1611 8.57407C18.364 8.57401 18.5668 8.57372 18.7696 8.57282C18.9608 8.57198 19.152 8.57188 19.3432 8.57232C19.4455 8.57238 19.5478 8.57169 19.6501 8.57097C21.016 8.57707 22.245 9.12685 23.2234 10.073C24.1756 11.0592 24.6096 12.3075 24.6068 13.6617C24.6071 13.7345 24.6073 13.8073 24.6076 13.8801C24.6083 14.0763 24.6083 14.2724 24.6082 14.4686C24.6081 14.6332 24.6084 14.7977 24.6086 14.9623C24.6092 15.3511 24.6092 15.7398 24.6089 16.1286C24.6086 16.5277 24.6092 16.9268 24.6103 17.326C24.6112 17.6703 24.6115 18.0147 24.6113 18.359C24.6112 18.564 24.6114 18.7689 24.6121 18.9738C24.6127 19.1668 24.6126 19.3598 24.6119 19.5528C24.6118 19.623 24.612 19.6931 24.6124 19.7633C24.6201 21.154 24.1046 22.4064 23.1321 23.3983C22.0862 24.4219 20.7199 24.8153 19.2885 24.8167C19.2226 24.8169 19.1568 24.8172 19.089 24.8174C18.9094 24.8181 18.7298 24.8184 18.5502 24.8186C18.4375 24.8188 18.3248 24.819 18.2121 24.8192C17.858 24.8199 17.5039 24.8204 17.1498 24.8206C16.7438 24.8208 16.3378 24.8217 15.9318 24.8231C15.6162 24.8242 15.3007 24.8247 14.9851 24.8248C14.7974 24.8249 14.6098 24.8251 14.4222 24.8261C12.4492 24.8351 12.4492 24.8351 11.602 24.4969C11.543 24.4741 11.543 24.4741 11.4828 24.4509C10.8975 24.2167 10.4049 23.8645 9.9333 23.4486C9.88626 23.4079 9.88626 23.4079 9.83826 23.3664C8.88528 22.4824 8.45165 21.1875 8.37162 19.9229C8.35498 19.4651 8.3572 19.0069 8.35808 18.5489C8.35834 18.372 8.3581 18.1952 8.35794 18.0184C8.35776 17.7217 8.358 17.425 8.35848 17.1284C8.35903 16.788 8.35885 16.4476 8.3583 16.1071C8.35784 15.8121 8.35778 15.5171 8.35804 15.222C8.3582 15.047 8.35822 14.872 8.35789 14.697C8.35545 12.8585 8.56196 11.3375 9.89237 9.96598C10.8715 8.99392 12.1569 8.58325 13.5126 8.58222ZM10.8401 10.8065C10.7939 10.8456 10.7939 10.8456 10.7468 10.8856C10.0533 11.5156 9.70209 12.4617 9.63104 13.3752C9.62389 13.5923 9.62364 13.8093 9.62372 14.0266C9.62356 14.0904 9.62339 14.1543 9.62321 14.2201C9.62277 14.3941 9.62265 14.5681 9.62262 14.7421C9.62258 14.8512 9.62247 14.9603 9.62234 15.0693C9.62188 15.4509 9.62167 15.8324 9.62171 16.214C9.62174 16.568 9.62121 16.9219 9.62041 17.2759C9.61975 17.5812 9.61948 17.8865 9.61951 18.1918C9.61953 18.3736 9.61939 18.5553 9.61885 18.737C9.61827 18.9401 9.6185 19.1432 9.6188 19.3462C9.61852 19.4053 9.61824 19.4644 9.61795 19.5253C9.62179 20.5484 9.88114 21.4481 10.5378 22.2398C10.5698 22.2816 10.6019 22.3234 10.6348 22.3665C11.2345 23.0846 12.1531 23.4356 13.0567 23.5494C13.2869 23.5628 13.5163 23.5637 13.7469 23.5632C13.8131 23.5635 13.8792 23.5637 13.9474 23.564C14.1272 23.5646 14.307 23.5647 14.4867 23.5646C14.6377 23.5645 14.7886 23.5647 14.9396 23.565C15.2962 23.5655 15.6528 23.5656 16.0095 23.5653C16.3754 23.565 16.7412 23.5656 17.1071 23.5667C17.4231 23.5675 17.7391 23.5678 18.055 23.5677C18.2429 23.5676 18.4308 23.5677 18.6187 23.5684C18.8287 23.5692 19.0386 23.5687 19.2486 23.5681C19.3094 23.5685 19.3703 23.5689 19.433 23.5693C20.5564 23.5625 21.523 23.1802 22.326 22.3909C22.3577 22.3599 22.3893 22.329 22.4219 22.2971C22.9772 21.7091 23.3377 20.8798 23.341 20.07C23.3414 20.0084 23.3417 19.9468 23.3421 19.8834C23.3422 19.8156 23.3424 19.7478 23.3425 19.68C23.3428 19.6082 23.3431 19.5365 23.3435 19.4647C23.3446 19.2293 23.3451 18.994 23.3456 18.7586C23.3458 18.6773 23.346 18.5959 23.3462 18.5146C23.3472 18.1322 23.3479 17.7497 23.3483 17.3673C23.3488 16.9275 23.3501 16.4876 23.3522 16.0478C23.3537 15.7069 23.3544 15.366 23.3546 15.025C23.3547 14.8219 23.3551 14.6188 23.3564 14.4156C23.3576 14.2241 23.3578 14.0325 23.3573 13.8409C23.3573 13.7384 23.3582 13.6359 23.3592 13.5333C23.3536 12.5295 22.9713 11.6311 22.2757 10.9072C21.991 10.6294 21.6828 10.4186 21.3311 10.2367C21.3012 10.2209 21.2712 10.2051 21.2404 10.1889C20.6578 9.9045 20.0572 9.81938 19.4163 9.82344C19.3455 9.82317 19.2747 9.82281 19.204 9.82237C19.0142 9.82146 18.8245 9.8218 18.6347 9.82245C18.4346 9.82296 18.2344 9.82248 18.0342 9.82217C17.6982 9.8218 17.3622 9.82228 17.0262 9.82324C16.6399 9.82434 16.2535 9.82399 15.8672 9.82288C15.5333 9.82196 15.1994 9.82184 14.8655 9.82236C14.667 9.82267 14.4685 9.82272 14.2701 9.82205C12.9668 9.81824 11.8595 9.89032 10.8401 10.8065Z" fill="#111111"/>
<path d="M18.2959 12.9723C18.3418 12.994 18.3877 13.0156 18.435 13.038C19.3894 13.5199 20.0828 14.3718 20.4257 15.3771C20.7472 16.458 20.6964 17.5796 20.17 18.5851C19.5829 19.6515 18.6938 20.3493 17.5308 20.6942C16.7481 20.8917 15.878 20.8545 15.1221 20.5777C15.0703 20.56 15.0185 20.5424 14.9651 20.5242C14.01 20.167 13.1843 19.3868 12.7579 18.4613C12.315 17.4247 12.2265 16.2474 12.6443 15.1849C13.0778 14.1629 13.8406 13.3254 14.8675 12.8793C15.9875 12.4382 17.2105 12.4411 18.2959 12.9723ZM14.4169 14.7351C13.9086 15.38 13.5693 16.1101 13.6612 16.9513C13.8163 17.8077 14.1728 18.5337 14.9061 19.0478C15.6036 19.4667 16.3288 19.6402 17.1341 19.4665C17.9556 19.2324 18.5946 18.7742 19.0183 18.0253C19.3538 17.3536 19.4463 16.5317 19.2184 15.8054C19.182 15.7162 19.1434 15.6279 19.1019 15.541C19.0842 15.5016 19.0666 15.4623 19.0484 15.4218C18.7112 14.7452 18.0924 14.2351 17.3891 13.9796C16.3581 13.6749 15.1557 13.9234 14.4169 14.7351Z" fill="#111111"/>
<path d="M21.7561 11.2881C21.9815 11.5256 22.1376 11.8159 22.1497 12.1475C22.1254 12.4931 22.0368 12.7298 21.7782 12.966C21.4924 13.2069 21.2323 13.2499 20.8655 13.2432C20.5638 13.2052 20.3642 13.0427 20.1661 12.8212C19.9476 12.5127 19.9167 12.2347 19.9583 11.8642C20.046 11.5687 20.2057 11.3819 20.4621 11.2094C20.9237 10.9763 21.3198 11.0345 21.7561 11.2881Z" fill="#111111"/>
<path d="M14.0138 13.3752C14.0471 13.3918 14.0803 13.4084 14.1146 13.4256C13.832 13.7081 13.5494 13.9907 13.2582 14.2818C13.2582 14.0694 13.3515 14.0105 13.4943 13.8568C13.5382 13.8091 13.582 13.7614 13.6272 13.7122C13.75 13.5887 13.8754 13.4807 14.0138 13.3752Z" fill="#111111"/>
<path d="M4.6941 3.80546C4.72735 3.82208 4.7606 3.8387 4.79485 3.85582C4.47899 4.17163 4.16313 4.48743 3.83769 4.8128C3.80444 4.79618 3.77119 4.77956 3.73694 4.76243C3.981 4.4817 4.22618 4.21501 4.51129 3.97545C4.59884 3.90353 4.59884 3.90353 4.6941 3.80546Z" fill="#111111"/>
<path d="M20.4621 11.2094C20.4953 11.226 20.5286 11.2427 20.5628 11.2598C20.4132 11.4094 20.2636 11.559 20.1095 11.7131C20.1095 11.496 20.2186 11.4161 20.3613 11.2598C20.3946 11.2432 20.4278 11.2265 20.4621 11.2094Z" fill="#111111"/>
<path d="M11.6337 1.68272L11.6335 2.68272L11.635 2.68272L11.6337 1.68272ZM11.9866 1.68221L11.9852 0.682211L11.985 0.682211L11.9866 1.68221ZM12.9375 1.68161L12.9376 2.68161L12.9377 2.68161L12.9375 1.68161ZM13.6344 1.68127L13.6337 0.68127L13.6337 0.68127L13.6344 1.68127ZM15.5134 1.6807L15.5133 2.6807L15.5133 2.6807L15.5134 1.6807ZM15.6207 1.68071L15.6207 0.680706L15.6207 0.680706L15.6207 1.68071ZM15.7281 1.68071L15.728 2.68071L15.7281 2.68071L15.7281 1.68071ZM17.4487 1.67954L17.4475 0.679541L17.4475 0.679541L17.4487 1.67954ZM19.2253 1.67851L19.2252 2.67851L19.2252 2.67851L19.2253 1.67851ZM20.2187 1.67785L20.2171 0.67785L20.2171 0.67785L20.2187 1.67785ZM21.1546 1.67772L21.1534 2.67772L21.1541 2.67772L21.1546 1.67772ZM21.4946 1.67735L21.492 0.677356L21.4919 0.677356L21.4946 1.67735ZM23.2741 1.73389L23.2007 2.7312L23.2027 2.73134L23.2741 1.73389ZM23.4338 1.74532L23.5147 0.748551L23.5052 0.747876L23.4338 1.74532ZM24.996 2.04261L24.7286 3.0062L24.7299 3.00654L24.996 2.04261ZM25.1007 2.07151L25.375 1.10983L25.3668 1.10757L25.1007 2.07151ZM28.7239 4.20839L28.0356 4.93383L28.0381 4.93621L28.7239 4.20839ZM28.7961 4.27642L29.4841 3.55072L29.4819 3.5486L28.7961 4.27642ZM31.4946 10.3532L32.4944 10.3301L32.4942 10.3212L32.4938 10.3123L31.4946 10.3532ZM31.502 11.5816L30.502 11.5813L30.502 11.5828L31.502 11.5816ZM31.5025 11.9519L32.5025 11.9506L32.5025 11.9503L31.5025 11.9519ZM31.5031 12.8491L30.5031 12.8492L30.5031 12.8492L31.5031 12.8491ZM31.5033 13.5797L32.5033 13.5791L32.5033 13.5791L31.5033 13.5797ZM31.504 15.6583L30.504 15.6582L30.504 15.6582L31.504 15.6583ZM31.504 15.7711L32.504 15.7712L32.504 15.7712L31.504 15.7711ZM31.504 15.8841L30.504 15.884L30.504 15.884L31.504 15.8841ZM31.5051 17.6943L32.5051 17.6932L32.5051 17.6931L31.5051 17.6943ZM31.5062 19.5601L30.5062 19.5601L30.5062 19.5601L31.5062 19.5601ZM31.5068 20.6048L32.5068 20.6033L32.5068 20.6032L31.5068 20.6048ZM31.507 21.5885L30.507 21.5873L30.507 21.588L31.507 21.5885ZM31.5073 21.947L32.5073 21.9446L32.5073 21.9444L31.5073 21.947ZM31.2837 24.6606L30.3125 24.4224L30.3112 24.4276L31.2837 24.6606ZM31.2506 24.7985L32.2212 25.0396L32.2231 25.0315L31.2506 24.7985ZM29.7315 28.032L28.9376 27.4239L28.9333 27.4296L29.7315 28.032ZM29.6335 28.1619L30.4232 28.7754L30.4317 28.7643L29.6335 28.1619ZM23.6862 31.6081L23.8073 32.6008L23.8147 32.5998L23.6862 31.6081ZM22.6225 31.6655L22.6234 30.6655L22.6197 30.6655L22.6225 31.6655ZM22.4584 31.666L22.4608 32.666L22.4611 32.666L22.4584 31.666ZM21.9174 31.6666L21.9169 30.6666L21.9156 30.6666L21.9174 31.6666ZM21.528 31.6673L21.5299 32.6673L21.5301 32.6673L21.528 31.6673ZM20.4721 31.6685L20.4715 30.6685L20.4715 30.6685L20.4721 31.6685ZM19.8112 31.6691L19.8122 32.6691L19.8122 32.6691L19.8112 31.6691ZM17.9767 31.6704L17.9764 30.6704L17.9764 30.6704L17.9767 31.6704ZM17.8583 31.6705L17.8586 32.6705L17.8586 32.6705L17.8583 31.6705ZM17.7396 31.6705L17.7393 30.6705L17.7393 30.6705L17.7396 31.6705ZM17.5016 31.6706L17.5019 32.6706L17.5019 32.6706L17.5016 31.6706ZM17.3824 31.6706L17.3821 30.6706L17.3821 30.6706L17.3824 31.6706ZM15.4736 31.6728L15.4755 32.6728L15.4755 32.6728L15.4736 31.6728ZM13.5079 31.6747L13.5078 30.6747L13.5078 30.6747L13.5079 31.6747ZM12.4067 31.676L12.4092 32.676L12.4092 32.676L12.4067 31.676ZM11.3691 31.6765L11.3704 30.6765L11.3694 30.6765L11.3691 31.6765ZM10.9908 31.6772L10.9946 32.6771L10.9948 32.6771L10.9908 31.6772ZM4.02975 28.9449L3.31981 29.6493L3.32964 29.659L4.02975 28.9449ZM1.51362 22.7421L2.51362 22.7437L2.51361 22.74L1.51362 22.7421ZM1.51327 22.5794L0.513271 22.5812L0.513271 22.5815L1.51327 22.5794ZM1.51303 22.0434L2.51303 22.0436L2.51303 22.0422L1.51303 22.0434ZM1.51252 21.6575L0.512521 21.6588L0.512522 21.659L1.51252 21.6575ZM1.51194 20.7201L2.51194 20.7201L2.51194 20.72L1.51194 20.7201ZM1.51165 19.9572L0.511648 19.9578L0.511648 19.9578L1.51165 19.9572ZM1.51101 17.7892L2.51101 17.7892L2.51101 17.7892L1.51101 17.7892ZM1.51102 17.6713L0.511016 17.6713L0.511016 17.6713L1.51102 17.6713ZM1.51102 17.5533L2.51102 17.5534L2.51102 17.5533L1.51102 17.5533ZM1.50985 15.6626L0.509851 15.6637L0.509851 15.6637L1.50985 15.6626ZM1.50882 13.7164L2.50882 13.7164L2.50882 13.7164L1.50882 13.7164ZM1.50816 12.6257L0.50816 12.6272L0.50816 12.6272L1.50816 12.6257ZM1.50803 11.5988L2.50803 11.5998L2.50803 11.5992L1.50803 11.5988ZM1.50766 11.2237L0.507666 11.226L0.507666 11.2262L1.50766 11.2237ZM1.75334 8.57144L2.72398 8.812L2.72442 8.81022L1.75334 8.57144ZM1.79295 8.41038L0.824272 8.16185L0.821873 8.17161L1.79295 8.41038ZM3.86918 4.6373L3.15166 3.94074L3.14786 3.9447L3.86918 4.6373ZM4.09489 4.37779L3.31471 3.75224L3.30982 3.75834L3.30503 3.76451L4.09489 4.37779ZM4.59335 3.90619L5.23232 4.67543L5.23486 4.6733L4.59335 3.90619ZM4.67516 3.83777L4.03534 3.06925L4.03364 3.07066L4.67516 3.83777ZM6.0039 2.89885L6.49688 3.76898L6.50721 3.76296L6.0039 2.89885ZM6.1755 2.7989L5.68125 1.92952L5.67219 1.93479L6.1755 2.7989ZM8.34328 3.2829L8.62701 4.24183L8.6331 4.23998L8.34328 3.2829ZM8.21349 3.3213L7.92975 2.36232L7.91809 2.36593L8.21349 3.3213ZM6.10465 4.3595L6.68594 5.17322L6.69047 5.16994L6.10465 4.3595ZM6.01945 4.42036L5.43816 3.60664L5.43334 3.61013L6.01945 4.42036ZM2.93091 9.19474L3.9076 9.40966L3.9098 9.39912L2.93091 9.19474ZM2.90439 9.31521L1.92776 9.1003L1.92437 9.11571L1.92147 9.13122L2.90439 9.31521ZM2.81632 11.1624L3.81632 11.1641L3.81632 11.1613L2.81632 11.1624ZM2.81554 11.5617L1.81554 11.5595L1.81554 11.5598L2.81554 11.5617ZM2.81492 12.5303L3.81492 12.5299L3.81492 12.5299L2.81492 12.5303ZM2.81471 13.3185L1.81471 13.3177L1.81471 13.3177L2.81471 13.3185ZM2.81462 13.4322L3.81462 13.433L3.81462 13.433L2.81462 13.4322ZM2.81443 13.661L1.81443 13.6602L1.81443 13.6603L2.81443 13.661ZM2.8143 15.8026L3.8143 15.8022L3.8143 15.8022L2.8143 15.8026ZM2.81304 17.7564L1.81304 17.7549L1.81304 17.7549L2.81304 17.7564ZM2.81184 19.7682L3.81184 19.7679L3.81184 19.7679L2.81184 19.7682ZM2.81109 20.8953L1.8111 20.8934L1.8111 20.8934L2.81109 20.8953ZM2.81103 21.8551L3.81103 21.8533L3.81103 21.8533L2.81103 21.8551ZM2.81078 22.3436L1.81079 22.3404L1.81078 22.3406L2.81078 22.3436ZM3.11982 24.9156L4.07493 24.6193L4.07329 24.6141L3.11982 24.9156ZM3.15902 25.0419L2.20389 25.3382L2.20642 25.3462L3.15902 25.0419ZM7.00136 29.5523L6.53065 30.4346L6.53717 30.4381L6.54374 30.4414L7.00136 29.5523ZM11.0057 30.3742L11.0072 29.3742L11.0016 29.3742L11.0057 30.3742ZM11.4086 30.375L11.4058 31.375L11.4064 31.375L11.4086 30.375ZM12.3804 30.3746L12.3781 29.3746L12.378 29.3746L12.3804 30.3746ZM13.5159 30.3741L13.5154 31.3741L13.5154 31.3741L13.5159 30.3741ZM15.5435 30.3724L15.5416 29.3724L15.5416 29.3724L15.5435 30.3724ZM17.5044 30.3714L17.5035 31.3714L17.5035 31.3714L17.5044 30.3714ZM19.6485 30.3713L19.6475 29.3713L19.6475 29.3713L19.6485 30.3713ZM19.8776 30.3711L19.8786 31.3711L19.8786 31.3711L19.8776 30.3711ZM19.9915 30.371L19.9906 29.371L19.9904 29.371L19.9915 30.371ZM20.7803 30.3711L20.7795 31.3711L20.7795 31.3711L20.7803 30.3711ZM21.7429 30.37L21.7399 29.37L21.7398 29.37L21.7429 30.37ZM22.2326 30.3696L22.2307 31.3696L22.2309 31.3696L22.2326 30.3696ZM24.2404 30.1978L24.0177 29.2229L24.0152 29.2235L24.2404 30.1978ZM24.3876 30.1642L24.6103 31.1391L24.6202 31.1368L24.3876 30.1642ZM27.7164 28.3342L27.0729 27.5688L27.0508 27.5873L27.0299 27.6071L27.7164 28.3342ZM27.9021 28.18L28.5359 28.9535L28.5447 28.9463L28.5534 28.9388L27.9021 28.18ZM29.892 24.8778L28.941 24.5684L28.9381 24.5777L29.892 24.8778ZM29.9284 24.7661L30.8793 25.0755L30.8829 25.0646L30.8862 25.0535L29.9284 24.7661ZM30.2052 22.0275L29.2052 22.0253L29.2052 22.0295L30.2052 22.0275ZM30.2062 21.6384L31.2062 21.6416L31.2062 21.6412L30.2062 21.6384ZM30.2069 20.6987L29.2069 20.6995L29.2069 20.6996L30.2069 20.6987ZM30.207 19.9334L31.207 19.9345L31.207 19.9345L30.207 19.9334ZM30.2071 19.8227L29.2071 19.8216L29.2071 19.8216L30.2071 19.8227ZM30.2074 19.5997L31.2074 19.6008L31.2074 19.6007L30.2074 19.5997ZM30.2072 17.5175L29.2072 17.5182L29.2072 17.5183L30.2072 17.5175ZM30.2086 15.6211L31.2086 15.623L31.2086 15.623L30.2086 15.6211ZM30.2099 13.6642L29.2099 13.6647L29.2099 13.6647L30.2099 13.6642ZM30.2108 12.5695L31.2108 12.5719L31.2108 12.5719L30.2108 12.5695ZM30.2104 11.5391L29.2104 11.5405L29.2104 11.5418L30.2104 11.5391ZM30.2109 11.1639L31.2109 11.1682L31.2109 11.1678L30.2109 11.1639ZM29.2277 6.92822L28.3572 7.42035L28.3578 7.42151L29.2277 6.92822ZM29.1704 6.82697L30.041 6.33482L30.0375 6.32872L29.1704 6.82697ZM28.1194 5.4172L27.3845 6.09544L27.3869 6.09798L28.1194 5.4172ZM28.0491 5.34109L28.784 4.66285L28.7804 4.65903L28.0491 5.34109ZM22.9505 2.99486L22.9865 1.99551L22.9756 1.99511L22.9647 1.99496L22.9505 2.99486ZM22.5291 2.99251L22.5263 3.99251L22.53 3.99251L22.5291 2.99251ZM22.3673 2.99206L22.3701 1.99206L22.3698 1.99206L22.3673 2.99206ZM21.8343 2.99147L21.8325 3.99147L21.8339 3.99147L21.8343 2.99147ZM21.4506 2.99071L21.4527 1.99071L21.4525 1.99071L21.4506 2.99071ZM20.4104 2.9895L20.4098 3.9895L20.4098 3.9895L20.4104 2.9895ZM19.7593 2.98892L19.7603 1.98892L19.7603 1.98892L19.7593 2.98892ZM17.9521 2.98762L17.9518 3.98762L17.9518 3.98762L17.9521 2.98762ZM17.8355 2.98758L17.8358 1.98758L17.8358 1.98758L17.8355 2.98758ZM17.7186 2.98755L17.7183 3.98755L17.7183 3.98755L17.7186 2.98755ZM17.4842 2.98748L17.4845 1.98748L17.4845 1.98748L17.4842 2.98748ZM17.3668 2.98745L17.3664 3.98745L17.3665 3.98745L17.3668 2.98745ZM15.4862 2.9852L15.4881 1.9852L15.4881 1.9852L15.4862 2.9852ZM13.5497 2.98332L13.5496 3.98332L13.5496 3.98332L13.5497 2.98332ZM12.4648 2.98207L12.4673 1.98207L12.4673 1.98207L12.4648 2.98207ZM11.4428 2.98157L11.4431 3.98157L11.444 3.98157L11.4428 2.98157ZM11.07 2.98089L11.074 1.9809L11.0738 1.9809L11.07 2.98089ZM13.5126 8.58222L13.5134 9.58222L13.5159 9.58221L13.5126 8.58222ZM13.728 8.58146L13.7246 7.58146L13.7242 7.58147L13.728 8.58146ZM14.311 8.58025L14.3122 9.58025L14.3122 9.58025L14.311 8.58025ZM14.6763 8.57967L14.6745 7.57967L14.6745 7.57967L14.6763 8.57967ZM15.8223 8.5783L15.8228 9.5783L15.8228 9.5783L15.8223 8.5783ZM17.1394 8.57573L17.1362 7.57574L17.1361 7.57574L17.1394 8.57573ZM18.1611 8.57407L18.1613 9.57407L18.1614 9.57407L18.1611 8.57407ZM18.7696 8.57282L18.7652 7.57283L18.7652 7.57283L18.7696 8.57282ZM19.3432 8.57232L19.3409 9.57232L19.3427 9.57232L19.3432 8.57232ZM19.6501 8.57097L19.6546 7.57092L19.6431 7.571L19.6501 8.57097ZM23.2234 10.073L23.9427 9.37838L23.9309 9.36607L23.9186 9.35417L23.2234 10.073ZM24.6068 13.6617L23.6068 13.6597L23.6068 13.6647L24.6068 13.6617ZM24.6076 13.8801L25.6076 13.8767L25.6076 13.876L24.6076 13.8801ZM24.6082 14.4686L23.6082 14.468L23.6082 14.4683L24.6082 14.4686ZM24.6086 14.9623L25.6086 14.9609L25.6086 14.9609L24.6086 14.9623ZM24.6089 16.1286L23.6089 16.1278L23.6089 16.1278L24.6089 16.1286ZM24.6103 17.326L25.6103 17.3234L25.6103 17.3233L24.6103 17.326ZM24.6113 18.359L23.6113 18.3586L23.6113 18.3586L24.6113 18.359ZM24.6121 18.9738L25.6121 18.9705L25.6121 18.9704L24.6121 18.9738ZM24.6119 19.5528L23.6119 19.5494L23.6119 19.5511L24.6119 19.5528ZM24.6124 19.7633L25.6124 19.7578L25.6124 19.7573L24.6124 19.7633ZM23.1321 23.3983L23.8316 24.1129L23.8389 24.1057L23.8461 24.0984L23.1321 23.3983ZM19.2885 24.8167L19.2876 23.8167L19.2847 23.8167L19.2885 24.8167ZM19.089 24.8174L19.0926 25.8174L19.0928 25.8174L19.089 24.8174ZM18.5502 24.8186L18.549 23.8186L18.5489 23.8186L18.5502 24.8186ZM18.2121 24.8192L18.214 25.8192L18.2141 25.8192L18.2121 24.8192ZM17.1498 24.8206L17.1492 23.8206L17.1492 23.8206L17.1498 24.8206ZM15.9318 24.8231L15.9353 25.8231L15.9354 25.8231L15.9318 24.8231ZM14.9851 24.8248L14.9849 23.8248L14.9848 23.8248L14.9851 24.8248ZM14.4222 24.8261L14.4268 25.826L14.427 25.826L14.4222 24.8261ZM11.602 24.4969L11.9728 23.5681L11.9617 23.5638L11.602 24.4969ZM11.4828 24.4509L11.1112 25.3794L11.1231 25.384L11.4828 24.4509ZM9.9333 23.4486L10.5948 22.6986L10.5876 22.6924L9.9333 23.4486ZM9.83826 23.3664L9.15821 24.0996L9.17087 24.1113L9.18394 24.1226L9.83826 23.3664ZM8.37162 19.9229L7.37228 19.9592L7.37277 19.9727L7.37362 19.9861L8.37162 19.9229ZM8.35808 18.5489L9.35808 18.5508L9.35808 18.5503L8.35808 18.5489ZM8.35794 18.0184L7.35795 18.019L7.35795 18.0192L8.35794 18.0184ZM8.35848 17.1284L9.35848 17.13L9.35848 17.13L8.35848 17.1284ZM8.3583 16.1071L7.3583 16.1087L7.3583 16.1088L8.3583 16.1071ZM8.35804 15.222L9.35804 15.2229L9.35804 15.2229L8.35804 15.222ZM8.35789 14.697L7.35789 14.6983L7.35789 14.6989L8.35789 14.697ZM9.89237 9.96598L9.18783 9.25632L9.18115 9.26295L9.1746 9.26971L9.89237 9.96598ZM10.8401 10.8065L11.4868 11.5692L11.4978 11.5599L11.5085 11.5502L10.8401 10.8065ZM10.7468 10.8856L10.1001 10.1229L10.087 10.1339L10.0744 10.1454L10.7468 10.8856ZM9.63104 13.3752L8.63405 13.2977L8.63232 13.3199L8.63158 13.3423L9.63104 13.3752ZM9.62372 14.0266L10.6237 14.0292L10.6237 14.0262L9.62372 14.0266ZM9.62321 14.2201L8.62322 14.2175L8.62322 14.2176L9.62321 14.2201ZM9.62262 14.7421L10.6226 14.7425L10.6226 14.7423L9.62262 14.7421ZM9.62234 15.0693L8.62234 15.0681L8.62234 15.0681L9.62234 15.0693ZM9.62171 16.214L10.6217 16.2139L10.6217 16.2139L9.62171 16.214ZM9.62041 17.2759L8.62041 17.2737L8.62041 17.2738L9.62041 17.2759ZM9.61951 18.1918L10.6195 18.1918L10.6195 18.1917L9.61951 18.1918ZM9.61885 18.737L8.61885 18.7341L8.61885 18.7341L9.61885 18.737ZM9.6188 19.3462L10.6188 19.351L10.6188 19.3447L9.6188 19.3462ZM9.61795 19.5253L8.61792 19.5205L8.61795 19.5291L9.61795 19.5253ZM10.5378 22.2398L11.3318 21.6319L11.32 21.6164L11.3075 21.6014L10.5378 22.2398ZM10.6348 22.3665L9.84086 22.9745L9.85372 22.9913L9.86728 23.0075L10.6348 22.3665ZM13.0567 23.5494L12.9318 24.5415L12.965 24.5457L12.9985 24.5477L13.0567 23.5494ZM13.7469 23.5632L13.7508 22.5632L13.7448 22.5632L13.7469 23.5632ZM13.9474 23.564L13.9435 24.564L13.9437 24.564L13.9474 23.564ZM14.4867 23.5646L14.4864 22.5646L14.486 22.5646L14.4867 23.5646ZM14.9396 23.565L14.938 24.565L14.938 24.565L14.9396 23.565ZM16.0095 23.5653L16.0086 22.5653L16.0086 22.5653L16.0095 23.5653ZM17.1071 23.5667L17.1042 24.5666L17.1043 24.5666L17.1071 23.5667ZM18.055 23.5677L18.0546 22.5677L18.0545 22.5677L18.055 23.5677ZM18.6187 23.5684L18.615 24.5684L18.6151 24.5684L18.6187 23.5684ZM19.2486 23.5681L19.2549 22.5681L19.2458 22.5681L19.2486 23.5681ZM19.433 23.5693L19.4267 24.5693L19.4391 24.5693L19.433 23.5693ZM22.326 22.3909L21.6264 21.6764L21.6251 21.6777L22.326 22.3909ZM22.4219 22.2971L23.1215 23.0115L23.1355 22.9979L23.1489 22.9837L22.4219 22.2971ZM23.341 20.07L22.341 20.0641L22.341 20.0659L23.341 20.07ZM23.3421 19.8834L24.3421 19.8893L24.3421 19.8855L23.3421 19.8834ZM23.3425 19.68L22.3425 19.6756L22.3425 19.678L23.3425 19.68ZM23.3435 19.4647L24.3435 19.4696L24.3435 19.4692L23.3435 19.4647ZM23.3456 18.7586L22.3456 18.7561L22.3456 18.7565L23.3456 18.7586ZM23.3462 18.5146L24.3462 18.5172L24.3462 18.5171L23.3462 18.5146ZM23.3483 17.3673L22.3483 17.3662L22.3483 17.3662L23.3483 17.3673ZM23.3522 16.0478L24.3521 16.0524L24.3521 16.0523L23.3522 16.0478ZM23.3546 15.025L22.3546 15.0244L22.3546 15.0245L23.3546 15.025ZM23.3564 14.4156L24.3564 14.4219L24.3564 14.4218L23.3564 14.4156ZM23.3573 13.8409L22.3573 13.8413L22.3573 13.8436L23.3573 13.8409ZM23.3592 13.5333L24.3592 13.5431L24.3592 13.5354L24.3592 13.5278L23.3592 13.5333ZM22.2757 10.9072L22.9967 10.2143L22.9856 10.2028L22.9741 10.1915L22.2757 10.9072ZM21.3311 10.2367L20.8646 11.1213L20.8717 11.1249L21.3311 10.2367ZM21.2404 10.1889L21.7068 9.30432L21.693 9.29704L21.679 9.29019L21.2404 10.1889ZM19.4163 9.82344L19.4124 10.8235L19.4226 10.8234L19.4163 9.82344ZM19.204 9.82237L19.2101 8.82239L19.2088 8.82238L19.204 9.82237ZM18.6347 9.82245L18.6373 10.8224L18.6381 10.8224L18.6347 9.82245ZM18.0342 9.82217L18.0358 8.82217L18.0353 8.82217L18.0342 9.82217ZM17.0262 9.82324L17.029 10.8232L17.0291 10.8232L17.0262 9.82324ZM15.8672 9.82288L15.8701 8.82288L15.8699 8.82288L15.8672 9.82288ZM14.8655 9.82236L14.867 10.8224L14.867 10.8224L14.8655 9.82236ZM14.2701 9.82205L14.2735 8.82206L14.273 8.82205L14.2701 9.82205ZM18.2959 12.9723L17.8562 13.8706L17.8688 13.8765L18.2959 12.9723ZM18.435 13.038L18.8857 12.1453L18.874 12.1394L18.8621 12.1338L18.435 13.038ZM20.4257 15.3771L21.3842 15.092L21.3785 15.0731L21.3722 15.0543L20.4257 15.3771ZM20.17 18.5851L21.046 19.0674L21.0511 19.0582L21.056 19.0489L20.17 18.5851ZM17.5308 20.6942L17.7755 21.6638L17.7954 21.6588L17.8151 21.6529L17.5308 20.6942ZM15.1221 20.5777L15.466 19.6387L15.4554 19.6348L15.4447 19.6312L15.1221 20.5777ZM14.9651 20.5242L14.6148 21.4608L14.6286 21.466L14.6425 21.4707L14.9651 20.5242ZM12.7579 18.4613L11.8384 18.8543L11.8439 18.8671L11.8497 18.8797L12.7579 18.4613ZM12.6443 15.1849L11.7237 14.7944L11.7185 14.8066L11.7136 14.819L12.6443 15.1849ZM14.8675 12.8793L14.501 11.9489L14.4849 11.9552L14.4691 11.9621L14.8675 12.8793ZM14.4169 14.7351L13.6773 14.062L13.6534 14.0882L13.6315 14.1161L14.4169 14.7351ZM13.6612 16.9513L12.6671 17.0599L12.6709 17.0949L12.6772 17.1295L13.6612 16.9513ZM14.9061 19.0478L14.332 19.8666L14.3609 19.8869L14.3912 19.9051L14.9061 19.0478ZM17.1341 19.4665L17.3449 20.444L17.3767 20.4371L17.4081 20.4282L17.1341 19.4665ZM19.0183 18.0253L19.8887 18.5177L19.9014 18.4953L19.9129 18.4722L19.0183 18.0253ZM19.2184 15.8054L20.1725 15.506L20.1601 15.4663L20.1443 15.4276L19.2184 15.8054ZM19.1019 15.541L18.1896 15.9505L18.1943 15.9609L18.1992 15.9712L19.1019 15.541ZM19.0484 15.4218L19.9607 15.0122L19.9524 14.9938L19.9434 14.9757L19.0484 15.4218ZM17.3891 13.9796L17.7305 13.0397L17.7018 13.0293L17.6726 13.0206L17.3891 13.9796ZM21.7561 11.2881L22.4815 10.5998L22.3828 10.4957L22.2587 10.4236L21.7561 11.2881ZM22.1497 12.1475L23.1472 12.2178L23.151 12.1645L23.1491 12.1111L22.1497 12.1475ZM21.7782 12.966L22.4227 13.7306L22.4378 13.7178L22.4525 13.7045L21.7782 12.966ZM20.8655 13.2432L20.7405 14.2354L20.7936 14.242L20.8471 14.243L20.8655 13.2432ZM20.1661 12.8212L19.3502 13.3993L19.3829 13.4454L19.4206 13.4876L20.1661 12.8212ZM19.9583 11.8642L18.9997 11.5796L18.9744 11.6646L18.9646 11.7527L19.9583 11.8642ZM14.0138 13.3752L14.461 12.4807L13.9035 12.2021L13.4077 12.5798L14.0138 13.3752ZM14.1146 13.4256L14.8216 14.1328L15.803 13.1516L14.5617 12.5311L14.1146 13.4256ZM13.2582 14.2818H12.2582V16.6957L13.9652 14.989L13.2582 14.2818ZM13.4943 13.8568L14.2267 14.5377L14.2308 14.5333L13.4943 13.8568ZM13.6272 13.7122L12.9181 13.0071L12.9041 13.0212L12.8907 13.0358L13.6272 13.7122ZM4.6941 3.80546L5.14124 2.91099L4.48668 2.58378L3.97679 3.1087L4.6941 3.80546ZM4.79485 3.85582L5.50189 4.563L6.48323 3.58186L5.242 2.96136L4.79485 3.85582ZM3.83769 4.8128L3.39055 5.70726L4.03512 6.02948L4.54473 5.51998L3.83769 4.8128ZM3.73694 4.76243L2.98226 4.10633L2.13577 5.08L3.28979 5.65689L3.73694 4.76243ZM4.51129 3.97545L3.87651 3.20267L3.86799 3.20983L4.51129 3.97545ZM20.5628 11.2598L21.2699 11.967L22.2512 10.9858L21.01 10.3653L20.5628 11.2598ZM20.1095 11.7131H19.1095V14.127L20.8165 12.4203L20.1095 11.7131ZM20.3613 11.2598L19.9142 10.3653L19.7481 10.4483L19.6229 10.5854L20.3613 11.2598ZM11.635 2.68272C11.7527 2.68257 11.8705 2.6824 11.9882 2.68221L11.985 0.682211C11.8675 0.682401 11.7499 0.682572 11.6324 0.682723L11.635 2.68272ZM11.988 2.68221C12.3043 2.68177 12.6208 2.68165 12.9376 2.68161L12.9374 0.681614C12.6203 0.681647 12.3028 0.681768 11.9852 0.682211L11.988 2.68221ZM12.9377 2.68161C13.1702 2.68157 13.4028 2.68143 13.6351 2.68127L13.6337 0.68127C13.4014 0.681426 13.1693 0.681572 12.9373 0.681614L12.9377 2.68161ZM13.6351 2.68127C14.2611 2.68085 14.8872 2.68066 15.5133 2.6807L15.5134 0.680699C14.8869 0.680663 14.2603 0.680853 13.6337 0.68127L13.6351 2.68127ZM15.5133 2.6807C15.5664 2.6807 15.5664 2.6807 15.6206 2.68071L15.6207 0.680706C15.5665 0.680702 15.5665 0.680702 15.5134 0.680699L15.5133 2.6807ZM15.6206 2.68071C15.6738 2.68071 15.6738 2.68071 15.728 2.68071L15.7282 0.680712C15.6739 0.680709 15.6739 0.680709 15.6207 0.680706L15.6206 2.68071ZM15.7281 2.68071C16.3022 2.68073 16.8762 2.68025 17.45 2.67954L17.4475 0.679541C16.8742 0.680251 16.3011 0.680732 15.7281 0.680712L15.7281 2.68071ZM17.4499 2.67954C18.0417 2.67881 18.6335 2.67847 19.2252 2.67851L19.2254 0.678512C18.6327 0.678469 18.0401 0.678813 17.4475 0.679541L17.4499 2.67954ZM19.2252 2.67851C19.5567 2.67853 19.8884 2.67839 20.2203 2.67785L20.2171 0.67785C19.8867 0.678387 19.5562 0.678529 19.2253 0.678512L19.2252 2.67851ZM20.2203 2.67785C20.5312 2.67736 20.8422 2.67736 21.1534 2.67772L21.1557 0.677724C20.843 0.677361 20.5301 0.677355 20.2171 0.67785L20.2203 2.67785ZM21.1541 2.67772C21.2684 2.67778 21.3828 2.67766 21.4973 2.67735L21.4919 0.677356C21.3797 0.677662 21.2674 0.677775 21.155 0.677724L21.1541 2.67772ZM21.4971 2.67735C22.0747 2.67588 22.6392 2.68989 23.2007 2.7312L23.3474 0.736586C22.7218 0.690557 22.1045 0.675798 21.492 0.677356L21.4971 2.67735ZM23.2027 2.73134C23.2819 2.73701 23.2817 2.73699 23.3625 2.74277L23.5052 0.747876C23.4246 0.742108 23.4244 0.742095 23.3455 0.736442L23.2027 2.73134ZM23.353 2.74205C23.8013 2.77841 24.2483 2.87291 24.7286 3.0062L25.2634 1.07902C24.7134 0.926392 24.1337 0.798791 23.5147 0.748596L23.353 2.74205ZM24.7299 3.00654C24.7644 3.01608 24.799 3.02562 24.8345 3.03544L25.3668 1.10757C25.3312 1.09774 25.2967 1.08821 25.2622 1.07867L24.7299 3.00654ZM24.8264 3.03315C26.0211 3.37397 27.0971 4.04331 28.0356 4.93382L29.4122 3.48296C28.2851 2.41353 26.9348 1.5548 25.375 1.10987L24.8264 3.03315ZM28.0381 4.93621C28.062 4.95866 28.0858 4.98111 28.1103 5.00423L29.4819 3.5486C29.4573 3.52548 29.4335 3.50303 29.4097 3.48058L28.0381 4.93621ZM28.1081 5.00212C29.5591 6.37774 30.4127 8.3694 30.4955 10.394L32.4938 10.3123C32.3913 7.80529 31.3394 5.3097 29.4841 3.55072L28.1081 5.00212ZM30.4949 10.3762C30.504 10.7708 30.5021 11.1649 30.502 11.5813L32.502 11.5818C32.5021 11.1793 32.5042 10.7543 32.4944 10.3301L30.4949 10.3762ZM30.502 11.5828C30.5021 11.7064 30.5023 11.8299 30.5025 11.9534L32.5025 11.9503C32.5023 11.827 32.5021 11.7037 32.502 11.5804L30.502 11.5828ZM30.5025 11.9532C30.5029 12.2518 30.503 12.5504 30.5031 12.8492L32.5031 12.849C32.503 12.5497 32.5029 12.2502 32.5025 11.9506L30.5025 11.9532ZM30.5031 12.8492C30.5031 13.093 30.5032 13.3367 30.5034 13.5804L32.5033 13.5791C32.5032 13.3357 32.5031 13.0923 32.5031 12.849L30.5031 12.8492ZM30.5034 13.5804C30.5038 14.273 30.504 14.9656 30.504 15.6582L32.504 15.6583C32.504 14.9652 32.5038 14.2721 32.5033 13.5791L30.5034 13.5804ZM30.504 15.6582C30.504 15.7142 30.504 15.7139 30.504 15.771L32.504 15.7712C32.504 15.7143 32.504 15.714 32.504 15.6583L30.504 15.6582ZM30.504 15.771C30.504 15.8302 30.504 15.8237 30.504 15.884L32.504 15.8841C32.504 15.8303 32.504 15.8238 32.504 15.7712L30.504 15.771ZM30.504 15.884C30.504 16.488 30.5044 17.0918 30.5051 17.6955L32.5051 17.6931C32.5044 17.09 32.504 16.487 32.504 15.8841L30.504 15.884ZM30.5051 17.6955C30.5059 18.317 30.5062 18.9386 30.5062 19.5601L32.5062 19.5602C32.5062 18.9379 32.5059 18.3155 32.5051 17.6932L30.5051 17.6955ZM30.5062 19.5601C30.5062 19.9086 30.5063 20.2574 30.5068 20.6064L32.5068 20.6032C32.5063 20.2558 32.5062 19.9082 32.5062 19.5602L30.5062 19.5601ZM30.5068 20.6064C30.5074 20.9332 30.5073 21.2601 30.507 21.5873L32.507 21.5896C32.5073 21.261 32.5074 20.9322 32.5068 20.6033L30.5068 20.6064ZM30.507 21.588C30.5069 21.7085 30.507 21.829 30.5073 21.9496L32.5073 21.9444C32.507 21.826 32.5069 21.7075 32.507 21.5889L30.507 21.588ZM30.5073 21.9494C30.5095 22.8654 30.4966 23.6717 30.3125 24.4224L32.2549 24.8988C32.505 23.8792 32.5095 22.8409 32.5073 21.9446L30.5073 21.9494ZM30.3112 24.4276C30.3003 24.4731 30.2894 24.5186 30.2782 24.5655L32.2231 25.0315C32.2344 24.9846 32.2453 24.9391 32.2562 24.8936L30.3112 24.4276ZM30.2801 24.5574C30.0182 25.6119 29.5774 26.5887 28.9376 27.4239L30.5253 28.6402C31.3547 27.5575 31.9027 26.3217 32.2211 25.0396L30.2801 24.5574ZM28.9333 27.4296C28.9009 27.4725 28.8686 27.5153 28.8353 27.5595L30.4317 28.7643C30.465 28.7201 30.4973 28.6773 30.5296 28.6344L28.9333 27.4296ZM28.8438 27.5484C27.5393 29.2275 25.6516 30.3452 23.5578 30.6164L23.8147 32.5998C26.4564 32.2577 28.8104 30.8513 30.4231 28.7754L28.8438 27.5484ZM23.5651 30.6155C23.2617 30.6525 22.9543 30.6658 22.6234 30.6655L22.6216 32.6655C23.0067 32.6659 23.3997 32.6505 23.8073 32.6007L23.5651 30.6155ZM22.6197 30.6655C22.6119 30.6656 22.465 30.666 22.4556 30.666L22.4611 32.666C22.5633 32.6657 22.5248 32.6658 22.6253 32.6655L22.6197 30.6655ZM22.456 30.666C22.2768 30.6664 22.0974 30.6665 21.9169 30.6666L21.9178 32.6666C22.098 32.6665 22.2793 32.6664 22.4608 32.666L22.456 30.666ZM21.9156 30.6666C21.7857 30.6668 21.6558 30.6671 21.5259 30.6673L21.5301 32.6673C21.6598 32.6671 21.7895 32.6668 21.9192 32.6666L21.9156 30.6666ZM21.526 30.6673C21.1747 30.668 20.8233 30.6683 20.4715 30.6685L20.4728 32.6685C20.8248 32.6683 21.1773 32.668 21.5299 32.6673L21.526 30.6673ZM20.4715 30.6685C20.251 30.6687 20.0305 30.6689 19.8102 30.6691L19.8122 32.6691C20.0325 32.6689 20.2527 32.6687 20.4728 32.6685L20.4715 30.6685ZM19.8102 30.6691C19.1988 30.6697 18.5875 30.6703 17.9764 30.6704L17.9769 32.6704C18.5888 32.6703 19.2006 32.6697 19.8122 32.6691L19.8102 30.6691ZM17.9764 30.6704C17.9471 30.6704 17.9324 30.6704 17.9176 30.6704C17.9028 30.6705 17.8879 30.6705 17.858 30.6705L17.8586 32.6705C17.8885 32.6705 17.9034 32.6705 17.9182 32.6704C17.933 32.6704 17.9476 32.6704 17.9769 32.6704L17.9764 30.6704ZM17.858 30.6705C17.8263 30.6705 17.7722 30.6705 17.7393 30.6705L17.7399 32.6705C17.7877 32.6705 17.8119 32.6705 17.8586 32.6705L17.858 30.6705ZM17.7393 30.6705C17.66 30.6705 17.5807 30.6705 17.5013 30.6706L17.5019 32.6706C17.5812 32.6705 17.6606 32.6705 17.7399 32.6705L17.7393 30.6705ZM17.5013 30.6706C17.4423 30.6706 17.4423 30.6706 17.3821 30.6706L17.3827 32.6706C17.4429 32.6706 17.4429 32.6706 17.5019 32.6706L17.5013 30.6706ZM17.3821 30.6706C16.7451 30.6708 16.1083 30.6717 15.4718 30.6729L15.4755 32.6728C16.1114 32.6717 16.7471 32.6708 17.3827 32.6706L17.3821 30.6706ZM15.4718 30.6729C14.8172 30.674 14.1625 30.6747 13.5078 30.6747L13.508 32.6747C14.1638 32.6747 14.8196 32.674 15.4755 32.6728L15.4718 30.6729ZM13.5078 30.6747C13.1403 30.6748 12.7724 30.6751 12.4042 30.676L12.4092 32.676C12.7751 32.6751 13.1413 32.6748 13.508 32.6747L13.5078 30.6747ZM12.4042 30.676C12.0598 30.6768 11.7153 30.6769 11.3704 30.6765L11.3679 32.6765C11.7147 32.6769 12.0618 32.6768 12.4092 32.676L12.4042 30.676ZM11.3694 30.6765C11.242 30.6764 11.1145 30.6767 10.9869 30.6772L10.9948 32.6771C11.1194 32.6767 11.2441 32.6764 11.3688 32.6765L11.3694 30.6765ZM10.9871 30.6772C8.53755 30.6863 6.45242 29.9199 4.72986 28.2309L3.32964 29.659C5.465 31.7527 8.07314 32.6881 10.9946 32.6771L10.9871 30.6772ZM4.73963 28.2406C3.32815 26.818 2.51042 24.7585 2.51361 22.7437L0.513616 22.7405C0.509621 25.2635 1.52168 27.8369 3.31988 29.6493L4.73963 28.2406ZM2.51361 22.74C2.5135 22.6861 2.51338 22.6327 2.51327 22.5773L0.513271 22.5815C0.513389 22.6367 0.513503 22.6907 0.513617 22.7442L2.51361 22.74ZM2.51327 22.5776C2.51295 22.4001 2.51299 22.2224 2.51303 22.0436L0.513033 22.0431C0.512991 22.2217 0.512951 22.4013 0.513271 22.5812L2.51327 22.5776ZM2.51303 22.0422C2.51288 21.9135 2.51271 21.7848 2.51252 21.656L0.512522 21.659C0.512712 21.7875 0.512883 21.916 0.513034 22.0445L2.51303 22.0422ZM2.51252 21.6563C2.51212 21.3443 2.51196 21.0322 2.51194 20.7201L0.511935 20.7202C0.511964 21.033 0.512122 21.3458 0.512521 21.6588L2.51252 21.6563ZM2.51194 20.72C2.51191 20.4655 2.51181 20.211 2.51165 19.9566L0.511648 19.9578C0.511807 20.212 0.511911 20.4661 0.511935 20.7202L2.51194 20.72ZM2.51165 19.9566C2.5112 19.2341 2.51097 18.5117 2.51101 17.7892L0.51101 17.7891C0.510972 18.512 0.511205 19.2349 0.511648 19.9578L2.51165 19.9566ZM2.51101 17.7892C2.51101 17.7503 2.51101 17.7115 2.51102 17.6714L0.511016 17.6713C0.511014 17.7113 0.511012 17.7503 0.51101 17.7891L2.51101 17.7892ZM2.51102 17.6714C2.51102 17.6312 2.51102 17.5947 2.51102 17.5534L0.511022 17.5533C0.51102 17.5922 0.511018 17.6335 0.511016 17.6713L2.51102 17.6714ZM2.51102 17.5533C2.51104 16.9226 2.51056 16.2919 2.50985 15.6615L0.509851 15.6637C0.510562 16.2937 0.511043 16.9236 0.511022 17.5533L2.51102 17.5533ZM2.50985 15.6615C2.50912 15.0131 2.50878 14.3648 2.50882 13.7164L0.508822 13.7163C0.508779 14.3654 0.509125 15.0146 0.509851 15.6637L2.50985 15.6615ZM2.50882 13.7164C2.50884 13.3526 2.5087 12.9885 2.50816 12.6242L0.50816 12.6272C0.508704 12.99 0.508839 13.353 0.508822 13.7163L2.50882 13.7164ZM2.50816 12.6242C2.50765 12.2829 2.50767 11.9415 2.50803 11.5998L0.508034 11.5977C0.507669 11.9407 0.507648 12.2838 0.50816 12.6272L2.50816 12.6242ZM2.50803 11.5992C2.50809 11.4733 2.50797 11.3473 2.50766 11.2212L0.507666 11.2262C0.50797 11.3502 0.508086 11.4742 0.508034 11.5983L2.50803 11.5992ZM2.50766 11.2214C2.50563 10.3362 2.5373 9.56523 2.72398 8.812L0.782709 8.33089C0.534029 9.33431 0.505568 10.3101 0.507666 11.226L2.50766 11.2214ZM2.72442 8.81022C2.73749 8.75707 2.75056 8.70392 2.76402 8.64916L0.821873 8.17161C0.808408 8.22637 0.795339 8.27952 0.78227 8.33267L2.72442 8.81022ZM2.76157 8.6589C3.08173 7.41108 3.71169 6.24515 4.5905 5.3299L3.14786 3.9447C2.01616 5.12332 1.22482 6.60087 0.824321 8.16186L2.76157 8.6589ZM4.58668 5.33386C4.73285 5.18329 4.75706 5.15553 4.88475 4.99108L3.30503 3.76451C3.24636 3.84007 3.23942 3.84844 3.23359 3.85514C3.22744 3.86221 3.21941 3.87097 3.15167 3.94075L4.58668 5.33386ZM4.87507 5.00335C4.94561 4.91537 5.0327 4.84124 5.23231 4.67543L3.95438 3.13696C3.79523 3.26916 3.53659 3.47552 3.31471 3.75224L4.87507 5.00335ZM5.23486 4.6733C5.27536 4.63943 5.27536 4.63943 5.31668 4.60488L4.03364 3.07066C3.99233 3.10521 3.99233 3.10521 3.95183 3.13908L5.23486 4.6733ZM5.31498 4.6063C5.7101 4.27735 6.08487 4.00232 6.49684 3.76891L5.51096 2.02879C4.96206 2.33977 4.48727 2.693 4.03534 3.06925L5.31498 4.6063ZM6.50721 3.76296C6.56383 3.72998 6.62046 3.69699 6.6788 3.66301L5.67219 1.93479C5.61385 1.96878 5.55722 2.00176 5.5006 2.03474L6.50721 3.76296ZM6.66972 3.66824C8.13163 2.83714 9.75557 2.68224 11.6335 2.68272L11.634 0.682722C9.68712 0.682218 7.6181 0.828479 5.68128 1.92957L6.66972 3.66824ZM8.05956 2.32399C8.01655 2.33672 7.97409 2.34928 7.92977 2.36239L8.49721 4.28021C8.54115 4.26721 8.58435 4.25442 8.627 4.24181L8.05956 2.32399ZM7.91809 2.36593C7.06801 2.62877 6.25763 3.01503 5.51884 3.54905L6.69047 5.16994C7.23543 4.77602 7.8455 4.48179 8.50889 4.27667L7.91809 2.36593ZM5.52338 3.54579C5.49526 3.56587 5.46714 3.58596 5.43817 3.60666L6.60072 5.23407C6.62969 5.21338 6.65781 5.19329 6.68593 5.1732L5.52338 3.54579ZM5.43334 3.61013C3.62719 4.91666 2.40645 6.81381 1.95201 8.99036L3.9098 9.39912C4.26332 7.7059 5.20658 6.24258 6.60555 5.2306L5.43334 3.61013ZM1.95427 8.97982C1.94548 9.01976 1.93682 9.05915 1.92776 9.1003L3.88103 9.53013C3.89 9.48935 3.89883 9.44922 3.90754 9.40965L1.95427 8.97982ZM1.92147 9.13122C1.78539 9.85821 1.81571 10.6046 1.81632 11.1635L3.81632 11.1613C3.81558 10.4849 3.79518 9.99149 3.88732 9.4992L1.92147 9.13122ZM1.81632 11.1608C1.8161 11.2937 1.81584 11.4266 1.81554 11.5595L3.81553 11.564C3.81584 11.4307 3.81609 11.2974 3.81631 11.1641L1.81632 11.1608ZM1.81554 11.5598C1.8149 11.8837 1.8148 12.2074 1.81492 12.5306L3.81492 12.5299C3.8148 12.2075 3.8149 11.8855 3.81553 11.5637L1.81554 11.5598ZM1.81492 12.5306C1.81501 12.7929 1.81492 13.0552 1.81471 13.3177L3.81471 13.3193C3.81492 13.0562 3.81501 12.7931 3.81492 12.5299L1.81492 12.5306ZM1.81471 13.3177C1.81467 13.3723 1.81466 13.3757 1.81462 13.4314L3.81462 13.433C3.81463 13.4114 3.81469 13.3398 3.81471 13.3193L1.81471 13.3177ZM1.81462 13.4314C1.81456 13.5077 1.8145 13.584 1.81443 13.6602L3.81443 13.6618C3.8145 13.5856 3.81456 13.5093 3.81462 13.433L1.81462 13.4314ZM1.81443 13.6603C1.81389 14.3747 1.81399 15.089 1.8143 15.8031L3.8143 15.8022C3.81399 15.0885 3.81389 14.3751 3.81443 13.6618L1.81443 13.6603ZM1.8143 15.803C1.81456 16.4535 1.814 17.104 1.81304 17.7549L3.81304 17.7578C3.81399 17.1062 3.81456 16.4543 3.8143 15.8022L1.8143 15.803ZM1.81304 17.7549C1.81206 18.4261 1.81165 19.0972 1.81184 19.7684L3.81184 19.7679C3.81165 19.0979 3.81206 18.4279 3.81304 17.7578L1.81304 17.7549ZM1.81184 19.7684C1.81193 20.1438 1.81181 20.5187 1.8111 20.8934L3.81109 20.8972C3.81181 20.5205 3.81193 20.144 3.81184 19.7679L1.81184 19.7684ZM1.8111 20.8934C1.81049 21.2145 1.81043 21.5357 1.81103 21.857L3.81103 21.8533C3.81043 21.5347 3.81049 21.216 3.81109 20.8972L1.8111 20.8934ZM1.81103 21.857C1.81133 22.0185 1.81131 22.1796 1.81079 22.3404L3.81078 22.3468C3.81131 22.182 3.81133 22.0174 3.81103 21.8533L1.81103 21.857ZM1.81078 22.3406C1.80805 23.2516 1.85021 24.2173 2.16635 25.2171L4.07329 24.6141C3.85285 23.917 3.80821 23.2029 3.81078 22.3466L1.81078 22.3406ZM2.16472 25.2119C2.17766 25.2536 2.19059 25.2953 2.20392 25.3382L4.11411 24.7456C4.10078 24.7027 4.08785 24.661 4.07491 24.6193L2.16472 25.2119ZM2.20642 25.3462C2.92277 27.5891 4.50667 29.3548 6.53065 30.4346L7.47206 28.67C5.86519 27.8127 4.65545 26.4405 4.11161 24.7377L2.20642 25.3462ZM6.54374 30.4414C8.02406 31.2033 9.50059 31.3804 11.0099 31.3742L11.0016 29.3742C9.65902 29.3797 8.54232 29.2207 7.45897 28.6631L6.54374 30.4414ZM11.0043 31.3742C11.1382 31.3744 11.272 31.3746 11.4058 31.375L11.4113 29.375C11.2765 29.3747 11.1418 29.3744 11.0072 29.3742L11.0043 31.3742ZM11.4064 31.375C11.7325 31.3757 12.058 31.3753 12.3827 31.3746L12.378 29.3746C12.0548 29.3753 11.7325 29.3757 11.4107 29.375L11.4064 31.375ZM12.3826 31.3746C12.7595 31.3737 13.1367 31.3739 13.5154 31.3741L13.5164 29.3741C13.138 29.3739 12.7582 29.3737 12.3781 29.3746L12.3826 31.3746ZM13.5154 31.3741C14.1923 31.3744 14.8689 31.3737 15.5453 31.3724L15.5416 29.3724C14.8663 29.3737 14.1912 29.3744 13.5163 29.3741L13.5154 31.3741ZM15.5453 31.3724C16.1981 31.3712 16.8508 31.3709 17.5035 31.3714L17.5052 29.3714C16.8506 29.3709 16.1961 29.3712 15.5416 29.3724L15.5453 31.3724ZM17.5035 31.3714C18.2187 31.372 18.934 31.3721 19.6495 31.3713L19.6475 29.3713C18.9335 29.3721 18.2194 29.372 17.5052 29.3714L17.5035 31.3714ZM19.6495 31.3713C19.7259 31.3713 19.8022 31.3712 19.8786 31.3711L19.8766 29.3711C19.8002 29.3712 19.7238 29.3713 19.6475 29.3713L19.6495 31.3713ZM19.8786 31.3711C19.8974 31.3711 19.9162 31.3711 19.9351 31.371C19.954 31.371 19.9731 31.371 19.9925 31.371L19.9904 29.371C19.9711 29.371 19.952 29.371 19.9331 29.371C19.9142 29.3711 19.8954 29.3711 19.8766 29.3711L19.8786 31.3711ZM19.9924 31.371C20.2545 31.3708 20.5168 31.3708 20.7795 31.3711L20.7811 29.3711C20.5179 29.3708 20.2543 29.3707 19.9906 29.371L19.9924 31.371ZM20.7795 31.3711C21.1015 31.3713 21.4237 31.371 21.746 31.37L21.7398 29.37C21.4203 29.371 21.1008 29.3713 20.7811 29.3711L20.7795 31.3711ZM21.7459 31.37C21.9079 31.3695 22.0695 31.3693 22.2307 31.3696L22.2346 29.3696C22.0693 29.3693 21.9043 29.3695 21.7399 29.37L21.7459 31.37ZM22.2309 31.3696C22.9282 31.3708 23.6758 31.3546 24.4655 31.1721L24.0152 29.2235C23.4631 29.3511 22.9101 29.3708 22.2344 29.3696L22.2309 31.3696ZM24.463 31.1727C24.5233 31.1589 24.5485 31.1532 24.6103 31.1391L24.1649 29.1893C24.1266 29.1981 24.0546 29.2145 24.0177 29.2229L24.463 31.1727ZM24.6202 31.1368C26.0612 30.7921 27.3519 30.0536 28.4028 29.0614L27.0299 27.6071C26.2115 28.3797 25.2276 28.9351 24.155 29.1916L24.6202 31.1368ZM28.3599 29.0997C28.4187 29.0503 28.4773 29.0015 28.5359 28.9535L27.2684 27.4064C27.2025 27.4604 27.1373 27.5146 27.0729 27.5688L28.3599 29.0997ZM28.5534 28.9388C29.7218 27.936 30.4413 26.4645 30.846 25.1778L28.9381 24.5777C28.5896 25.6858 28.0215 26.7597 27.2508 27.4212L28.5534 28.9388ZM30.843 25.1872C30.855 25.1503 30.8669 25.1135 30.8793 25.0755L28.9774 24.4567C28.9651 24.4947 28.9531 24.5315 28.9411 24.5684L30.843 25.1872ZM30.8862 25.0535C31.2025 23.9996 31.207 22.9386 31.2052 22.0255L29.2052 22.0295C29.2071 22.9656 29.1907 23.7453 28.9706 24.4786L30.8862 25.0535ZM31.2052 22.0297C31.2055 21.9003 31.2058 21.771 31.2062 21.6416L29.2063 21.6353C29.2058 21.7652 29.2055 21.8952 29.2052 22.0253L31.2052 22.0297ZM31.2062 21.6412C31.2071 21.3263 31.2072 21.0117 31.2069 20.6979L29.2069 20.6996C29.2072 21.0122 29.2071 21.3241 29.2063 21.6357L31.2062 21.6412ZM31.2069 20.6979C31.2067 20.4436 31.2068 20.1891 31.207 19.9345L29.207 19.9324C29.2068 20.188 29.2067 20.4437 29.2069 20.6995L31.2069 20.6979ZM31.207 19.9345C31.2071 19.8242 31.207 19.9351 31.2071 19.8237L29.2071 19.8216C29.2071 19.8405 29.2071 19.859 29.2071 19.8774C29.2071 19.8959 29.2071 19.9141 29.207 19.9324L31.207 19.9345ZM31.2071 19.8237C31.2072 19.7494 31.2073 19.6751 31.2074 19.6008L29.2074 19.5987C29.2073 19.673 29.2072 19.7474 29.2071 19.8216L31.2071 19.8237ZM31.2074 19.6007C31.2081 18.9057 31.2078 18.211 31.2072 17.5166L29.2072 17.5183C29.2078 18.2121 29.2081 18.9055 29.2074 19.5987L31.2074 19.6007ZM31.2072 17.5167C31.2067 16.8857 31.2074 16.2546 31.2086 15.623L29.2086 15.6192C29.2074 16.2519 29.2067 16.8849 29.2072 17.5182L31.2072 17.5167ZM31.2086 15.623C31.2098 14.9699 31.2103 14.3168 31.2099 13.6637L29.2099 13.6647C29.2103 14.3162 29.2098 14.9677 29.2086 15.6192L31.2086 15.623ZM31.2099 13.6638C31.2098 13.2993 31.2099 12.9355 31.2108 12.5719L29.2108 12.5671C29.2099 12.9333 29.2098 13.2993 29.2099 13.6647L31.2099 13.6638ZM31.2108 12.5719C31.2116 12.2263 31.2113 11.8811 31.2104 11.5363L29.2104 11.5418C29.2113 11.884 29.2116 12.2257 29.2108 12.5671L31.2108 12.5719ZM31.2104 11.5376C31.2102 11.4143 31.2104 11.2912 31.2109 11.1682L29.2109 11.1596C29.2104 11.2867 29.2102 11.4137 29.2104 11.5405L31.2104 11.5376ZM31.2109 11.1678C31.2172 9.55381 30.9584 7.95291 30.0975 6.43493L28.3578 7.42151C28.9935 8.54239 29.2164 9.76763 29.2109 11.16L31.2109 11.1678ZM30.0982 6.43609C30.0793 6.40267 30.0604 6.36926 30.041 6.33484L28.2999 7.3191C28.3194 7.35352 28.3383 7.38694 28.3572 7.42035L30.0982 6.43609ZM30.0375 6.32872C29.6967 5.7357 29.302 5.22078 28.8519 4.73643L27.3869 6.09798C27.7494 6.48806 28.0488 6.88221 28.3034 7.32521L30.0375 6.32872ZM28.8542 4.73897C28.8311 4.71385 28.8079 4.68873 28.784 4.66285L27.3143 6.01932C27.3382 6.0452 27.3614 6.07032 27.3845 6.09544L28.8542 4.73897ZM28.7804 4.65903C27.3187 3.09173 25.1466 2.07334 22.9865 1.99551L22.9145 3.99421C24.5316 4.05247 26.2078 4.83295 27.3178 6.02315L28.7804 4.65903ZM22.9647 1.99496C22.8172 1.99286 22.6713 1.99238 22.5282 1.99251L22.53 3.99251C22.6679 3.99239 22.8028 3.99286 22.9363 3.99476L22.9647 1.99496ZM22.5319 1.99251C22.4518 1.99229 22.4518 1.99229 22.3701 1.99206L22.3645 3.99205C22.4462 3.99228 22.4462 3.99228 22.5263 3.99251L22.5319 1.99251ZM22.3698 1.99206C22.1909 1.99162 22.0123 1.99154 21.8347 1.99147L21.8339 3.99147C22.0117 3.99154 22.1884 3.99162 22.3649 3.99205L22.3698 1.99206ZM21.8361 1.99147C21.7083 1.99124 21.5805 1.99098 21.4527 1.99071L21.4485 3.99071C21.5765 3.99098 21.7045 3.99123 21.8325 3.99147L21.8361 1.99147ZM21.4525 1.99071C21.1052 1.99005 20.758 1.98972 20.4111 1.9895L20.4098 3.9895C20.7563 3.98972 21.1026 3.99005 21.4487 3.99071L21.4525 1.99071ZM20.4111 1.9895C20.1942 1.98936 19.9774 1.98915 19.7603 1.98892L19.7583 3.98892C19.9753 3.98915 20.1925 3.98936 20.4098 3.9895L20.4111 1.9895ZM19.7603 1.98892C19.1578 1.98831 18.5552 1.98779 17.9524 1.98762L17.9518 3.98762C18.5539 3.98779 19.156 3.98831 19.7583 3.98892L19.7603 1.98892ZM17.9524 1.98762C17.8947 1.9876 17.8946 1.9876 17.8358 1.98758L17.8352 3.98758C17.8941 3.9876 17.8941 3.9876 17.9518 3.98762L17.9524 1.98762ZM17.8358 1.98758C17.7972 1.98757 17.7586 1.98756 17.7189 1.98755L17.7183 3.98755C17.7581 3.98756 17.7966 3.98757 17.8352 3.98758L17.8358 1.98758ZM17.7189 1.98755C17.6408 1.98753 17.5626 1.98751 17.4845 1.98748L17.4839 3.98748C17.5621 3.98751 17.6402 3.98753 17.7183 3.98755L17.7189 1.98755ZM17.4845 1.98748C17.41 1.98746 17.4428 1.98747 17.367 1.98745L17.3665 3.98745C17.3701 3.98745 17.4815 3.98748 17.4839 3.98748L17.4845 1.98748ZM17.3671 1.98745C16.7409 1.98725 16.1147 1.98637 15.4881 1.9852L15.4844 3.9852C16.1115 3.98637 16.7389 3.98725 17.3664 3.98745L17.3671 1.98745ZM15.4881 1.9852C14.842 1.984 14.1959 1.98338 13.5498 1.98332L13.5496 3.98332C14.1945 3.98338 14.8395 3.984 15.4844 3.9852L15.4881 1.9852ZM13.5498 1.98332C13.1886 1.98327 12.8278 1.98299 12.4673 1.98207L12.4622 3.98206C12.825 3.98299 13.1875 3.98327 13.5496 3.98332L13.5498 1.98332ZM12.4673 1.98207C12.1251 1.9812 11.7831 1.98113 11.4415 1.98157L11.444 3.98157C11.7837 3.98113 12.1231 3.9812 12.4622 3.98206L12.4673 1.98207ZM11.4424 1.98157C11.3195 1.98161 11.1967 1.9814 11.074 1.9809L11.066 3.98089C11.1917 3.98139 11.3175 3.98161 11.4431 3.98157L11.4424 1.98157ZM11.0738 1.9809C10.1381 1.97735 9.09086 2.01168 8.05346 2.32582L8.6331 4.23998C9.3685 4.01729 10.1634 3.97746 11.0662 3.98089L11.0738 1.9809ZM13.5159 9.58221C13.5878 9.58198 13.6598 9.58172 13.7318 9.58145L13.7242 7.58147C13.6526 7.58174 13.581 7.58199 13.5094 7.58222L13.5159 9.58221ZM13.7314 9.58145C13.9246 9.5808 14.1181 9.58047 14.3122 9.58025L14.3099 7.58025C14.1152 7.58047 13.92 7.5808 13.7246 7.58146L13.7314 9.58145ZM14.3122 9.58025C14.4343 9.5801 14.5563 9.57989 14.6782 9.57967L14.6745 7.57967C14.5528 7.5799 14.4313 7.5801 14.3098 7.58025L14.3122 9.58025ZM14.6781 9.57967C15.0598 9.57898 15.4413 9.57849 15.8228 9.5783L15.8218 7.5783C15.4393 7.57849 15.0569 7.57898 14.6745 7.57967L14.6781 9.57967ZM15.8228 9.5783C16.2628 9.57807 16.7028 9.57719 17.1428 9.57573L17.1361 7.57574C16.6979 7.5772 16.2598 7.57808 15.8218 7.5783L15.8228 9.5783ZM17.1427 9.57573C17.4821 9.57464 17.8216 9.57413 18.1613 9.57407L18.161 7.57407C17.8195 7.57413 17.4779 7.57464 17.1362 7.57574L17.1427 9.57573ZM18.1614 9.57407C18.3649 9.57401 18.5693 9.57372 18.7741 9.57281L18.7652 7.57283C18.5643 7.57373 18.363 7.57401 18.1609 7.57407L18.1614 9.57407ZM18.774 9.57281C18.9627 9.57198 19.1516 9.57188 19.3409 9.57232L19.3455 7.57232C19.1525 7.57188 18.959 7.57198 18.7652 7.57283L18.774 9.57281ZM19.3427 9.57232C19.4493 9.57238 19.5552 9.57167 19.6572 9.57095L19.6431 7.571C19.5405 7.57172 19.4418 7.57237 19.3438 7.57232L19.3427 9.57232ZM19.6457 9.57096C20.7294 9.5758 21.717 10.0074 22.5282 10.7919L23.9186 9.35417C22.773 8.24631 21.3025 7.57834 19.6546 7.57098L19.6457 9.57096ZM22.504 10.7676C23.2529 11.5432 23.6091 12.5305 23.6068 13.6597L25.6068 13.6637C25.61 12.0845 25.0983 10.5751 23.9427 9.37838L22.504 10.7676ZM23.6068 13.6647C23.6071 13.7379 23.6073 13.8111 23.6076 13.8842L25.6076 13.876C25.6073 13.8035 25.6071 13.7311 25.6068 13.6587L23.6068 13.6647ZM23.6076 13.8835C23.6083 14.0776 23.6083 14.2722 23.6082 14.468L25.6082 14.4693C25.6083 14.2727 25.6083 14.0749 25.6076 13.8767L23.6076 13.8835ZM23.6082 14.4683C23.6081 14.6339 23.6084 14.7994 23.6086 14.9638L25.6086 14.9609C25.6084 14.7961 25.6081 14.6325 25.6082 14.4689L23.6082 14.4683ZM23.6086 14.9637C23.6092 15.3516 23.6092 15.7396 23.6089 16.1278L25.6089 16.1293C25.6092 15.74 25.6092 15.3505 25.6086 14.9609L23.6086 14.9637ZM23.6089 16.1278C23.6086 16.5284 23.6092 16.9288 23.6103 17.3287L25.6103 17.3233C25.6092 16.9249 25.6086 16.5269 25.6089 16.1293L23.6089 16.1278ZM23.6103 17.3286C23.6112 17.6718 23.6115 18.0151 23.6113 18.3586L25.6113 18.3595C25.6115 18.0143 25.6112 17.6689 25.6103 17.3234L23.6103 17.3286ZM23.6113 18.3586C23.6112 18.5642 23.6114 18.7705 23.6121 18.9773L25.6121 18.9704C25.6114 18.7673 25.6112 18.5638 25.6113 18.3595L23.6113 18.3586ZM23.6121 18.9771C23.6127 19.1675 23.6126 19.3583 23.6119 19.5494L25.6119 19.5561C25.6126 19.3613 25.6127 19.1661 25.6121 18.9705L23.6121 18.9771ZM23.6119 19.5511C23.6118 19.6236 23.612 19.6964 23.6124 19.7693L25.6124 19.7573C25.612 19.6899 25.6118 19.6223 25.6119 19.5545L23.6119 19.5511ZM23.6124 19.7689C23.6186 20.892 23.2087 21.8918 22.418 22.6982L23.8461 24.0984C25.0005 22.921 25.6216 21.4161 25.6124 19.7578L23.6124 19.7689ZM22.4326 22.6836C21.6244 23.4746 20.5392 23.8155 19.2876 23.8167L19.2894 25.8167C20.9006 25.8152 22.5479 25.3693 23.8316 24.1129L22.4326 22.6836ZM19.2847 23.8167C19.2188 23.8169 19.153 23.8172 19.0852 23.8174L19.0928 25.8174C19.1606 25.8171 19.2264 25.8169 19.2923 25.8166L19.2847 23.8167ZM19.0853 23.8174C18.9069 23.8181 18.7282 23.8184 18.549 23.8186L18.5515 25.8186C18.7314 25.8184 18.9119 25.8181 19.0926 25.8174L19.0853 23.8174ZM18.5489 23.8186C18.4359 23.8188 18.3229 23.819 18.2101 23.8192L18.2141 25.8192C18.3267 25.819 18.4392 25.8188 18.5515 25.8186L18.5489 23.8186ZM18.2102 23.8192C17.8564 23.8199 17.5028 23.8204 17.1492 23.8206L17.1503 25.8206C17.505 25.8204 17.8596 25.8199 18.214 25.8192L18.2102 23.8192ZM17.1492 23.8206C16.7422 23.8208 16.3352 23.8217 15.9282 23.8231L15.9354 25.8231C16.3405 25.8217 16.7454 25.8208 17.1503 25.8206L17.1492 23.8206ZM15.9284 23.8231C15.614 23.8242 15.2995 23.8247 14.9849 23.8248L14.9853 25.8248C15.3018 25.8247 15.6185 25.8242 15.9353 25.8231L15.9284 23.8231ZM14.9848 23.8248C14.7964 23.8249 14.6071 23.8251 14.4173 23.8261L14.427 25.826C14.6125 25.8251 14.7985 25.8249 14.9853 25.8248L14.9848 23.8248ZM14.4176 23.8261C13.3958 23.8308 12.982 23.8307 12.7059 23.7984C12.5014 23.7746 12.4033 23.7401 11.9728 23.5682L11.2313 25.4256C11.6479 25.5919 11.9734 25.7265 12.474 25.785C12.9029 25.835 13.4756 25.8304 14.4268 25.826L14.4176 23.8261ZM11.9617 23.5638C11.9027 23.5411 11.9027 23.5411 11.8424 23.5178L11.1231 25.384C11.1834 25.4072 11.1834 25.4072 11.2424 25.43L11.9617 23.5638ZM11.8543 23.5225C11.4136 23.3461 11.0184 23.0723 10.5947 22.6986L9.27188 24.1986C9.79133 24.6567 10.3814 25.0872 11.1112 25.3793L11.8543 23.5225ZM10.5876 22.6924C10.5406 22.6517 10.5406 22.6517 10.4926 22.6102L9.18394 24.1226C9.23194 24.1641 9.23194 24.1641 9.27898 24.2048L10.5876 22.6924ZM10.5183 22.6332C9.81315 21.9791 9.43949 20.9636 9.36962 19.8598L7.37362 19.9861C7.46382 21.4113 7.95741 22.9857 9.15821 24.0996L10.5183 22.6332ZM9.37096 19.8866C9.35516 19.452 9.35718 19.015 9.35808 18.5508L7.35809 18.5469C7.35721 18.9988 7.3548 19.4782 7.37228 19.9592L9.37096 19.8866ZM9.35808 18.5503C9.35834 18.372 9.3581 18.1936 9.35794 18.0175L7.35795 18.0192C7.3581 18.1968 7.35834 18.3721 7.35809 18.5474L9.35808 18.5503ZM9.35794 18.0177C9.35776 17.722 9.358 17.4261 9.35848 17.13L7.35848 17.1267C7.358 17.4239 7.35776 17.7214 7.35795 18.019L9.35794 18.0177ZM9.35848 17.13C9.35903 16.7882 9.35885 16.4466 9.3583 16.1055L7.3583 16.1088C7.35885 16.4485 7.35903 16.7877 7.35848 17.1268L9.35848 17.13ZM9.3583 16.1056C9.35784 15.8114 9.35778 15.5172 9.35804 15.2229L7.35804 15.2211C7.35778 15.5169 7.35784 15.8128 7.3583 16.1087L9.3583 16.1056ZM9.35804 15.2229C9.3582 15.0475 9.35822 14.8714 9.35788 14.6951L7.35789 14.6989C7.35822 14.8726 7.3582 15.0465 7.35804 15.2211L9.35804 15.2229ZM9.35788 14.6957C9.35555 12.933 9.55819 11.7467 10.6101 10.6623L9.1746 9.26971C7.56572 10.9283 7.35535 12.784 7.35789 14.6983L9.35788 14.6957ZM10.5969 10.6756C11.3494 9.92856 12.3599 9.58309 13.5134 9.58222L13.5119 7.58222C11.9538 7.5834 10.3936 8.05927 9.18783 9.25632L10.5969 10.6756ZM10.1934 10.0438C10.1472 10.0829 10.1472 10.0829 10.1001 10.1229L11.3935 11.6483C11.4407 11.6084 11.4407 11.6084 11.4868 11.5692L10.1934 10.0438ZM10.0744 10.1454C9.14069 10.9937 8.71872 12.209 8.63405 13.2977L10.628 13.4527C10.6855 12.7143 10.9659 12.0376 11.4192 11.6257L10.0744 10.1454ZM8.63158 13.3423C8.62381 13.5783 8.62364 13.811 8.62372 14.027L10.6237 14.0262C10.6236 13.8077 10.624 13.6064 10.6305 13.4081L8.63158 13.3423ZM8.62373 14.0239C8.62356 14.0878 8.62339 14.1517 8.62322 14.2175L10.6232 14.2228C10.6234 14.157 10.6236 14.0931 10.6237 14.0292L8.62373 14.0239ZM8.62322 14.2176C8.62277 14.3927 8.62265 14.5677 8.62262 14.7419L10.6226 14.7423C10.6226 14.5686 10.6228 14.3955 10.6232 14.2226L8.62322 14.2176ZM8.62262 14.7418C8.62258 14.8504 8.62247 14.9592 8.62234 15.0681L10.6223 15.0706C10.6225 14.9614 10.6226 14.8519 10.6226 14.7425L8.62262 14.7418ZM8.62234 15.0681C8.62188 15.4501 8.62167 15.8321 8.62171 16.2141L10.6217 16.2139C10.6217 15.8328 10.6219 15.4517 10.6223 15.0706L8.62234 15.0681ZM8.62171 16.2141C8.62174 16.567 8.62121 16.9202 8.62041 17.2737L10.6204 17.2782C10.6212 16.9237 10.6217 16.5689 10.6217 16.2139L8.62171 16.2141ZM8.62041 17.2738C8.61975 17.5799 8.61948 17.886 8.61951 18.1919L10.6195 18.1917C10.6195 17.8871 10.6197 17.5826 10.6204 17.2781L8.62041 17.2738ZM8.61951 18.1919C8.61953 18.3731 8.61939 18.5537 8.61885 18.7341L10.6188 18.74C10.6194 18.5568 10.6195 18.374 10.6195 18.1918L8.61951 18.1919ZM8.61885 18.7341C8.61826 18.9396 8.6185 19.1447 8.61881 19.3477L10.6188 19.3447C10.6185 19.1416 10.6183 18.9405 10.6188 18.7399L8.61885 18.7341ZM8.61882 19.3414C8.61853 19.4005 8.61825 19.4596 8.61796 19.5205L10.6179 19.5301C10.6182 19.4692 10.6185 19.4101 10.6188 19.351L8.61882 19.3414ZM8.61795 19.5291C8.62249 20.7355 8.9352 21.8741 9.76815 22.8782L11.3075 21.6014C10.8271 21.0222 10.6211 20.3612 10.6179 19.5216L8.61795 19.5291ZM9.74384 22.8478C9.77586 22.8896 9.80787 22.9314 9.84086 22.9745L11.4288 21.7586C11.3958 21.7155 11.3638 21.6737 11.3318 21.6319L9.74384 22.8478ZM9.86728 23.0075C10.6873 23.9894 11.885 24.4097 12.9318 24.5415L13.1816 22.5572C12.4212 22.4615 11.7816 22.1797 11.4024 21.7256L9.86728 23.0075ZM12.9985 24.5477C13.2616 24.563 13.5177 24.5637 13.7489 24.5632L13.7448 22.5632C13.515 22.5637 13.3121 22.5626 13.1149 22.5511L12.9985 24.5477ZM13.743 24.5632C13.8279 24.5635 13.8566 24.5636 13.9435 24.564L13.9513 22.564C13.9019 22.5638 13.7982 22.5634 13.7508 22.5632L13.743 24.5632ZM13.9437 24.564C14.1257 24.5646 14.3072 24.5647 14.4874 24.5646L14.486 22.5646C14.3067 22.5647 14.1287 22.5646 13.9512 22.564L13.9437 24.564ZM14.4871 24.5646C14.6369 24.5645 14.7868 24.5647 14.938 24.565L14.9412 22.565C14.7904 22.5647 14.6385 22.5645 14.4864 22.5646L14.4871 24.5646ZM14.938 24.565C15.2956 24.5655 15.6531 24.5656 16.0103 24.5653L16.0086 22.5653C15.6526 22.5656 15.2968 22.5655 14.9412 22.565L14.938 24.565ZM16.0103 24.5653C16.3745 24.565 16.7391 24.5656 17.1042 24.5666L17.11 22.5667C16.7434 22.5656 16.3762 22.565 16.0086 22.5653L16.0103 24.5653ZM17.1043 24.5666C17.4215 24.5675 17.7386 24.5678 18.0556 24.5677L18.0545 22.5677C17.7395 22.5678 17.4247 22.5675 17.1099 22.5667L17.1043 24.5666ZM18.0555 24.5677C18.2427 24.5676 18.4291 24.5677 18.615 24.5684L18.6225 22.5684C18.4326 22.5677 18.2431 22.5676 18.0546 22.5677L18.0555 24.5677ZM18.6151 24.5684C18.8286 24.5692 19.0415 24.5687 19.2513 24.5681L19.2458 22.5681C19.0358 22.5687 18.8288 22.5692 18.6224 22.5684L18.6151 24.5684ZM19.2423 24.5681C19.3031 24.5685 19.364 24.5689 19.4267 24.5693L19.4394 22.5693C19.3766 22.5689 19.3158 22.5685 19.2549 22.5681L19.2423 24.5681ZM19.4391 24.5693C20.8122 24.5609 22.0311 24.0829 23.027 23.1041L21.6251 21.6777C21.0148 22.2775 20.3006 22.564 19.427 22.5693L19.4391 24.5693ZM23.0257 23.1054C23.0573 23.0744 23.089 23.0435 23.1215 23.0115L21.7222 21.5826C21.6896 21.6145 21.658 21.6455 21.6264 21.6764L23.0257 23.1054ZM23.1489 22.9837C23.8624 22.2282 24.3366 21.1603 24.341 20.074L22.341 20.0659C22.3388 20.5992 22.0919 21.19 21.6949 21.6104L23.1489 22.9837ZM24.341 20.0758C24.3415 19.9851 24.3415 19.9819 24.3421 19.8893L22.3421 19.8776C22.3419 19.9118 22.3412 20.0317 22.341 20.0641L24.341 20.0758ZM24.3421 19.8855C24.3422 19.8177 24.3424 19.7498 24.3425 19.6819L22.3425 19.678C22.3424 19.7458 22.3422 19.8136 22.3421 19.8813L24.3421 19.8855ZM24.3425 19.6844C24.3428 19.6128 24.3431 19.5412 24.3435 19.4696L22.3435 19.4598C22.3432 19.5317 22.3428 19.6036 22.3425 19.6756L24.3425 19.6844ZM24.3435 19.4692C24.3446 19.2325 24.3451 18.996 24.3456 18.7607L22.3456 18.7565C22.3451 18.9919 22.3446 19.2262 22.3435 19.4602L24.3435 19.4692ZM24.3456 18.7611C24.3458 18.6798 24.346 18.5985 24.3462 18.5172L22.3462 18.512C22.346 18.5934 22.3458 18.6747 22.3456 18.7561L24.3456 18.7611ZM24.3462 18.5171C24.3472 18.1343 24.3479 17.7513 24.3483 17.3684L22.3483 17.3662C22.3479 17.7481 22.3472 18.1301 22.3462 18.5121L24.3462 18.5171ZM24.3483 17.3684C24.3488 16.9298 24.3501 16.4912 24.3521 16.0524L22.3522 16.0432C22.3501 16.4841 22.3488 16.9251 22.3483 17.3662L24.3483 17.3684ZM24.3521 16.0523C24.3537 15.7098 24.3544 15.3676 24.3546 15.0255L22.3546 15.0245C22.3544 15.3644 22.3537 15.7039 22.3522 16.0433L24.3521 16.0523ZM24.3546 15.0256C24.3547 14.8234 24.3551 14.6224 24.3564 14.4219L22.3564 14.4093C22.3551 14.6151 22.3547 14.8203 22.3546 15.0244L24.3546 15.0256ZM24.3564 14.4218C24.3576 14.2268 24.3578 14.0323 24.3573 13.8382L22.3573 13.8436C22.3578 14.0327 22.3576 14.2213 22.3564 14.4095L24.3564 14.4218ZM24.3573 13.8406C24.3573 13.7438 24.3582 13.646 24.3592 13.5431L22.3593 13.5236C22.3583 13.6257 22.3573 13.733 22.3573 13.8413L24.3573 13.8406ZM24.3592 13.5278C24.3521 12.2553 23.8613 11.1141 22.9967 10.2143L21.5546 11.6001C22.0813 12.1482 22.3551 12.8037 22.3592 13.5389L24.3592 13.5278ZM22.9741 10.1915C22.6074 9.83369 22.2148 9.56795 21.7905 9.34849L20.8717 11.1249C21.1509 11.2694 21.3746 11.4251 21.5772 11.6229L22.9741 10.1915ZM21.7976 9.35216C21.7676 9.33638 21.7377 9.32059 21.7068 9.30432L20.7739 11.0734C20.8048 11.0897 20.8347 11.1055 20.8646 11.1212L21.7976 9.35216ZM21.679 9.29019C20.9127 8.91617 20.1453 8.8188 19.4099 8.82346L19.4226 10.8234C19.9691 10.82 20.4028 10.8928 20.8017 11.0875L21.679 9.29019ZM19.4202 8.82345C19.3502 8.82318 19.2802 8.82282 19.2101 8.82239L19.1978 10.8224C19.2693 10.8228 19.3408 10.8232 19.4124 10.8234L19.4202 8.82345ZM19.2088 8.82238C19.0149 8.82146 18.8219 8.82181 18.6313 8.82245L18.6381 10.8224C18.8271 10.8218 19.0136 10.8215 19.1992 10.8224L19.2088 8.82238ZM18.6322 8.82245C18.4346 8.82296 18.2372 8.82249 18.0358 8.82217L18.0326 10.8222C18.2316 10.8225 18.4345 10.823 18.6373 10.8224L18.6322 8.82245ZM18.0353 8.82217C17.6976 8.8218 17.3603 8.82228 17.0233 8.82325L17.0291 10.8232C17.3641 10.8223 17.6988 10.8218 18.0331 10.8222L18.0353 8.82217ZM17.0234 8.82325C16.6395 8.82434 16.2551 8.82399 15.8701 8.82288L15.8643 10.8229C16.2519 10.824 16.6402 10.8243 17.029 10.8232L17.0234 8.82325ZM15.8699 8.82288C15.5344 8.82196 15.1991 8.82183 14.8639 8.82236L14.867 10.8224C15.1997 10.8218 15.5321 10.822 15.8644 10.8229L15.8699 8.82288ZM14.8639 8.82236C14.6662 8.82267 14.4696 8.82272 14.2735 8.82206L14.2667 10.822C14.4675 10.8227 14.6678 10.8227 14.867 10.8224L14.8639 8.82236ZM14.273 8.82205C12.9495 8.81818 11.4938 8.87444 10.1716 10.0627L11.5085 11.5502C12.2251 10.9062 12.984 10.8183 14.2672 10.822L14.273 8.82205ZM17.8688 13.8765C17.9147 13.8982 17.9606 13.9199 18.0079 13.9422L18.8621 12.1338C18.8148 12.1114 18.7689 12.0897 18.723 12.0681L17.8688 13.8765ZM17.9843 13.9307C18.6843 14.2841 19.2129 14.9189 19.4792 15.6999L21.3722 15.0543C20.9528 13.8247 20.0945 12.7556 18.8857 12.1453L17.9843 13.9307ZM19.4672 15.6622C19.7254 16.5305 19.6729 17.3785 19.2841 18.1213L21.056 19.0489C21.7198 17.7807 21.7689 16.3856 21.3842 15.092L19.4672 15.6622ZM19.2941 18.1028C18.8379 18.9313 18.1654 19.4629 17.2465 19.7354L17.8151 21.6529C19.2221 21.2357 20.3279 20.3716 21.046 19.0674L19.2941 18.1028ZM17.2861 19.7246C16.6913 19.8747 16.0266 19.844 15.466 19.6387L14.7783 21.5167C15.7294 21.865 16.8049 21.9087 17.7755 21.6638L17.2861 19.7246ZM15.4447 19.6312C15.3929 19.6135 15.3411 19.5958 15.2877 19.5776L14.6425 21.4707C14.6959 21.4889 14.7477 21.5066 14.7996 21.5242L15.4447 19.6312ZM15.3154 19.5875C14.6135 19.3251 13.985 18.7349 13.6662 18.0429L11.8497 18.8797C12.3836 20.0387 13.4064 21.0089 14.6148 21.4608L15.3154 19.5875ZM13.6775 18.0683C13.3197 17.2312 13.2689 16.329 13.5749 15.5508L11.7136 14.819C11.1841 16.1657 11.3102 17.6182 11.8384 18.8543L13.6775 18.0683ZM13.5649 15.5755C13.9106 14.7605 14.5015 14.1286 15.2659 13.7965L14.4691 11.9621C13.1797 12.5222 12.2451 13.5653 11.7237 14.7944L13.5649 15.5755ZM15.234 13.8098C16.1195 13.461 17.048 13.4749 17.8563 13.8705L18.7355 12.0741C17.3731 11.4073 15.8555 11.4154 14.501 11.9489L15.234 13.8098ZM13.6315 14.1161C13.0356 14.8722 12.5358 15.859 12.6671 17.0599L14.6553 16.8426C14.6027 16.3612 14.7817 15.8878 15.2023 15.3541L13.6315 14.1161ZM12.6772 17.1295C12.8647 18.1647 13.3243 19.1602 14.332 19.8666L15.4801 18.229C15.0212 17.9073 14.7679 17.4506 14.6452 16.7731L12.6772 17.1295ZM14.3912 19.9051C15.2635 20.4289 16.246 20.681 17.3449 20.444L16.9232 18.489C16.4115 18.5993 15.9438 18.5045 15.4209 18.1905L14.3912 19.9051ZM17.4081 20.4282C18.4517 20.1309 19.3207 19.5216 19.8887 18.5177L18.1479 17.5329C17.8685 18.0268 17.4594 18.334 16.8601 18.5048L17.4081 20.4282ZM19.9129 18.4722C20.3534 17.5902 20.4848 16.5013 20.1725 15.506L18.2643 16.1048C18.4077 16.5621 18.3541 17.1171 18.1237 17.5784L19.9129 18.4722ZM20.1443 15.4276C20.1015 15.3228 20.0552 15.2169 20.0046 15.1108L18.1992 15.9712C18.2315 16.039 18.2625 16.1096 18.2925 16.1832L20.1443 15.4276ZM20.0142 15.1314C19.9965 15.0921 19.9789 15.0527 19.9607 15.0122L18.1361 15.8313C18.1543 15.8719 18.172 15.9112 18.1896 15.9505L20.0142 15.1314ZM19.9434 14.9757C19.4794 14.0447 18.6474 13.3727 17.7305 13.0397L17.0477 14.9195C17.5375 15.0974 17.943 15.4457 18.1534 15.8678L19.9434 14.9757ZM17.6726 13.0206C16.3306 12.624 14.7117 12.9256 13.6773 14.062L15.1564 15.4083C15.5997 14.9212 16.3857 14.7258 17.1056 14.9386L17.6726 13.0206ZM21.0308 11.9765C21.1388 12.0903 21.1495 12.16 21.1504 12.1839L23.1491 12.1111C23.1258 11.4718 22.8243 10.961 22.4815 10.5998L21.0308 11.9765ZM21.1522 12.0772C21.1447 12.1838 21.1314 12.2067 21.1352 12.1981C21.1371 12.1937 21.1392 12.1907 21.1385 12.1917C21.137 12.1937 21.128 12.2055 21.1039 12.2275L22.4525 13.7045C22.668 13.5077 22.8461 13.2781 22.9685 12.9974C23.0873 12.725 23.1304 12.4567 23.1472 12.2178L21.1522 12.0772ZM21.1337 12.2014C21.1087 12.2225 21.0955 12.2298 21.093 12.2312C21.0913 12.2321 21.0912 12.2321 21.0888 12.2328C21.0779 12.2358 21.032 12.2461 20.8839 12.2434L20.8471 14.243C21.0658 14.247 21.3334 14.2392 21.6157 14.1621C21.9151 14.0804 22.1794 13.9357 22.4227 13.7306L21.1337 12.2014ZM20.9905 12.251C20.9905 12.251 20.9972 12.252 21.0073 12.2558C21.0172 12.2595 21.0226 12.263 21.022 12.2626C21.0206 12.2617 21.011 12.2553 20.992 12.2379C20.9725 12.22 20.9467 12.194 20.9117 12.1547L19.4206 13.4876C19.6802 13.778 20.0845 14.1527 20.7405 14.2354L20.9905 12.251ZM20.9821 12.2431C20.9624 12.2152 20.9544 12.1988 20.9515 12.1922C20.9489 12.1863 20.9477 12.1821 20.9465 12.1762C20.9436 12.1611 20.9369 12.1112 20.9521 11.9757L18.9646 11.7527C18.9062 12.273 18.9432 12.8249 19.3502 13.3993L20.9821 12.2431ZM20.917 12.1488C20.9234 12.1272 20.9283 12.1168 20.9299 12.1137C20.9312 12.1111 20.9317 12.1105 20.9323 12.1098C20.9331 12.1088 20.9506 12.086 21.0204 12.0391L19.9038 10.3798C19.4967 10.6537 19.1666 11.0174 18.9997 11.5796L20.917 12.1488ZM20.9129 12.1021C20.9616 12.0774 20.9922 12.0687 21.0075 12.0654C21.0215 12.0624 21.0301 12.0623 21.0379 12.063C21.0541 12.0643 21.1171 12.0733 21.2536 12.1527L22.2587 10.4236C21.9589 10.2493 21.6056 10.1024 21.1993 10.0695C20.7806 10.0356 20.3834 10.1289 20.0113 10.3168L20.9129 12.1021ZM13.5667 14.2697C13.5924 14.2825 13.5659 14.2693 13.5916 14.2821C13.5979 14.2853 13.6104 14.2915 13.6167 14.2947C13.6722 14.3224 13.6115 14.2921 13.6674 14.32L14.5617 12.5311C14.5058 12.5032 14.5665 12.5335 14.511 12.5057C14.4873 12.4939 14.5284 12.5144 14.5047 12.5026C14.4919 12.4962 14.5112 12.5059 14.4984 12.4995C14.4919 12.4962 14.4925 12.4965 14.4859 12.4932C14.4728 12.4867 14.4741 12.4873 14.461 12.4807L13.5667 14.2697ZM13.4076 12.7184C13.3739 12.7521 13.428 12.698 13.3943 12.7316C13.3803 12.7456 13.395 12.7309 13.3811 12.7449C13.3516 12.7744 13.3841 12.7419 13.3546 12.7714C13.3051 12.8208 13.351 12.7749 13.3016 12.8244C13.2836 12.8424 13.293 12.8329 13.275 12.8509C13.225 12.9009 13.3118 12.8141 13.2618 12.8641C13.2527 12.8732 13.2576 12.8683 13.2485 12.8774C13.2466 12.8793 13.1974 12.9285 13.1955 12.9305C13.1789 12.947 13.1988 12.9271 13.1822 12.9437C13.1778 12.9481 13.1733 12.9526 13.1689 12.957C13.1509 12.975 13.1603 12.9656 13.1423 12.9836C13.1337 12.9922 13.0978 13.0281 13.0892 13.0367C13.0885 13.0374 13.0832 13.0427 13.0825 13.0434C13.082 13.0439 13.0814 13.0445 13.0808 13.045C13.0803 13.0456 13.0797 13.0462 13.0792 13.0467C13.079 13.0469 13.076 13.0498 13.0759 13.05C13.0263 13.0996 13.1121 13.0138 13.0625 13.0633C13.0266 13.0992 13.0851 13.0408 13.0492 13.0767C13.0428 13.0831 13.0424 13.0835 13.0359 13.09C12.9739 13.1519 13.0446 13.0813 12.9826 13.1433C12.8397 13.2861 12.6972 13.4286 12.5511 13.5746L13.9652 14.989C14.111 14.8432 14.254 14.7002 14.3966 14.5577C14.5012 14.4531 14.7181 14.2363 14.8216 14.1328L13.4076 12.7184ZM14.2582 14.2818C14.2582 14.3021 14.2559 14.3554 14.2353 14.4263C14.2134 14.5016 14.1804 14.5643 14.1493 14.6101C14.1239 14.6473 14.1048 14.6653 14.1232 14.6458C14.1323 14.6362 14.1413 14.627 14.1611 14.6066C14.1785 14.5886 14.2015 14.5648 14.2267 14.5377L12.7619 13.176C12.7169 13.2244 12.7394 13.1984 12.6711 13.2706C12.6318 13.312 12.5626 13.3868 12.4961 13.4845C12.3295 13.7291 12.2582 13.998 12.2582 14.2818H14.2582ZM14.2308 14.5333C14.2746 14.4856 14.3185 14.4379 14.3636 14.3887L12.8907 13.0358C12.8455 13.0849 12.8017 13.1326 12.7579 13.1804L14.2308 14.5333ZM14.3362 14.4173C14.423 14.3301 14.5133 14.2519 14.6199 14.1706L13.4077 12.5798C13.2376 12.7094 13.077 12.8473 12.9181 13.0071L14.3362 14.4173ZM4.24696 4.69992C4.25243 4.70266 4.25395 4.70341 4.25943 4.70615C4.26655 4.70971 4.25855 4.70571 4.26567 4.70927C4.26641 4.70964 4.26648 4.70968 4.26723 4.71005C4.27229 4.71258 4.26295 4.70791 4.26801 4.71044C4.26807 4.71047 4.26814 4.71051 4.2682 4.71054C4.26827 4.71057 4.26833 4.7106 4.2684 4.71064C4.26846 4.71067 4.26853 4.7107 4.26859 4.71073C4.26866 4.71077 4.26872 4.7108 4.26879 4.71083C4.27528 4.71408 4.26541 4.70915 4.27191 4.71239C4.27691 4.71489 4.29191 4.72239 4.29696 4.72491C4.35802 4.75544 4.28626 4.71957 4.34771 4.75029L5.242 2.96136C5.24132 2.96102 5.24107 2.9609 5.24039 2.96056C5.23935 2.96004 5.24063 2.96068 5.23959 2.96016C5.23952 2.96013 5.23946 2.96009 5.23939 2.96006C5.23932 2.96003 5.23926 2.95999 5.23919 2.95996C5.23873 2.95973 5.23924 2.95999 5.23879 2.95976C5.23825 2.95949 5.23852 2.95963 5.23799 2.95936C5.23768 2.95921 5.23749 2.95911 5.23719 2.95896C5.23718 2.95895 5.2356 2.95816 5.23559 2.95816C5.2278 2.95426 5.23698 2.95885 5.2292 2.95496C5.21262 2.94667 5.23303 2.95688 5.21648 2.9486C5.19335 2.93704 5.22694 2.95383 5.20383 2.94228C5.19271 2.93672 5.20235 2.94154 5.19124 2.93599C5.15938 2.92006 5.19801 2.93937 5.1662 2.92347C5.16143 2.92109 5.15847 2.91961 5.15371 2.91723C5.13777 2.90926 5.15718 2.91896 5.14124 2.91099L4.24696 4.69992ZM4.08782 3.14865C4.08068 3.15579 4.08015 3.15631 4.07301 3.16345C4.05964 3.17682 4.07898 3.15749 4.06561 3.17085C4.06499 3.17147 4.06437 3.17209 4.06376 3.1727C4.06314 3.17332 4.06252 3.17394 4.06191 3.17455C4.06129 3.17517 4.06067 3.17579 4.06005 3.1764C4.05944 3.17702 4.05882 3.17764 4.0582 3.17825C4.04801 3.18845 4.03879 3.19767 4.02859 3.20786C3.9744 3.26204 4.02354 3.21291 3.96935 3.26709C3.93205 3.30439 3.94739 3.28904 3.91008 3.32635C3.85133 3.38509 3.90954 3.32689 3.85077 3.38565C3.83114 3.40527 3.81105 3.42536 3.7914 3.445C3.76837 3.46804 3.78474 3.45167 3.76169 3.47471C3.75909 3.47731 3.76058 3.47582 3.75798 3.47842C3.75622 3.48018 3.75602 3.48038 3.75426 3.48214C3.75094 3.48545 3.75387 3.48253 3.75055 3.48585C3.74993 3.48647 3.74931 3.48709 3.74869 3.48771C3.74807 3.48833 3.74745 3.48895 3.74683 3.48957C3.73559 3.5008 3.74321 3.49319 3.73196 3.50443C3.70182 3.53457 3.70262 3.53377 3.67244 3.56394C3.5999 3.63647 3.6854 3.55099 3.61282 3.62355C3.56366 3.6727 3.54257 3.69379 3.49324 3.74311C3.48006 3.75628 3.44646 3.78988 3.43324 3.8031C3.41419 3.82214 3.39218 3.84414 3.37309 3.86324C3.31375 3.92256 3.19104 4.04525 3.13065 4.10562L4.54473 5.51998C4.60526 5.45946 4.72768 5.33706 4.78716 5.27759C4.82672 5.23803 4.77771 5.28704 4.81726 5.2475C4.84336 5.2214 4.80619 5.25857 4.83229 5.23247C4.83483 5.22993 4.8335 5.23126 4.83605 5.22872C4.83667 5.22809 4.8373 5.22746 4.83792 5.22684C4.83855 5.22621 4.83918 5.22559 4.8398 5.22496C4.84043 5.22433 4.84105 5.22371 4.84168 5.22308C4.84231 5.22246 4.84293 5.22183 4.84356 5.22121C4.84765 5.21711 4.84322 5.22154 4.84731 5.21745C4.87414 5.19063 4.88054 5.18423 4.90731 5.15746C4.9714 5.09339 4.90312 5.16165 4.96717 5.09762C4.98685 5.07794 5.00726 5.05754 5.0269 5.0379C5.09989 4.96492 5.01357 5.05123 5.08652 4.97829C5.09762 4.9672 5.09031 4.9745 5.10141 4.96341C5.10237 4.96245 5.10789 4.95692 5.10885 4.95596C5.12836 4.93646 5.09678 4.96803 5.11629 4.94853C5.15362 4.91121 5.10872 4.95609 5.14604 4.91878C5.19244 4.87239 5.12937 4.93545 5.17577 4.88906C5.18129 4.88354 5.19996 4.86487 5.20548 4.85936C5.2061 4.85874 5.20671 4.85812 5.20733 4.8575C5.20795 4.85688 5.20857 4.85626 5.20919 4.85564C5.20981 4.85503 5.21043 4.85441 5.21105 4.85379C5.21166 4.85317 5.21228 4.85255 5.2129 4.85193C5.22026 4.84458 5.21297 4.85187 5.22032 4.84451C5.22995 4.83489 5.22554 4.83929 5.23517 4.82967C5.25194 4.81291 5.23324 4.8316 5.25001 4.81483C5.2625 4.80235 5.25236 4.81249 5.26484 4.8C5.26976 4.79509 5.27476 4.79008 5.27968 4.78517C5.28471 4.78014 5.28947 4.77538 5.29451 4.77035C5.29746 4.76739 5.30638 4.75847 5.30933 4.75552C5.31583 4.74902 5.31766 4.7472 5.32415 4.7407C5.34908 4.71578 5.31405 4.7508 5.33898 4.72588C5.33959 4.72527 5.34021 4.72465 5.34083 4.72403C5.34145 4.72341 5.34206 4.7228 5.34268 4.72218C5.34568 4.71918 5.34338 4.72148 5.34638 4.71848C5.35492 4.70994 5.34526 4.7196 5.35379 4.71107C5.3576 4.70727 5.37962 4.68525 5.38342 4.68144C5.42233 4.64255 5.463 4.60188 5.50189 4.563L4.08782 3.14865ZM4.28483 3.91834C4.27936 3.9156 4.27784 3.91484 4.27236 3.9121C4.26525 3.90854 4.27325 3.91254 4.26613 3.90898C4.26506 3.90845 4.26407 3.90796 4.263 3.90742C4.25651 3.90418 4.26638 3.90911 4.25988 3.90586C4.20111 3.87648 4.29366 3.92275 4.23484 3.89334C4.21804 3.88495 4.22647 3.88916 4.2096 3.88073C4.17378 3.86282 4.22001 3.88593 4.18408 3.86797L3.28979 5.65689C3.31989 5.67194 3.36146 5.69272 3.39055 5.70726L4.28483 3.91834ZM4.49161 5.41853C4.72677 5.14804 4.93084 4.92906 5.15459 4.74106L3.86799 3.20983C3.52152 3.50095 3.23523 3.81536 2.98226 4.10633L4.49161 5.41853ZM5.14603 4.74817C5.26768 4.64824 5.29519 4.62186 5.41141 4.50221L3.97679 3.1087C3.95171 3.13452 3.93764 3.14899 3.92697 3.15977C3.91737 3.16947 3.91633 3.17027 3.91885 3.16793C3.92221 3.1648 3.92365 3.16372 3.91846 3.16809C3.91086 3.17451 3.90028 3.18323 3.87655 3.20272L5.14603 4.74817ZM20.0149 12.1039C20.0393 12.1161 20.0405 12.1166 20.0649 12.1289C20.0895 12.1411 20.0908 12.1418 20.1157 12.1543L21.01 10.3653C20.9541 10.3374 21.0148 10.3677 20.9592 10.34C20.9363 10.3285 20.9696 10.3451 20.9467 10.3337C20.945 10.3329 20.9358 10.3283 20.9342 10.3274C20.9079 10.3143 20.9543 10.3375 20.9279 10.3243C20.8981 10.3094 20.9516 10.3361 20.9217 10.3212C20.9151 10.3179 20.9159 10.3183 20.9092 10.315L20.0149 12.1039ZM19.8558 10.5526C19.8255 10.5829 19.6617 10.7467 19.6308 10.7776C19.5665 10.8419 19.4684 10.9399 19.4024 11.0059L20.8165 12.4203C20.8403 12.3964 20.8215 12.4152 20.8453 12.3914C20.8889 12.3479 20.8054 12.4313 20.8489 12.3878C20.8506 12.3862 20.8509 12.3858 20.8525 12.3842C20.8553 12.3815 20.857 12.3798 20.8597 12.377C20.878 12.3588 20.8487 12.3881 20.8669 12.3699C20.8691 12.3677 20.8719 12.3648 20.8741 12.3627C20.9172 12.3196 20.8884 12.3484 20.9313 12.3055C21.007 12.2298 20.9695 12.2673 21.0449 12.1919C21.0984 12.1384 21.1043 12.1325 21.1576 12.0792C21.1812 12.0556 21.1901 12.0467 21.2138 12.0231C21.2235 12.0133 21.218 12.0188 21.2278 12.009C21.2297 12.0071 21.2329 12.004 21.2348 12.002C21.2379 11.9989 21.2352 12.0016 21.2383 11.9985C21.2403 11.9966 21.2399 11.9969 21.2418 11.995C21.2704 11.9664 21.2273 12.0096 21.2559 11.981C21.2605 11.9764 21.2653 11.9716 21.2699 11.967L19.8558 10.5526ZM21.1095 11.7131C21.1095 11.7446 21.1052 11.7997 21.0844 11.8671C21.0633 11.9357 21.0336 11.9893 21.0099 12.0243C20.9905 12.053 20.9778 12.0647 20.9969 12.0439C21.0063 12.0337 21.0164 12.0231 21.0355 12.003C21.0525 11.985 21.0753 11.9609 21.0998 11.9341L19.6229 10.5854C19.6117 10.5977 19.5998 10.6103 19.5836 10.6275C19.5694 10.6425 19.5475 10.6654 19.5266 10.6881C19.4852 10.7331 19.4184 10.8076 19.3538 10.903C19.1976 11.1337 19.1095 11.403 19.1095 11.7131H21.1095ZM20.8085 12.1543C20.8333 12.1418 20.8335 12.1417 20.8585 12.1293C20.883 12.117 20.8844 12.1163 20.9092 12.1039L20.0149 10.315C19.959 10.3429 20.0197 10.3126 19.9642 10.3403C19.9419 10.3515 19.974 10.3354 19.9517 10.3466C19.9498 10.3475 19.941 10.3519 19.9391 10.3529C19.9263 10.3593 19.9395 10.3527 19.9267 10.3591C19.8977 10.3736 19.9432 10.3508 19.9142 10.3653L20.8085 12.1543Z" fill="#111111" mask="url(#path-1-outside-1_389_4166)"/>
</g>
<defs>
<filter id="filter0_d_389_4166" x="0.507568" y="0.677246" width="35" height="35" filterUnits="userSpaceOnUse" color-interpolation-filters="sRGB">
<feFlood flood-opacity="0" result="BackgroundImageFix"/>
<feColorMatrix in="SourceAlpha" type="matrix" values="0 0 0 0 0 0 0 0 0 0 0 0 0 0 0 0 0 0 127 0" result="hardAlpha"/>
<feOffset dx="1.5" dy="1.5"/>
<feGaussianBlur stdDeviation="0.75"/>
<feComposite in2="hardAlpha" operator="out"/>
<feColorMatrix type="matrix" values="0 0 0 0 0.933333 0 0 0 0 0.933333 0 0 0 0 0.933333 0 0 0 1 0"/>
<feBlend mode="normal" in2="BackgroundImageFix" result="effect1_dropShadow_389_4166"/>
<feBlend mode="normal" in="SourceGraphic" in2="effect1_dropShadow_389_4166" result="shape"/>
</filter>
</defs>
</svg>
